<?xml version="1.0" encoding="UTF-8" standalone="no"?>
<svg
   xmlns:dc="http://purl.org/dc/elements/1.1/"
   xmlns:cc="http://creativecommons.org/ns#"
   xmlns:rdf="http://www.w3.org/1999/02/22-rdf-syntax-ns#"
   xmlns:svg="http://www.w3.org/2000/svg"
   xmlns="http://www.w3.org/2000/svg"
   version="1.1"
   id="svg27896"
   viewBox="0 0 130.87005 579.43831"
   height="579.43829"
   width="130.87004">
  <defs
     id="defs27898" />
  <metadata
     id="metadata27901">
    <rdf:RDF>
      <cc:Work
         rdf:about="">
        <dc:format>image/svg+xml</dc:format>
        <dc:type
           rdf:resource="http://purl.org/dc/dcmitype/StillImage" />
        <dc:title></dc:title>
      </cc:Work>
    </rdf:RDF>
  </metadata>
  <g
     transform="translate(0,-461.2139)"
     id="layer1">
    <path
       id="path27141"
       style="fill:#76b337;fill-opacity:1;fill-rule:nonzero;stroke:none"
       d="m 130.87004,675.39301 c 0,36.1375 -29.29625,65.43375 -65.435,65.43375 C 29.29754,740.82676 0,711.53051 0,675.39301 c 0,-36.1375 29.29754,-65.435 65.43504,-65.435 36.13875,0 65.435,29.2975 65.435,65.435" />
    <path
       id="path27171"
       style="fill:#ffffff;fill-opacity:1;fill-rule:nonzero;stroke:none"
       d="m 91.364508,694.24005 c 0,5.395 -4.7275,9.76875 -10.56375,9.76875 l -31.328752,0 c -5.83375,0 -10.5625,-4.37375 -10.5625,-9.76875 l 0,-47.225 c 0,-5.3975 4.72875,-9.77125 10.5625,-9.77125 l 31.328752,0 c 5.83625,0 10.56375,4.37375 10.56375,9.77125 l 0,47.225 z m -22.506249,17.95375 -7.445003,0 c -1.02625,0 -1.86,-0.8675 -1.86,-1.9375 0,-1.07125 0.83375,-1.94 1.86,-1.94 l 7.445003,0 c 1.02875,0 1.861249,0.86875 1.861249,1.94 0,1.07 -0.832499,1.9375 -1.861249,1.9375 z m 14.681249,-82.39375 -36.805002,0 c -6.8525,0 -12.4075,5.78375 -12.4075,12.9225 l 0,62.4575 c 0,7.13625 5.555,12.9225 12.4075,12.9225 l 36.805002,0 c 6.85375,0 12.406249,-5.78625 12.406249,-12.9225 l 0,-62.4575 c 0,-7.13875 -5.552499,-12.9225 -12.406249,-12.9225" />
    <path
       id="path27127"
       style="fill:#ce407c;fill-opacity:1;fill-rule:nonzero;stroke:none"
       d="m 130.86625,526.6464 c 0,36.1375 -29.295,65.435 -65.43375,65.435 C 29.295,592.0814 0,562.7839 0,526.6464 c 0,-36.1375 29.295,-65.4325 65.4325,-65.4325 36.13875,0 65.43375,29.295 65.43375,65.4325" />
    <path
       id="path27219"
       style="fill:#ffffff;fill-opacity:1;fill-rule:nonzero;stroke:none"
       d="m 89.53875,516.6664 c 1.83875,0.14 3.205,0.77875 4.60125,2.0225 3.213749,2.8475 2.569999,7.56 5.689999,10.5475 1.416251,1.36 6.466251,2.42125 6.493751,4.455 0.0288,2.10125 -3.7,2.38375 -5.1875,3.11125 -1.660001,0.8225 -4.288751,2.50625 -3.330001,4.89375 0.98375,2.4475 3.902501,1.1525 2.248751,4.40125 -1.392501,2.7275 -2.142501,2.27125 -2.268751,5.65625 -0.05,1.34625 -0.2675,2.50625 -0.74375,3.53875 -1.09125,1.23125 -2.2475,2.3925 -3.473749,3.48875 -5.905,3.30875 -7.4125,-4.2225 -8.665,-8.58125 -0.93375,-3.24 -1.9075,-6.4075 -1.3675,-9.82875 0.26375,-1.69125 1.515,-5.30375 0.55,-6.955 -2.59,-4.42875 -10.07625,2.6525 -13.6425,-2.03625 -2.5825,-3.39 -3.06625,-10.44375 -0.755,-13.925 1.3475,-2.0325 8.94,-4.065 8.75125,-5.31375 -1.69875,-0.2575 -3.48,0.14375 -5.12875,-0.605 -0.5925,-5.21625 6.31375,-3.84875 6.18375,-7.26875 -0.0637,-1.65875 -7.31,-7.13625 -3.10625,-7.64375 2.34375,-0.28125 4.29125,4.6075 6.475,5.115 3.27625,0.75625 5.19375,-1.46625 2.61875,-3.83 -1.29875,-1.18625 -3.59,-0.5975 -2.90875,-3.41 0.35125,-1.43125 2.8375,-2.825 3.9425,-4.1425 12.689999,7.3575 21.245,21.05625 21.245,36.7775 0,0.745 -0.075,1.4725 -0.11125,2.2075 -2.6725,0.0188 -5.63875,-2.50125 -6.97625,-4.43875 -1.017501,-1.4775 -1.795001,-2.88125 -2.175001,-4.61375 -0.3525,-1.6075 0.22875,-4.1075 -1.48375,-5.19125 -1.4925,-0.9425 -11.097499,-0.81375 -11.344999,0.295 -0.5125,2.325 2.85125,1.20125 3.86875,1.27375 z m 10.223749,35.22625 c -1.14375,-2.65625 1.357501,-6.59125 4.108751,-7.07125 -1.14375,2.49875 -2.52125,4.86125 -4.108751,7.07125 z M 65,490.89015 c -3.18375,0.5775 -7.2425,9.4425 -11.48,5.46 -1.77875,-1.67 -0.785,-8.30625 1.14125,-10.36625 3.38625,-0.86625 6.915,-1.37875 10.57125,-1.37875 3.7375,0 7.3425,0.53125 10.7975,1.43875 0.0375,0.135 0.0913,0.255 0.115,0.405 -1.77125,0.055 -3.565,-0.44375 -5.3725,0.055 -0.52625,2.38875 7.25125,7.07625 2.78,8.335 -1.8,0.50625 -1.4825,-0.95875 -2.615,-1.93 -1.43625,-1.235 -3.9725,-2.37375 -5.9375,-2.01875 z m -21.87625,35.8625 c -1.62625,0.74125 -7.185,-1.575 -8.65125,-2.66875 -1.5725,-1.1725 -1.91625,-2.6075 -0.34125,-4.31125 l 0.77125,-0.51625 c -0.5475,4.945 7.72625,3.625 8.22125,7.49625 z m 13.69125,15.39 c -0.39875,4.51625 -1.9625,9.67625 -4.68125,13.25 -2.495,3.27625 -5.7375,5.4775 -7.39625,8.995 -2.465,-1.355 -4.77,-2.9575 -6.9075,-4.75875 0.0187,-0.77375 0.0712,-1.53625 0.20375,-2.24375 0.46875,-2.47 2.665,-5.03375 1.76875,-7.74 -0.8575,-2.5975 -2.92875,-1.0925 -4.4925,-2.86125 -1.10625,-1.24875 -1.24125,-4.52125 -1.9675,-6.1675 -1.73375,-3.93125 -0.5275,-10.735 -6.15,-10.62875 0.13625,-0.57875 -0.19,-1.41375 -0.1175,-1.92625 -1.1525,-0.0638 -2.7775,0.26375 -3.78,-0.29125 -0.23375,-0.12875 -0.4175,-0.26375 -0.57875,-0.4 l -0.009,-0.23625 c 0,-16.08875 8.93625,-30.0825 22.11,-37.30875 0.53375,0.285 1.04375,0.67625 1.51375,1.22125 0.6875,-0.55 1.5225,-0.9725 2.49,-1.16625 l -1.8075,2.06 c -0.21625,-0.3425 -0.44875,-0.625 -0.6825,-0.89375 -2.3025,1.84 -2.855,5.2 -0.3575,7.06625 3.1225,2.33125 6.03875,5.23875 4.3725,9.54625 -2.4925,-0.0675 -1.83,-3.35375 -3.84,-4.1375 -2.29375,-0.8925 -3.56375,1.7875 -4.64125,3.4125 -1.5725,2.375 -3.05125,4.68125 -5.415,6.35125 -0.67375,0.47625 -1.42375,0.32375 -2.0875,1.08 -0.6,0.67875 -0.50375,1.97 -0.99875,2.58625 -1.32625,1.6425 -7.61875,1.3975 -6.92375,4.885 0.24,1.21625 3.19125,3.075 3.8375,4.10125 0.3575,0.57625 -0.045,1.415 0.52875,2.085 0.91625,1.0625 2.48125,0.775 3.63125,1.0225 2.4325,0.52375 4.81625,0.80875 7.3425,1.05375 2.5775,0.24125 3.34875,0.9825 5.26375,2.29 3.94,2.69875 10.3275,3.43 9.77125,9.75375 z m 8.4175,-59.8625 c -24.77,0 -44.85,20.08125 -44.85,44.85375 0,24.77125 20.08,44.85125 44.85,44.85125 24.7725,0 44.8525,-20.08 44.8525,-44.85125 0,-24.7725 -20.08,-44.85375 -44.8525,-44.85375" />
    <path
       id="path27221"
       style="fill:#ffffff;fill-opacity:1;fill-rule:nonzero;stroke:none"
       d="m 48.82125,489.88015 c -0.9675,0.19375 -1.8025,0.61625 -2.49,1.16625 0.23375,0.26875 0.46625,0.55125 0.6825,0.89375 l 1.8075,-2.06" />
    <path
       id="path27129"
       style="fill:#2aabe2;fill-opacity:0.9254902;fill-rule:nonzero;stroke:none"
       d="m 130.86625,829.50291 c 0,36.14 -29.295,65.435 -65.43375,65.435 -36.1375,0 -65.4325,-29.295 -65.4325,-65.435 0,-36.13749 29.295,-65.43125 65.4325,-65.43125 36.13875,0 65.43375,29.29376 65.43375,65.43125" />
    <path
       id="path27309"
       style="fill:#ffffff;fill-opacity:1;fill-rule:nonzero;stroke:none"
       d="m 54.58,868.94416 c -0.16875,0.51 -0.695,1.0325 -1.17375,1.165 l -4.6175,1.2375 c -0.47625,0.12875 -0.8675,0.67875 -0.8675,1.225 l 0,1.1425 c 0,0.5425 0.4025,0.9875 0.89375,0.9875 l 34.84125,0 c 0.49125,0 0.89375,-0.445 0.89375,-0.9875 l 0,-1.145 c 0,-0.54375 -0.38875,-1.09375 -0.8675,-1.2225 l -4.61125,-1.2375 c -0.4775,-0.1325 -1.00625,-0.655 -1.175,-1.165 l -3.41375,-10.37875 -16.48875,0 -3.41375,10.37875" />
    <path
       id="path27311"
       style="fill:#ffffff;fill-opacity:1;fill-rule:nonzero;stroke:none"
       d="m 104.54375,818.00916 c -1.6175,0 -2.92625,-1.30875 -2.92625,-2.925 0,-1.61875 1.30875,-2.9275 2.92625,-2.9275 1.61875,0 2.9275,1.30875 2.9275,2.9275 0,1.61625 -1.30875,2.925 -2.9275,2.925 m 0,10.8575 c -1.6175,0 -2.92625,-1.31125 -2.92625,-2.9275 0,-1.61625 1.30875,-2.93 2.92625,-2.93 1.61875,0 2.9275,1.31375 2.9275,2.93 0,1.61625 -1.30875,2.9275 -2.9275,2.9275 m 0,10.85125 c -1.6175,0 -2.92625,-1.30875 -2.92625,-2.9275 0,-1.61375 1.30875,-2.92375 2.92625,-2.92375 1.61875,0 2.9275,1.31 2.9275,2.92375 0,1.61875 -1.30875,2.9275 -2.9275,2.9275 m -5.801251,12.42 c 0,1.10375 -0.7325,2.00125 -1.633749,2.00125 l -69.625,0 c -0.90375,0 -1.63625,-0.8975 -1.63625,-2.00125 l 0,-45.1075 c 0,-1.10375 0.7325,-2 1.63625,-2 l 69.625,0 c 0.901249,0 1.633749,0.89625 1.633749,2 l 0,45.1075 m 5.500001,-50.78625 -32.065,0 -0.5025,0.89875 c -0.54,0.96875 -2.06,1.3425 -3.39625,0.84125 -0.9225,-0.35125 -1.50625,-1.035 -1.60125,-1.74 l -1.86,0 c -0.17875,0.65125 -0.77875,1.2375 -1.6675,1.51375 -1.36,0.415 -2.855,-0.0563 -3.345,-1.055 l -0.22375,-0.45875 -31.35375,0 c -3.06375,0 -5.54625,2.575 -5.54625,5.75375 l 0,45.70375 c 0,3.18125 2.4825,5.75625 5.54625,5.75625 l 76.015,0 c 3.06375,0 5.5525,-2.575 5.5525,-5.75625 l 0,-45.70375 c 0,-3.17875 -2.48875,-5.75375 -5.5525,-5.75375" />
    <path
       id="path27313"
       style="fill:#bfde95;fill-opacity:1;fill-rule:nonzero;stroke:none"
       d="m 62.13625,803.01541 c -0.004,0 -0.008,0 -0.0113,0 -1.01875,-0.004 -1.95125,-0.455 -2.32,-1.205 l 0,0 -0.22375,-0.45875 -7.19375,-14.74125 c -0.4875,-0.99875 0.21875,-2.14875 1.57875,-2.56625 0.3375,-0.10375 0.68375,-0.15375 1.02125,-0.15375 1.01875,0 1.955,0.4525 2.32,1.20625 l 7.4175,15.1975 c 0.17,0.3475 0.18875,0.71125 0.0925,1.0575 l 0,0 c -0.17875,0.65125 -0.77875,1.2375 -1.6675,1.51375 -0.02,0.005 -0.0387,0.0112 -0.0575,0.0162 -0.007,0.002 -0.015,0.005 -0.0225,0.006 -0.30875,0.0863 -0.6225,0.1275 -0.93,0.1275 -10e-4,0 -0.002,0 -0.004,0" />
    <path
       id="path27315"
       style="fill:#ffffff;fill-opacity:1;fill-rule:nonzero;stroke:none"
       d="m 62.13625,803.01541 c -0.004,0 -0.008,0 -0.0113,0 0.004,0 0.007,0 0.0113,0 l 0,0 m 0.004,0 c 0.3075,0 0.62125,-0.0412 0.93,-0.1275 -0.30875,0.0863 -0.6225,0.1275 -0.93,0.1275 m 0.95245,-0.13375 c 0.0188,-0.005 0.0375,-0.0112 0.0575,-0.0162 0.88875,-0.27625 1.48875,-0.8625 1.6675,-1.51375 l 0,0 c -0.17875,0.65125 -0.77875,1.2375 -1.6675,1.51375 -0.02,0.005 -0.0387,0.0112 -0.0575,0.0162 m -3.2875,-1.07125 0,0 -0.22375,-0.45875 0.22375,0.45875 0,0" />
    <path
       id="path27317"
       style="fill:#bfde95;fill-opacity:1;fill-rule:nonzero;stroke:none"
       d="m 69.5025,803.31416 c -0.001,0 -0.002,0 -0.004,0 -0.38375,0 -0.78,-0.065 -1.16375,-0.20125 -0.0188,-0.006 -0.0375,-0.0138 -0.0563,-0.0213 -0.9225,-0.35125 -1.50625,-1.035 -1.60125,-1.74 l 0,0 c -0.0412,-0.31 0,-0.6275 0.16625,-0.9225 l 8.2175,-14.705 c 0.37625,-0.6775 1.2325,-1.065 2.16875,-1.065 0.405,0 0.825,0.0725 1.2275,0.225 1.33375,0.5025 1.9775,1.69375 1.435,2.66125 l -7.715,13.80625 -0.5025,0.89875 0,0 c -0.002,0.004 -0.005,0.009 -0.007,0.0138 -0.005,0.007 -0.01,0.0162 -0.015,0.0237 0,10e-4 0,10e-4 0,10e-4 -0.3875,0.65125 -1.22375,1.0225 -2.13875,1.025 -0.004,0 -0.007,0 -0.0113,0" />
    <path
       id="path27319"
       style="fill:#ffffff;fill-opacity:1;fill-rule:nonzero;stroke:none"
       d="m 69.5025,803.31416 c -0.001,0 -0.002,0 -0.004,0 10e-4,0 0.002,0 0.004,0 l 0,0 m 0.0113,0 c 0.915,-0.002 1.75125,-0.37375 2.13875,-1.025 -0.3875,0.65125 -1.22375,1.0225 -2.13875,1.025 m -1.17875,-0.20125 c -0.0188,-0.006 -0.0375,-0.0138 -0.0562,-0.0213 -0.9225,-0.35125 -1.50625,-1.035 -1.60125,-1.74 l 0,0 c 0.095,0.705 0.67875,1.38875 1.60125,1.74 0.0188,0.007 0.0375,0.015 0.0562,0.0213 m 3.3175,-0.825 c 0.005,-0.007 0.01,-0.0162 0.015,-0.0237 -0.005,0.007 -0.01,0.0162 -0.015,0.0237 m 0.0225,-0.0375 0,0 0.5025,-0.89875 -0.5025,0.89875 0,0" />
    <path
       id="path27121"
       style="fill:#67696d;fill-opacity:1;fill-rule:nonzero;stroke:none"
       d="m 130.86937,975.21719 c 0,36.14001 -29.2975,65.43501 -65.43474,65.43501 C 29.2955,1040.6522 0,1011.3572 0,975.21719 c 0,-36.1375 29.2955,-65.43125 65.43463,-65.43125 36.13725,0 65.43474,29.29375 65.43474,65.43125" />
    <path
       id="path27321"
       style="fill:#b6b5b5;fill-opacity:1;fill-rule:nonzero;stroke:none"
       d="m 51.19738,1011.3335 -23.98788,0 c -3.375,0 -6.10987,-2.7375 -6.10987,-6.1113 l 0.003,-11.10626 0.0323,0 c 0.59325,-9.20125 9.59512,-14.45 19.79775,-15.76125 0.43462,-1.3225 -3.8e-4,-2.66125 -0.38075,-3.46125 -1.379,-0.61375 -2.63925,-1.43625 -3.7505,-2.4275 -0.90188,0.0863 -1.80525,0.14 -2.71688,0.14 -1.709,0 -3.44575,-0.1875 -5.2475,-0.69875 2.7715,-0.90875 3.126,-4.805 3.22463,-8.47125 -0.0694,-0.57625 -0.11625,-1.1575 -0.11625,-1.75375 0,-1.06125 0.1225,-2.0925 0.33937,-3.0875 l 0.0323,-0.26 c 1.85588,-11.25125 13.04588,-11.7425 13.04588,-11.7425 0.2095,-0.007 0.4165,-0.0113 0.62112,-0.0113 11.23288,0 14.82075,11.51 14.82075,11.51 -0.0415,0.625 -0.0581,1.22875 -0.0625,1.82125 0.0727,0.57875 0.11963,1.17 0.11963,1.77 0,0.17125 -0.019,0.3375 -0.0249,0.5075 0.32075,3.585 1.497,6.665 3.82862,9.9 -0.45663,0.0213 -0.91463,0.0312 -1.3745,0.0312 -2.1285,0 -4.293,-0.20375 -6.47513,-0.42625 -1.44337,1.50125 -3.2085,2.685 -5.18512,3.4525 -0.27638,1.17375 -0.13763,2.35126 0.0947,3.27875 1.20162,0.1675 2.38775,0.3875 3.5405,0.66875 -3.6035,3.215 -5.94475,7.3675 -6.27288,12.465 l -0.0425,0 -0.003,14.27251 c 0,2.1437 0.85938,4.085 2.25,5.5013" />
    <path
       id="path27323"
       style="fill:#ffffff;fill-opacity:1;fill-rule:evenodd;stroke:none"
       d="m 109.67812,992.83719 -0.0375,-1.19875 c -0.63124,-9.7825 -9.555,-15.65125 -20.166869,-17.64625 -0.72762,-0.865 -1.40675,-2.3925 -0.50687,-4.7825 3.93625,-2.02375 6.9725,-5.555 8.28125,-9.86125 0.33375,0.13875 0.7,0.22 1.085,0.22 1.56875,0 2.842499,-1.275 2.842499,-2.845 0,-1.56875 -1.273749,-2.84125 -2.842499,-2.84125 -0.13625,0 -0.2675,0.02 -0.3975,0.0387 -0.3275,-8.845 -7.584,-15.925 -16.50788,-15.925 -8.924751,0 -16.179121,7.08 -16.508251,15.92 -1.40087,0.17875 -2.48775,1.36 -2.48775,2.8075 0,1.57 1.27188,2.845 2.83975,2.845 0.13388,0 0.26075,-0.025 0.38775,-0.0412 1.2105,3.8225 3.78325,7.02375 7.13525,9.07875 l -0.49125,0.01 c 0,0 3.291,1.49625 0.30088,5.08751 0,0 0.0644,0.10249 0.2045,0.27125 -10.6655,1.975 -19.65475,7.85875 -20.28713,17.66375 l -0.038,0 -0.003,12.70505 c 0,3.8575 3.128,6.99 6.99125,6.99 l 43.21762,0 c 3.8575,0 6.98875,-3.1325 6.98875,-6.99 0,0 -0.0288,-9.3163 0,-11.5063" />
  </g>
</svg>
