<?xml version="1.0" encoding="UTF-8" standalone="no"?>
<svg
   xmlns:dc="http://purl.org/dc/elements/1.1/"
   xmlns:cc="http://creativecommons.org/ns#"
   xmlns:rdf="http://www.w3.org/1999/02/22-rdf-syntax-ns#"
   xmlns:svg="http://www.w3.org/2000/svg"
   xmlns="http://www.w3.org/2000/svg"
   viewBox="0 0 376.17773 691.03662"
   height="691.03662"
   width="376.17773"
   xml:space="preserve"
   version="1.1"
   id="svg41310"><metadata
     id="metadata41316"><rdf:RDF><cc:Work
         rdf:about=""><dc:format>image/svg+xml</dc:format><dc:type
           rdf:resource="http://purl.org/dc/dcmitype/StillImage" /><dc:title></dc:title></cc:Work></rdf:RDF></metadata><defs
     id="defs41314"><clipPath
       id="clipPath41326"
       clipPathUnits="userSpaceOnUse"><path
         id="path41328"
         d="M 0,500 500,500 500,0 0,0 0,500 Z" /></clipPath><radialGradient
       id="radialGradient41348"
       spreadMethod="pad"
       gradientTransform="matrix(23.845947,0,0,-23.845947,63.050781,290.2041)"
       gradientUnits="userSpaceOnUse"
       r="1"
       cy="0"
       cx="0"
       fy="0"
       fx="0"><stop
         id="stop41350"
         offset="0"
         style="stop-opacity:1;stop-color:#f1f2f2" /><stop
         id="stop41352"
         offset="0.873245"
         style="stop-opacity:1;stop-color:#f1f2f2" /><stop
         id="stop41354"
         offset="0.967133"
         style="stop-opacity:1;stop-color:#afb1b3" /><stop
         id="stop41356"
         offset="1"
         style="stop-opacity:1;stop-color:#afb1b3" /></radialGradient><radialGradient
       id="radialGradient41372"
       spreadMethod="pad"
       gradientTransform="matrix(20.416016,0,0,-20.416016,428.74414,96.075195)"
       gradientUnits="userSpaceOnUse"
       r="1"
       cy="0"
       cx="0"
       fy="0"
       fx="0"><stop
         id="stop41374"
         offset="0"
         style="stop-opacity:1;stop-color:#f1f2f2" /><stop
         id="stop41376"
         offset="0.873245"
         style="stop-opacity:1;stop-color:#f1f2f2" /><stop
         id="stop41378"
         offset="0.967133"
         style="stop-opacity:1;stop-color:#afb1b3" /><stop
         id="stop41380"
         offset="1"
         style="stop-opacity:1;stop-color:#afb1b3" /></radialGradient><clipPath
       id="clipPath41388"
       clipPathUnits="userSpaceOnUse"><path
         id="path41390"
         d="M 0,500 500,500 500,0 0,0 0,500 Z" /></clipPath><radialGradient
       id="radialGradient41408"
       spreadMethod="pad"
       gradientTransform="matrix(10.496094,0,0,-10.496094,428.74414,96.076172)"
       gradientUnits="userSpaceOnUse"
       r="1"
       cy="0"
       cx="0"
       fy="0"
       fx="0"><stop
         id="stop41410"
         offset="0"
         style="stop-opacity:1;stop-color:#f1f2f2" /><stop
         id="stop41412"
         offset="0.873245"
         style="stop-opacity:1;stop-color:#f1f2f2" /><stop
         id="stop41414"
         offset="0.967133"
         style="stop-opacity:1;stop-color:#afb1b3" /><stop
         id="stop41416"
         offset="1"
         style="stop-opacity:1;stop-color:#afb1b3" /></radialGradient><clipPath
       id="clipPath41424"
       clipPathUnits="userSpaceOnUse"><path
         id="path41426"
         d="M 0,500 500,500 500,0 0,0 0,500 Z" /></clipPath><radialGradient
       id="radialGradient41448"
       spreadMethod="pad"
       gradientTransform="matrix(23.845947,0,0,-23.845947,227.70068,307.58691)"
       gradientUnits="userSpaceOnUse"
       r="1"
       cy="0"
       cx="0"
       fy="0"
       fx="0"><stop
         id="stop41450"
         offset="0"
         style="stop-opacity:1;stop-color:#f1f2f2" /><stop
         id="stop41452"
         offset="0.81221"
         style="stop-opacity:1;stop-color:#f1f2f2" /><stop
         id="stop41454"
         offset="0.948364"
         style="stop-opacity:1;stop-color:#95979a" /><stop
         id="stop41456"
         offset="1"
         style="stop-opacity:1;stop-color:#95979a" /></radialGradient><clipPath
       id="clipPath41464"
       clipPathUnits="userSpaceOnUse"><path
         id="path41466"
         d="M 0,500 500,500 500,0 0,0 0,500 Z" /></clipPath><radialGradient
       id="radialGradient41484"
       spreadMethod="pad"
       gradientTransform="matrix(24.556641,0,0,-24.556641,142.8125,319.67969)"
       gradientUnits="userSpaceOnUse"
       r="1"
       cy="0"
       cx="0"
       fy="0"
       fx="0"><stop
         id="stop41486"
         offset="0"
         style="stop-opacity:1;stop-color:#f1f2f2" /><stop
         id="stop41488"
         offset="0.873245"
         style="stop-opacity:1;stop-color:#f1f2f2" /><stop
         id="stop41490"
         offset="0.967133"
         style="stop-opacity:1;stop-color:#afb1b3" /><stop
         id="stop41492"
         offset="1"
         style="stop-opacity:1;stop-color:#afb1b3" /></radialGradient><clipPath
       id="clipPath41500"
       clipPathUnits="userSpaceOnUse"><path
         id="path41502"
         d="M 0,500 500,500 500,0 0,0 0,500 Z" /></clipPath><radialGradient
       id="radialGradient41520"
       spreadMethod="pad"
       gradientTransform="matrix(20.126221,0,0,-20.126221,354.2207,339.11768)"
       gradientUnits="userSpaceOnUse"
       r="1"
       cy="0"
       cx="0"
       fy="0"
       fx="0"><stop
         id="stop41522"
         offset="0"
         style="stop-opacity:1;stop-color:#f1f2f2" /><stop
         id="stop41524"
         offset="0.873245"
         style="stop-opacity:1;stop-color:#f1f2f2" /><stop
         id="stop41526"
         offset="0.967133"
         style="stop-opacity:1;stop-color:#afb1b3" /><stop
         id="stop41528"
         offset="1"
         style="stop-opacity:1;stop-color:#afb1b3" /></radialGradient><clipPath
       id="clipPath41536"
       clipPathUnits="userSpaceOnUse"><path
         id="path41538"
         d="M 0,500 500,500 500,0 0,0 0,500 Z" /></clipPath><radialGradient
       id="radialGradient41556"
       spreadMethod="pad"
       gradientTransform="matrix(10.345947,0,0,-10.345947,354.2207,339.11768)"
       gradientUnits="userSpaceOnUse"
       r="1"
       cy="0"
       cx="0"
       fy="0"
       fx="0"><stop
         id="stop41558"
         offset="0"
         style="stop-opacity:1;stop-color:#f1f2f2" /><stop
         id="stop41560"
         offset="0.873245"
         style="stop-opacity:1;stop-color:#f1f2f2" /><stop
         id="stop41562"
         offset="0.967133"
         style="stop-opacity:1;stop-color:#afb1b3" /><stop
         id="stop41564"
         offset="1"
         style="stop-opacity:1;stop-color:#afb1b3" /></radialGradient><clipPath
       id="clipPath41572"
       clipPathUnits="userSpaceOnUse"><path
         id="path41574"
         d="M 0,500 500,500 500,0 0,0 0,500 Z" /></clipPath><radialGradient
       id="radialGradient41596"
       spreadMethod="pad"
       gradientTransform="matrix(17.110596,0,0,-17.110596,154.34912,245.58398)"
       gradientUnits="userSpaceOnUse"
       r="1"
       cy="0"
       cx="0"
       fy="0"
       fx="0"><stop
         id="stop41598"
         offset="0"
         style="stop-opacity:1;stop-color:#f1f2f2" /><stop
         id="stop41600"
         offset="0.873245"
         style="stop-opacity:1;stop-color:#f1f2f2" /><stop
         id="stop41602"
         offset="0.967133"
         style="stop-opacity:1;stop-color:#afb1b3" /><stop
         id="stop41604"
         offset="1"
         style="stop-opacity:1;stop-color:#afb1b3" /></radialGradient><clipPath
       id="clipPath41612"
       clipPathUnits="userSpaceOnUse"><path
         id="path41614"
         d="M 0,500 500,500 500,0 0,0 0,500 Z" /></clipPath><radialGradient
       id="radialGradient41632"
       spreadMethod="pad"
       gradientTransform="matrix(8.7958984,0,0,-8.7958984,154.34912,245.58398)"
       gradientUnits="userSpaceOnUse"
       r="1"
       cy="0"
       cx="0"
       fy="0"
       fx="0"><stop
         id="stop41634"
         offset="0"
         style="stop-opacity:1;stop-color:#f1f2f2" /><stop
         id="stop41636"
         offset="0.873245"
         style="stop-opacity:1;stop-color:#f1f2f2" /><stop
         id="stop41638"
         offset="0.967133"
         style="stop-opacity:1;stop-color:#afb1b3" /><stop
         id="stop41640"
         offset="1"
         style="stop-opacity:1;stop-color:#afb1b3" /></radialGradient><clipPath
       id="clipPath41648"
       clipPathUnits="userSpaceOnUse"><path
         id="path41650"
         d="M 0,500 500,500 500,0 0,0 0,500 Z" /></clipPath><radialGradient
       id="radialGradient41668"
       spreadMethod="pad"
       gradientTransform="matrix(16.682129,0,0,-16.682129,368.37891,86.432617)"
       gradientUnits="userSpaceOnUse"
       r="1"
       cy="0"
       cx="0"
       fy="0"
       fx="0"><stop
         id="stop41670"
         offset="0"
         style="stop-opacity:1;stop-color:#f1f2f2" /><stop
         id="stop41672"
         offset="0.873245"
         style="stop-opacity:1;stop-color:#f1f2f2" /><stop
         id="stop41674"
         offset="0.967133"
         style="stop-opacity:1;stop-color:#afb1b3" /><stop
         id="stop41676"
         offset="1"
         style="stop-opacity:1;stop-color:#afb1b3" /></radialGradient><clipPath
       id="clipPath41684"
       clipPathUnits="userSpaceOnUse"><path
         id="path41686"
         d="M 0,500 500,500 500,0 0,0 0,500 Z" /></clipPath><radialGradient
       id="radialGradient41704"
       spreadMethod="pad"
       gradientTransform="matrix(8.5756836,0,0,-8.5756836,368.37793,86.431641)"
       gradientUnits="userSpaceOnUse"
       r="1"
       cy="0"
       cx="0"
       fy="0"
       fx="0"><stop
         id="stop41706"
         offset="0"
         style="stop-opacity:1;stop-color:#f1f2f2" /><stop
         id="stop41708"
         offset="0.873245"
         style="stop-opacity:1;stop-color:#f1f2f2" /><stop
         id="stop41710"
         offset="0.967133"
         style="stop-opacity:1;stop-color:#afb1b3" /><stop
         id="stop41712"
         offset="1"
         style="stop-opacity:1;stop-color:#afb1b3" /></radialGradient><radialGradient
       id="radialGradient41728"
       spreadMethod="pad"
       gradientTransform="matrix(22.254639,0,0,-22.254639,301.07227,296.84082)"
       gradientUnits="userSpaceOnUse"
       r="1"
       cy="0"
       cx="0"
       fy="0"
       fx="0"><stop
         id="stop41730"
         offset="0"
         style="stop-opacity:1;stop-color:#f1f2f2" /><stop
         id="stop41732"
         offset="0.81221"
         style="stop-opacity:1;stop-color:#f1f2f2" /><stop
         id="stop41734"
         offset="0.948364"
         style="stop-opacity:1;stop-color:#95979a" /><stop
         id="stop41736"
         offset="1"
         style="stop-opacity:1;stop-color:#95979a" /></radialGradient><radialGradient
       id="radialGradient41752"
       spreadMethod="pad"
       gradientTransform="matrix(15.824707,0,0,-15.824707,357.4834,192.42578)"
       gradientUnits="userSpaceOnUse"
       r="1"
       cy="0"
       cx="0"
       fy="0"
       fx="0"><stop
         id="stop41754"
         offset="0"
         style="stop-opacity:1;stop-color:#f1f2f2" /><stop
         id="stop41756"
         offset="0.873245"
         style="stop-opacity:1;stop-color:#f1f2f2" /><stop
         id="stop41758"
         offset="0.967133"
         style="stop-opacity:1;stop-color:#afb1b3" /><stop
         id="stop41760"
         offset="1"
         style="stop-opacity:1;stop-color:#afb1b3" /></radialGradient><clipPath
       id="clipPath41768"
       clipPathUnits="userSpaceOnUse"><path
         id="path41770"
         d="M 0,500 500,500 500,0 0,0 0,500 Z" /></clipPath><radialGradient
       id="radialGradient41788"
       spreadMethod="pad"
       gradientTransform="matrix(11.322754,0,0,-11.322754,331.02246,238.72363)"
       gradientUnits="userSpaceOnUse"
       r="1"
       cy="0"
       cx="0"
       fy="0"
       fx="0"><stop
         id="stop41790"
         offset="0"
         style="stop-opacity:1;stop-color:#f1f2f2" /><stop
         id="stop41792"
         offset="0.873245"
         style="stop-opacity:1;stop-color:#f1f2f2" /><stop
         id="stop41794"
         offset="0.967133"
         style="stop-opacity:1;stop-color:#afb1b3" /><stop
         id="stop41796"
         offset="1"
         style="stop-opacity:1;stop-color:#afb1b3" /></radialGradient><clipPath
       id="clipPath41804"
       clipPathUnits="userSpaceOnUse"><path
         id="path41806"
         d="M 0,500 500,500 500,0 0,0 0,500 Z" /></clipPath><radialGradient
       id="radialGradient41824"
       spreadMethod="pad"
       gradientTransform="matrix(17.461914,0,0,-17.461914,376.67578,141.23242)"
       gradientUnits="userSpaceOnUse"
       r="1"
       cy="0"
       cx="0"
       fy="0"
       fx="0"><stop
         id="stop41826"
         offset="0"
         style="stop-opacity:1;stop-color:#f1f2f2" /><stop
         id="stop41828"
         offset="0.873245"
         style="stop-opacity:1;stop-color:#f1f2f2" /><stop
         id="stop41830"
         offset="0.967133"
         style="stop-opacity:1;stop-color:#afb1b3" /><stop
         id="stop41832"
         offset="1"
         style="stop-opacity:1;stop-color:#afb1b3" /></radialGradient><clipPath
       id="clipPath41840"
       clipPathUnits="userSpaceOnUse"><path
         id="path41842"
         d="M 0,500 500,500 500,0 0,0 0,500 Z" /></clipPath><radialGradient
       id="radialGradient41928"
       spreadMethod="pad"
       gradientTransform="matrix(16.035156,0,0,-16.035156,76.119141,369.91016)"
       gradientUnits="userSpaceOnUse"
       r="1"
       cy="0"
       cx="0"
       fy="0"
       fx="0"><stop
         id="stop41930"
         offset="0"
         style="stop-opacity:1;stop-color:#f1f2f2" /><stop
         id="stop41932"
         offset="0.873245"
         style="stop-opacity:1;stop-color:#f1f2f2" /><stop
         id="stop41934"
         offset="0.967133"
         style="stop-opacity:1;stop-color:#afb1b3" /><stop
         id="stop41936"
         offset="1"
         style="stop-opacity:1;stop-color:#afb1b3" /></radialGradient><clipPath
       id="clipPath41944"
       clipPathUnits="userSpaceOnUse"><path
         id="path41946"
         d="M 0,500 500,500 500,0 0,0 0,500 Z" /></clipPath><radialGradient
       id="radialGradient41968"
       spreadMethod="pad"
       gradientTransform="matrix(8.1352539,0,0,-8.1352539,357.48242,192.42578)"
       gradientUnits="userSpaceOnUse"
       r="1"
       cy="0"
       cx="0"
       fy="0"
       fx="0"><stop
         id="stop41970"
         offset="0"
         style="stop-opacity:1;stop-color:#f1f2f2" /><stop
         id="stop41972"
         offset="0.873245"
         style="stop-opacity:1;stop-color:#f1f2f2" /><stop
         id="stop41974"
         offset="0.967133"
         style="stop-opacity:1;stop-color:#afb1b3" /><stop
         id="stop41976"
         offset="1"
         style="stop-opacity:1;stop-color:#afb1b3" /></radialGradient><clipPath
       id="clipPath41984"
       clipPathUnits="userSpaceOnUse"><path
         id="path41986"
         d="M 0,500 500,500 500,0 0,0 0,500 Z" /></clipPath><clipPath
       id="clipPath42008"
       clipPathUnits="userSpaceOnUse"><path
         id="path42010"
         d="M 0,500 500,500 500,0 0,0 0,500 Z" /></clipPath><radialGradient
       id="radialGradient42016"
       spreadMethod="pad"
       gradientTransform="matrix(333.81015,0,0,-333.81015,250,250)"
       gradientUnits="userSpaceOnUse"
       r="1"
       cy="0"
       cx="0"
       fy="0"
       fx="0"><stop
         id="stop42018"
         offset="0"
         style="stop-opacity:1;stop-color:#fffcf7" /><stop
         id="stop42020"
         offset="0.521133"
         style="stop-opacity:1;stop-color:#fffcf7" /><stop
         id="stop42022"
         offset="0.60324863"
         style="stop-opacity:1;stop-color:#fffcf7" /><stop
         id="stop42024"
         offset="1"
         style="stop-opacity:1;stop-color:#ede9e1" /></radialGradient><clipPath
       id="clipPath42044"
       clipPathUnits="userSpaceOnUse"><path
         id="path42046"
         d="m 211.112,52.7031 77.162,0 0,-33.8945 -77.162,0 0,33.8945 z" /></clipPath></defs><g
     transform="matrix(1.25,0,0,-1.25,-153.85954,637.25251)"
     id="g41318"><g
       transform="matrix(0.59565914,-0.80323732,0.80323732,0.59565914,-99.724114,301.89455)"
       id="g41322"><g
         clip-path="url(#clipPath41326)"
         id="g41324"><path
           id="path41330"
           style="fill:none;stroke:#ffffff;stroke-width:1;stroke-linecap:butt;stroke-linejoin:miter;stroke-miterlimit:4;stroke-dasharray:none;stroke-opacity:1"
           d="M 500,0 0,0 0,500 500,500 500,0 Z" /><g
           transform="translate(62.6455,277.9526)"
           id="g41332"><path
             id="path41334"
             style="fill:#ed1e79;fill-opacity:1;fill-rule:nonzero;stroke:none"
             d="m 0,0 c -6.767,0.224 -12.07,5.891 -11.846,12.657 0.224,6.767 5.891,12.07 12.658,11.846 C 7.578,24.279 12.881,18.613 12.657,11.845 12.433,5.079 6.766,-0.224 0,0 M 0.915,27.627 C -7.578,27.909 -14.689,21.252 -14.971,12.76 -15.252,4.269 -8.596,-2.843 -0.104,-3.125 8.389,-3.406 15.5,3.25 15.782,11.742 16.063,20.234 9.407,27.346 0.915,27.627 m -1.298,-39.208 c -13.164,0.436 -23.48,11.459 -23.044,24.621 0.435,13.164 11.459,23.48 24.622,23.044 C 14.358,35.648 24.674,24.625 24.238,11.462 23.803,-1.701 12.779,-12.017 -0.383,-11.581 m 34.232,22.726 c 0.051,1.535 -0.012,3.046 -0.163,4.534 l 7.589,3.891 c -0.253,1.413 -0.574,2.801 -0.965,4.162 l -8.524,0.142 c -1.062,2.864 -2.507,5.545 -4.273,7.984 l 4.622,7.159 c -0.92,1.091 -1.896,2.132 -2.923,3.123 l -7.45,-4.138 c -2.316,1.924 -4.895,3.542 -7.683,4.792 l 0.422,8.516 c -1.331,0.48 -2.695,0.891 -4.088,1.235 L 6.027,45.232 c -1.474,0.249 -2.979,0.413 -4.514,0.464 -1.535,0.051 -3.048,-0.013 -4.534,-0.164 l -3.892,7.588 c -1.412,-0.251 -2.801,-0.574 -4.162,-0.965 l -0.141,-8.523 c -2.865,-1.062 -5.546,-2.507 -7.985,-4.273 l -7.158,4.621 c -1.091,-0.92 -2.133,-1.895 -3.124,-2.922 l 4.138,-7.45 c -1.924,-2.316 -3.543,-4.895 -4.792,-7.683 l -8.515,0.422 c -0.48,-1.331 -0.892,-2.695 -1.237,-4.089 l 7.314,-4.385 c -0.25,-1.474 -0.412,-2.978 -0.463,-4.514 -0.051,-1.535 0.012,-3.047 0.163,-4.535 l -7.588,-3.892 c 0.252,-1.412 0.573,-2.8 0.965,-4.161 l 8.523,-0.141 c 1.062,-2.865 2.508,-5.546 4.274,-7.985 l -4.623,-7.159 c 0.921,-1.091 1.896,-2.132 2.923,-3.123 l 7.451,4.138 c 2.315,-1.924 4.895,-3.543 7.683,-4.792 l -0.422,-8.516 c 1.331,-0.48 2.695,-0.892 4.088,-1.236 l 4.386,7.314 c 1.474,-0.25 2.978,-0.412 4.513,-0.462 1.535,-0.052 3.047,0.011 4.535,0.163 l 3.893,-7.59 c 1.412,0.252 2.8,0.574 4.161,0.965 l 0.141,8.525 c 2.864,1.062 5.545,2.506 7.984,4.273 l 7.159,-4.623 c 1.091,0.92 2.133,1.896 3.124,2.923 l -4.139,7.451 c 1.924,2.315 3.542,4.895 4.793,7.683 l 8.515,-0.423 c 0.48,1.331 0.892,2.695 1.236,4.089 l -7.314,4.386 c 0.249,1.473 0.412,2.978 0.463,4.514" /></g></g></g><g
       transform="matrix(0.59565914,-0.80323732,0.80323732,0.59565914,-99.724114,301.89455)"
       id="g41336"><g
         id="g41338"><g
           id="g41344"><g
             id="g41346"><path
               id="path41358"
               style="fill:url(#radialGradient41348);stroke:none"
               d="m 39.218,290.992 c -0.436,-13.161 9.881,-24.184 23.044,-24.621 l 0,0 c 13.162,-0.435 24.187,9.881 24.622,23.044 l 0,0 c 0.436,13.162 -9.881,24.186 -23.043,24.622 l 0,0 c -0.27,0.009 -0.536,0.013 -0.804,0.013 l 0,0 C 50.232,314.049 39.645,303.887 39.218,290.992" /></g></g></g></g><g
       transform="matrix(0.59565914,-0.80323732,0.80323732,0.59565914,-99.724114,301.89455)"
       id="g41360"><g
         id="g41362"><g
           id="g41368"><g
             id="g41370"><path
               id="path41382"
               style="fill:url(#radialGradient41372);stroke:none"
               d="m 408.327,96.075 c 0,-11.275 9.141,-20.416 20.417,-20.416 l 0,0 c 11.276,0 20.416,9.141 20.416,20.416 l 0,0 c 0,11.275 -9.14,20.417 -20.416,20.417 l 0,0 c -11.276,0 -20.417,-9.142 -20.417,-20.417" /></g></g></g></g><g
       transform="matrix(0.59565914,-0.80323732,0.80323732,0.59565914,-99.724114,301.89455)"
       id="g41384"><g
         clip-path="url(#clipPath41388)"
         id="g41386"><g
           transform="translate(428.7441,109.2471)"
           id="g41392"><path
             id="path41394"
             style="fill:#999999;fill-opacity:1;fill-rule:nonzero;stroke:none"
             d="m 0,0 c -7.275,0 -13.172,-5.896 -13.172,-13.172 0,-7.274 5.897,-13.171 13.172,-13.171 7.275,0 13.171,5.897 13.171,13.171 C 13.171,-5.896 7.275,0 0,0" /></g></g></g><g
       transform="matrix(0.59565914,-0.80323732,0.80323732,0.59565914,-99.724114,301.89455)"
       id="g41396"><g
         id="g41398"><g
           id="g41404"><g
             id="g41406"><path
               id="path41418"
               style="fill:url(#radialGradient41408);stroke:none"
               d="m 418.248,96.075 c 0,-5.796 4.699,-10.495 10.496,-10.495 l 0,0 c 5.797,0 10.497,4.699 10.497,10.495 l 0,0 c 0,5.798 -4.7,10.497 -10.497,10.497 l 0,0 c -5.797,0 -10.496,-4.699 -10.496,-10.497" /></g></g></g></g><g
       transform="matrix(0.59565914,-0.80323732,0.80323732,0.59565914,-99.724114,301.89455)"
       id="g41420"><g
         clip-path="url(#clipPath41424)"
         id="g41422"><g
           transform="translate(261.1621,307.5874)"
           id="g41428"><path
             id="path41430"
             style="fill:#29abe2;fill-opacity:1;fill-rule:nonzero;stroke:none"
             d="m 0,0 c 0,1.536 -0.113,3.045 -0.313,4.526 l 7.456,4.141 c -0.299,1.403 -0.666,2.78 -1.102,4.128 l -8.523,-0.141 c -1.157,2.827 -2.69,5.459 -4.536,7.838 l 4.382,7.309 c -0.956,1.059 -1.965,2.068 -3.024,3.024 l -7.309,-4.382 c -2.378,1.846 -5.01,3.378 -7.838,4.536 l 0.141,8.524 c -1.346,0.435 -2.724,0.802 -4.127,1.1 l -4.142,-7.455 c -1.482,0.201 -2.99,0.314 -4.526,0.314 -1.537,0 -3.046,-0.113 -4.527,-0.314 l -4.141,7.456 c -1.403,-0.298 -2.78,-0.666 -4.127,-1.103 l 0.14,-8.522 c -2.828,-1.157 -5.46,-2.69 -7.839,-4.536 l -7.307,4.382 c -1.06,-0.956 -2.069,-1.965 -3.025,-3.024 l 4.382,-7.309 c -1.846,-2.378 -3.379,-5.01 -4.535,-7.838 l -8.525,0.141 c -0.435,-1.347 -0.802,-2.724 -1.1,-4.128 L -66.61,4.526 C -66.811,3.045 -66.923,1.536 -66.923,0 c 0,-1.536 0.112,-3.046 0.313,-4.527 l -7.456,-4.142 c 0.298,-1.402 0.666,-2.779 1.103,-4.127 l 8.523,0.142 c 1.156,-2.828 2.69,-5.46 4.535,-7.839 l -4.383,-7.309 c 0.956,-1.059 1.965,-2.068 3.025,-3.024 l 7.309,4.383 c 2.378,-1.847 5.01,-3.379 7.838,-4.536 l -0.14,-8.525 c 1.346,-0.435 2.723,-0.803 4.127,-1.1 l 4.141,7.455 c 1.482,-0.201 2.99,-0.313 4.527,-0.313 1.536,0 3.044,0.112 4.526,0.314 l 4.142,-7.456 c 1.403,0.297 2.78,0.665 4.127,1.101 l -0.141,8.524 c 2.827,1.157 5.459,2.689 7.838,4.536 l 7.309,-4.383 c 1.059,0.955 2.068,1.965 3.025,3.024 l -4.383,7.31 c 1.846,2.378 3.377,5.01 4.536,7.838 l 8.524,-0.142 c 0.436,1.347 0.802,2.724 1.101,4.128 l -7.456,4.142 C -0.113,-3.046 0,-1.536 0,0" /></g><g
           transform="translate(227.7007,283.7412)"
           id="g41432"><path
             id="path41434"
             style="fill:#29abe2;fill-opacity:1;fill-rule:nonzero;stroke:none"
             d="m 0,0 c -13.17,0 -23.846,10.676 -23.846,23.845 0,13.171 10.676,23.846 23.846,23.846 13.17,0 23.846,-10.675 23.846,-23.846 C 23.846,10.676 13.17,0 0,0" /></g></g></g><g
       transform="matrix(0.59565914,-0.80323732,0.80323732,0.59565914,-99.724114,301.89455)"
       id="g41436"><g
         id="g41438"><g
           id="g41444"><g
             id="g41446"><path
               id="path41458"
               style="fill:url(#radialGradient41448);stroke:none"
               d="m 203.854,307.587 c 0,-13.17 10.676,-23.846 23.847,-23.846 l 0,0 c 13.17,0 23.846,10.676 23.846,23.846 l 0,0 c 0,13.169 -10.676,23.845 -23.846,23.845 l 0,0 c -13.171,0 -23.847,-10.676 -23.847,-23.845" /></g></g></g></g><g
       transform="matrix(0.59565914,-0.80323732,0.80323732,0.59565914,-99.724114,301.89455)"
       id="g41460"><g
         clip-path="url(#clipPath41464)"
         id="g41462"><g
           transform="translate(392.1406,215.4668)"
           id="g41468"><path
             id="path41470"
             style="fill:#999999;fill-opacity:1;fill-rule:nonzero;stroke:none"
             d="m 0,0 c -1.537,0 -2.783,1.246 -2.783,2.781 0,1.538 1.246,2.783 2.783,2.783 1.537,0 2.783,-1.245 2.783,-2.783 C 2.783,1.246 1.537,0 0,0 m 0,6.274 c -1.929,0 -3.492,-1.563 -3.492,-3.493 0,-1.927 1.563,-3.491 3.492,-3.491 1.929,0 3.492,1.564 3.492,3.491 0,1.93 -1.563,3.493 -3.492,3.493 m 0,-8.905 c -2.989,0 -5.413,2.424 -5.413,5.412 0,2.99 2.424,5.414 5.413,5.414 2.989,0 5.413,-2.424 5.413,-5.414 C 5.413,-0.207 2.989,-2.631 0,-2.631 M 7.596,2.783 C 7.596,3.131 7.57,3.475 7.525,3.81 L 9.218,4.75 C 9.149,5.068 9.066,5.381 8.967,5.688 L 7.032,5.654 C 6.77,6.297 6.422,6.895 6.002,7.435 L 6.997,9.093 C 6.78,9.334 6.552,9.563 6.311,9.779 L 4.652,8.785 C 4.112,9.204 3.515,9.553 2.873,9.814 L 2.905,11.75 C 2.599,11.849 2.286,11.932 1.968,12 L 1.027,10.307 C 0.691,10.352 0.349,10.379 0,10.379 c -0.349,0 -0.691,-0.027 -1.027,-0.072 L -1.968,12 C -2.286,11.932 -2.599,11.849 -2.905,11.749 L -2.873,9.814 C -3.515,9.553 -4.112,9.204 -4.651,8.785 l -1.66,0.994 C -6.551,9.563 -6.78,9.334 -6.997,9.093 L -6.002,7.435 C -6.422,6.895 -6.77,6.297 -7.032,5.654 L -8.968,5.688 C -9.066,5.381 -9.149,5.068 -9.217,4.75 L -7.524,3.81 C -7.57,3.475 -7.596,3.131 -7.596,2.783 -7.596,2.434 -7.57,2.09 -7.524,1.755 L -9.218,0.814 c 0.069,-0.318 0.152,-0.63 0.251,-0.937 l 1.935,0.033 c 0.262,-0.642 0.61,-1.24 1.03,-1.78 l -0.995,-1.659 c 0.217,-0.241 0.445,-0.469 0.686,-0.686 l 1.66,0.994 c 0.539,-0.419 1.136,-0.767 1.778,-1.029 l -0.032,-1.936 c 0.306,-0.098 0.619,-0.181 0.937,-0.25 l 0.941,1.694 c 0.336,-0.045 0.678,-0.072 1.027,-0.072 0.349,0 0.691,0.027 1.027,0.072 l 0.941,-1.694 c 0.318,0.069 0.631,0.152 0.937,0.251 L 2.873,-4.25 c 0.641,0.262 1.239,0.61 1.779,1.029 l 1.659,-0.994 c 0.241,0.217 0.469,0.445 0.686,0.686 l -0.995,1.66 c 0.42,0.539 0.768,1.137 1.03,1.779 L 8.968,-0.123 C 9.066,0.184 9.149,0.496 9.217,0.814 L 7.525,1.755 C 7.57,2.09 7.596,2.434 7.596,2.783" /></g></g></g><g
       transform="matrix(0.59565914,-0.80323732,0.80323732,0.59565914,-99.724114,301.89455)"
       id="g41472"><g
         id="g41474"><g
           id="g41480"><g
             id="g41482"><path
               id="path41494"
               style="fill:url(#radialGradient41484);stroke:none"
               d="m 118.256,319.679 c 0,-13.54 11.016,-24.556 24.555,-24.556 l 0,0 c 13.542,0 24.558,11.016 24.558,24.556 l 0,0 c 0,13.541 -11.016,24.557 -24.558,24.557 l 0,0 c -13.539,0 -24.555,-11.016 -24.555,-24.557" /></g></g></g></g><g
       transform="matrix(0.59565914,-0.80323732,0.80323732,0.59565914,-99.724114,301.89455)"
       id="g41496"><g
         clip-path="url(#clipPath41500)"
         id="g41498"><g
           transform="translate(437.9492,145.2051)"
           id="g41504"><path
             id="path41506"
             style="fill:#cccccc;fill-opacity:1;fill-rule:nonzero;stroke:none"
             d="m 0,0 c -3.889,0 -7.041,3.152 -7.041,7.04 0,3.89 3.152,7.042 7.041,7.042 3.889,0 7.041,-3.152 7.041,-7.042 C 7.041,3.152 3.889,0 0,0 m 0,15.878 c -4.881,0 -8.836,-3.957 -8.836,-8.838 0,-4.879 3.955,-8.836 8.836,-8.836 4.881,0 8.837,3.957 8.837,8.836 0,4.881 -3.956,8.838 -8.837,8.838 M 0,-6.655 c -7.564,0 -13.697,6.132 -13.697,13.695 0,7.565 6.133,13.697 13.697,13.697 7.564,0 13.697,-6.132 13.697,-13.697 C 13.697,-0.523 7.564,-6.655 0,-6.655 M 19.22,7.042 c 0,0.882 -0.066,1.748 -0.179,2.6 l 4.281,2.378 c -0.172,0.805 -0.383,1.596 -0.633,2.371 L 17.794,14.31 c -0.663,1.624 -1.544,3.135 -2.605,4.502 l 2.517,4.198 c -0.55,0.608 -1.128,1.187 -1.737,1.737 L 11.771,22.229 C 10.404,23.29 8.893,24.17 7.27,24.835 L 7.35,29.73 C 6.576,29.981 5.785,30.191 4.979,30.363 L 2.6,26.081 c -0.851,0.115 -1.717,0.18 -2.6,0.18 -0.883,0 -1.749,-0.065 -2.6,-0.18 l -2.379,4.282 C -5.783,30.192 -6.575,29.98 -7.35,29.73 l 0.082,-4.895 c -1.625,-0.664 -3.136,-1.545 -4.503,-2.606 l -4.197,2.518 c -0.608,-0.55 -1.188,-1.129 -1.737,-1.737 l 2.517,-4.198 c -1.061,-1.367 -1.941,-2.877 -2.605,-4.502 l -4.896,0.081 c -0.25,-0.774 -0.461,-1.565 -0.633,-2.371 l 4.283,-2.378 c -0.116,-0.852 -0.181,-1.718 -0.181,-2.6 0,-0.883 0.065,-1.75 0.181,-2.602 l -4.283,-2.377 c 0.172,-0.806 0.383,-1.597 0.633,-2.372 l 4.896,0.081 c 0.664,-1.624 1.545,-3.135 2.605,-4.501 l -2.518,-4.199 c 0.55,-0.608 1.129,-1.187 1.737,-1.737 l 4.199,2.518 c 1.366,-1.061 2.877,-1.941 4.502,-2.605 l -0.082,-4.897 c 0.774,-0.25 1.565,-0.461 2.371,-0.632 l 2.379,4.282 c 0.852,-0.115 1.717,-0.18 2.6,-0.18 0.883,0 1.749,0.065 2.6,0.18 l 2.379,-4.282 c 0.806,0.171 1.597,0.382 2.371,0.633 l -0.08,4.896 c 1.623,0.664 3.134,1.544 4.501,2.605 l 4.198,-2.518 c 0.609,0.549 1.187,1.129 1.738,1.737 l -2.518,4.199 c 1.061,1.366 1.94,2.877 2.605,4.501 l 4.895,-0.081 c 0.251,0.774 0.461,1.565 0.633,2.372 l -4.281,2.378 c 0.113,0.851 0.179,1.718 0.179,2.601" /></g></g></g><g
       transform="matrix(0.59565914,-0.80323732,0.80323732,0.59565914,-99.724114,301.89455)"
       id="g41508"><g
         id="g41510"><g
           id="g41516"><g
             id="g41518"><path
               id="path41530"
               style="fill:url(#radialGradient41520);stroke:none"
               d="m 334.094,339.117 c 0,-11.115 9.01,-20.126 20.127,-20.126 l 0,0 c 11.115,0 20.126,9.011 20.126,20.126 l 0,0 c 0,11.116 -9.011,20.127 -20.126,20.127 l 0,0 c -11.117,0 -20.127,-9.011 -20.127,-20.127" /></g></g></g></g><g
       transform="matrix(0.59565914,-0.80323732,0.80323732,0.59565914,-99.724114,301.89455)"
       id="g41532"><g
         clip-path="url(#clipPath41536)"
         id="g41534"><g
           transform="translate(354.2207,352.1025)"
           id="g41540"><path
             id="path41542"
             style="fill:#808080;fill-opacity:1;fill-rule:nonzero;stroke:none"
             d="m 0,0 c -7.172,0 -12.986,-5.813 -12.986,-12.985 0,-7.171 5.814,-12.985 12.986,-12.985 7.171,0 12.984,5.814 12.984,12.985 C 12.984,-5.813 7.171,0 0,0" /></g></g></g><g
       transform="matrix(0.59565914,-0.80323732,0.80323732,0.59565914,-99.724114,301.89455)"
       id="g41544"><g
         id="g41546"><g
           id="g41552"><g
             id="g41554"><path
               id="path41566"
               style="fill:url(#radialGradient41556);stroke:none"
               d="m 343.874,339.117 c 0,-5.714 4.632,-10.345 10.347,-10.345 l 0,0 c 5.712,0 10.346,4.631 10.346,10.345 l 0,0 c 0,5.715 -4.634,10.347 -10.346,10.347 l 0,0 c -5.715,0 -10.347,-4.632 -10.347,-10.347" /></g></g></g></g><g
       transform="matrix(0.59565914,-0.80323732,0.80323732,0.59565914,-99.724114,301.89455)"
       id="g41568"><g
         clip-path="url(#clipPath41572)"
         id="g41570"><g
           transform="translate(76.1187,390.4883)"
           id="g41576"><path
             id="path41578"
             style="fill:#cccccc;fill-opacity:1;fill-rule:nonzero;stroke:none"
             d="m 0,0 c -11.346,0 -20.578,-9.231 -20.578,-20.579 0,-11.347 9.232,-20.578 20.578,-20.578 11.348,0 20.579,9.231 20.579,20.578 C 20.579,-9.231 11.348,0 0,0" /></g><g
           transform="translate(76.1187,360.146)"
           id="g41580"><path
             id="path41582"
             style="fill:#f7931e;fill-opacity:1;fill-rule:nonzero;stroke:none"
             d="m 0,0 c -5.384,0 -9.763,4.379 -9.763,9.763 0,5.385 4.379,9.765 9.763,9.765 5.386,0 9.765,-4.38 9.765,-9.765 C 9.765,4.379 5.386,0 0,0 m 32.734,6.459 c 0.114,1.124 0.172,2.232 0.172,3.306 0,1.074 -0.058,2.181 -0.172,3.303 l 5.975,3.319 1.083,0.603 -0.258,1.213 c -0.289,1.361 -0.652,2.714 -1.073,4.019 l -0.382,1.179 -1.24,-0.021 -6.831,-0.112 c -0.904,2.006 -2.012,3.924 -3.312,5.723 l 3.512,5.857 0.637,1.066 -0.831,0.921 c -0.931,1.027 -1.922,2.018 -2.946,2.941 l -0.922,0.832 -1.063,-0.637 -5.855,-3.512 c -1.796,1.296 -3.714,2.406 -5.724,3.312 l 0.114,6.833 0.02,1.24 -1.18,0.383 c -1.294,0.417 -2.647,0.777 -4.019,1.07 L 7.227,49.555 6.624,48.473 3.305,42.498 C 2.184,42.614 1.077,42.671 0,42.671 c -1.078,0 -2.185,-0.057 -3.303,-0.171 l -3.32,5.973 -0.601,1.082 -1.211,-0.256 c -1.349,-0.286 -2.702,-0.648 -4.022,-1.074 l -1.18,-0.383 0.021,-1.24 0.113,-6.829 c -2.01,-0.906 -3.929,-2.016 -5.726,-3.314 l -5.854,3.512 -1.065,0.637 -0.922,-0.832 c -1.026,-0.926 -2.015,-1.915 -2.942,-2.941 l -0.831,-0.921 0.637,-1.066 3.512,-5.857 c -1.298,-1.794 -2.408,-3.714 -3.314,-5.723 l -6.83,0.112 -1.241,0.021 -0.381,-1.179 c -0.424,-1.308 -0.787,-2.661 -1.074,-4.023 l -0.255,-1.211 1.081,-0.601 5.975,-3.319 c -0.114,-1.115 -0.172,-2.222 -0.172,-3.303 0,-1.083 0.058,-2.19 0.172,-3.306 l -5.976,-3.32 -1.084,-0.603 0.259,-1.212 c 0.291,-1.364 0.651,-2.715 1.072,-4.017 l 0.383,-1.18 1.241,0.02 6.83,0.113 c 0.907,-2.009 2.018,-3.927 3.314,-5.723 l -3.513,-5.855 -0.638,-1.066 0.832,-0.921 c 0.935,-1.036 1.926,-2.026 2.945,-2.943 l 0.921,-0.832 1.064,0.638 5.854,3.511 c 1.795,-1.296 3.715,-2.404 5.726,-3.312 l -0.113,-6.832 -0.021,-1.24 1.18,-0.382 c 1.308,-0.424 2.661,-0.786 4.022,-1.074 l 1.211,-0.254 0.601,1.081 3.32,5.974 c 1.122,-0.112 2.229,-0.171 3.303,-0.171 1.077,0 2.184,0.057 3.305,0.173 l 3.319,-5.976 0.601,-1.083 1.212,0.256 c 1.359,0.288 2.711,0.65 4.021,1.073 l 1.18,0.383 -0.02,1.24 -0.114,6.832 c 2.012,0.908 3.93,2.016 5.724,3.312 l 5.855,-3.511 1.063,-0.638 0.922,0.832 c 1.027,0.926 2.018,1.917 2.946,2.944 l 0.831,0.922 -0.637,1.064 -3.512,5.855 c 1.294,1.795 2.403,3.712 3.31,5.723 l 6.834,-0.113 1.24,-0.02 0.383,1.18 c 0.419,1.297 0.78,2.65 1.071,4.02 l 0.258,1.211 -1.083,0.603 -5.975,3.318 z" /></g></g></g><g
       transform="matrix(0.59565914,-0.80323732,0.80323732,0.59565914,-99.724114,301.89455)"
       id="g41584"><g
         id="g41586"><g
           id="g41592"><g
             id="g41594"><path
               id="path41606"
               style="fill:url(#radialGradient41596);stroke:none"
               d="m 137.238,245.584 c 0,-9.45 7.661,-17.11 17.112,-17.11 l 0,0 c 9.449,0 17.11,7.66 17.11,17.11 l 0,0 c 0,9.45 -7.661,17.111 -17.11,17.111 l 0,0 c -9.451,0 -17.112,-7.661 -17.112,-17.111" /></g></g></g></g><g
       transform="matrix(0.59565914,-0.80323732,0.80323732,0.59565914,-99.724114,301.89455)"
       id="g41608"><g
         clip-path="url(#clipPath41612)"
         id="g41610"><g
           transform="translate(154.3496,256.623)"
           id="g41616"><path
             id="path41618"
             style="fill:#6e6e6e;fill-opacity:1;fill-rule:nonzero;stroke:none"
             d="m 0,0 c -6.097,0 -11.04,-4.942 -11.04,-11.039 0,-6.097 4.943,-11.039 11.04,-11.039 6.096,0 11.039,4.942 11.039,11.039 C 11.039,-4.942 6.096,0 0,0" /></g></g></g><g
       transform="matrix(0.59565914,-0.80323732,0.80323732,0.59565914,-99.724114,301.89455)"
       id="g41620"><g
         id="g41622"><g
           id="g41628"><g
             id="g41630"><path
               id="path41642"
               style="fill:url(#radialGradient41632);stroke:none"
               d="m 145.553,245.584 c 0,-4.857 3.938,-8.796 8.797,-8.796 l 0,0 c 4.857,0 8.795,3.939 8.795,8.796 l 0,0 c 0,4.857 -3.938,8.796 -8.795,8.796 l 0,0 c -4.859,0 -8.797,-3.939 -8.797,-8.796" /></g></g></g></g><g
       transform="matrix(0.59565914,-0.80323732,0.80323732,0.59565914,-99.724114,301.89455)"
       id="g41644"><g
         clip-path="url(#clipPath41648)"
         id="g41646"><g
           transform="translate(368.3779,77.8555)"
           id="g41652"><path
             id="path41654"
             style="fill:#22b573;fill-opacity:1;fill-rule:nonzero;stroke:none"
             d="m 0,0 c -4.736,0 -8.575,3.839 -8.575,8.575 0,4.738 3.839,8.577 8.575,8.577 4.736,0 8.575,-3.839 8.575,-8.577 C 8.575,3.839 4.736,0 0,0 m 0,19.34 c -5.944,0 -10.762,-4.82 -10.762,-10.765 0,-5.944 4.818,-10.762 10.762,-10.762 5.944,0 10.762,4.818 10.762,10.762 C 10.762,14.52 5.944,19.34 0,19.34 M 0,-8.104 c -9.213,0 -16.683,7.466 -16.683,16.679 0,9.214 7.47,16.684 16.683,16.684 9.213,0 16.684,-7.47 16.684,-16.684 C 16.684,-0.638 9.213,-8.104 0,-8.104 m 23.409,16.68 c 0,1.074 -0.08,2.13 -0.22,3.166 l 5.216,2.898 c -0.209,0.982 -0.466,1.944 -0.77,2.886 l -5.962,-0.098 c -0.809,1.978 -1.883,3.819 -3.173,5.484 l 3.064,5.112 c -0.668,0.744 -1.375,1.448 -2.116,2.117 l -5.111,-3.066 c -1.665,1.292 -3.506,2.363 -5.484,3.173 L 8.951,36.21 C 8.009,36.515 7.045,36.771 6.064,36.98 L 3.167,31.766 C 2.131,31.905 1.075,31.985 0,31.985 c -1.075,0 -2.131,-0.08 -3.167,-0.219 l -2.896,5.214 c -0.982,-0.207 -1.945,-0.465 -2.888,-0.771 l 0.098,-5.961 c -1.978,-0.809 -3.819,-1.881 -5.484,-3.173 l -5.112,3.066 c -0.739,-0.669 -1.447,-1.373 -2.115,-2.117 l 3.066,-5.112 c -1.292,-1.664 -2.365,-3.504 -3.174,-5.484 l -5.963,0.098 c -0.304,-0.94 -0.561,-1.904 -0.769,-2.886 l 5.216,-2.898 c -0.142,-1.036 -0.221,-2.092 -0.221,-3.166 0,-1.075 0.079,-2.13 0.221,-3.168 l -5.217,-2.896 c 0.209,-0.982 0.466,-1.945 0.771,-2.888 l 5.962,0.101 c 0.809,-1.98 1.883,-3.821 3.174,-5.487 l -3.067,-5.11 c 0.669,-0.742 1.376,-1.447 2.116,-2.117 l 5.112,3.067 c 1.665,-1.292 3.506,-2.366 5.484,-3.172 l -0.098,-5.966 c 0.943,-0.304 1.906,-0.561 2.888,-0.77 l 2.896,5.217 c 1.036,-0.141 2.092,-0.221 3.167,-0.221 1.075,0 2.131,0.08 3.167,0.221 l 2.897,-5.217 c 0.981,0.209 1.945,0.466 2.887,0.771 l -0.098,5.965 c 1.977,0.806 3.819,1.88 5.484,3.172 l 5.111,-3.067 c 0.741,0.668 1.448,1.375 2.117,2.117 L 18.5,-5.759 c 1.29,1.663 2.361,3.504 3.173,5.484 l 5.962,-0.101 c 0.304,0.943 0.561,1.906 0.77,2.888 L 23.189,5.41 c 0.14,1.036 0.22,2.091 0.22,3.166" /></g></g></g><g
       transform="matrix(0.59565914,-0.80323732,0.80323732,0.59565914,-99.724114,301.89455)"
       id="g41656"><g
         id="g41658"><g
           id="g41664"><g
             id="g41666"><path
               id="path41678"
               style="fill:url(#radialGradient41668);stroke:none"
               d="m 351.696,86.431 c 0,-9.213 7.469,-16.68 16.682,-16.68 l 0,0 c 9.212,0 16.683,7.467 16.683,16.68 l 0,0 c 0,9.214 -7.471,16.683 -16.683,16.683 l 0,0 c -9.213,0 -16.682,-7.469 -16.682,-16.683" /></g></g></g></g><g
       transform="matrix(0.59565914,-0.80323732,0.80323732,0.59565914,-99.724114,301.89455)"
       id="g41680"><g
         clip-path="url(#clipPath41684)"
         id="g41682"><g
           transform="translate(368.3779,97.1953)"
           id="g41688"><path
             id="path41690"
             style="fill:#999999;fill-opacity:1;fill-rule:nonzero;stroke:none"
             d="m 0,0 c -5.944,0 -10.762,-4.82 -10.762,-10.765 0,-5.944 4.818,-10.761 10.762,-10.761 5.944,0 10.762,4.817 10.762,10.761 C 10.762,-4.82 5.944,0 0,0" /></g></g></g><g
       transform="matrix(0.59565914,-0.80323732,0.80323732,0.59565914,-99.724114,301.89455)"
       id="g41692"><g
         id="g41694"><g
           id="g41700"><g
             id="g41702"><path
               id="path41714"
               style="fill:url(#radialGradient41704);stroke:none"
               d="m 359.803,86.431 c 0,-4.737 3.838,-8.576 8.575,-8.576 l 0,0 c 4.736,0 8.575,3.839 8.575,8.576 l 0,0 c 0,4.737 -3.839,8.577 -8.575,8.577 l 0,0 c -4.737,0 -8.575,-3.84 -8.575,-8.577" /></g></g></g></g><g
       transform="matrix(0.59565914,-0.80323732,0.80323732,0.59565914,-99.724114,301.89455)"
       id="g41716"><g
         id="g41718"><g
           id="g41724"><g
             id="g41726"><path
               id="path41738"
               style="fill:url(#radialGradient41728);stroke:none"
               d="m 278.816,296.841 c 0,-12.292 9.965,-22.255 22.256,-22.255 l 0,0 c 12.291,0 22.255,9.963 22.255,22.255 l 0,0 c 0,12.291 -9.964,22.255 -22.255,22.255 l 0,0 c -12.291,0 -22.256,-9.964 -22.256,-22.255" /></g></g></g></g><g
       transform="matrix(0.59565914,-0.80323732,0.80323732,0.59565914,-99.724114,301.89455)"
       id="g41740"><g
         id="g41742"><g
           id="g41748"><g
             id="g41750"><path
               id="path41762"
               style="fill:url(#radialGradient41752);stroke:none"
               d="m 341.658,192.424 c 0,-8.738 7.085,-15.822 15.826,-15.822 l 0,0 c 8.739,0 15.824,7.084 15.824,15.822 l 0,0 c 0,8.742 -7.085,15.826 -15.824,15.826 l 0,0 c -8.741,0 -15.826,-7.084 -15.826,-15.826" /></g></g></g></g><g
       transform="matrix(0.59565914,-0.80323732,0.80323732,0.59565914,-99.724114,301.89455)"
       id="g41764"><g
         clip-path="url(#clipPath41768)"
         id="g41766"><g
           transform="translate(333.3574,210.9561)"
           id="g41772"><path
             id="path41774"
             style="fill:#f7931e;fill-opacity:1;fill-rule:nonzero;stroke:none"
             d="m 0,0 -1.111,-0.049 c -0.946,-0.042 -1.91,-0.033 -2.866,0.024 L -5.084,0.04 -5.346,1.121 -6.385,5.405 C -7.07,5.527 -7.738,5.68 -8.382,5.856 -9.031,6.037 -9.683,6.25 -10.328,6.493 l -3.088,-3.145 -0.778,-0.793 -0.985,0.512 c -0.846,0.437 -1.677,0.925 -2.471,1.45 l -0.93,0.61 0.312,1.067 1.243,4.228 c -1.04,0.884 -1.998,1.86 -2.868,2.919 l -4.243,-1.18 -1.072,-0.298 -0.598,0.939 c -0.511,0.805 -0.989,1.645 -1.414,2.494 l -0.499,0.995 0.804,0.768 3.188,3.036 c -0.463,1.289 -0.808,2.615 -1.031,3.959 l -4.267,1.101 -1.077,0.279 -0.048,1.111 c -0.042,0.946 -0.034,1.909 0.023,2.863 l 0.065,1.109 1.08,0.26 4.286,1.04 c 0.124,0.688 0.273,1.357 0.452,1.998 0.176,0.643 0.389,1.295 0.634,1.947 l -3.144,3.087 -0.793,0.776 0.512,0.984 c 0.441,0.853 0.928,1.686 1.448,2.476 l 0.61,0.929 1.069,-0.313 4.228,-1.243 c 0.882,1.04 1.859,2.001 2.917,2.868 l -1.177,4.242 -0.297,1.071 0.935,0.598 c 0.79,0.504 1.629,0.98 2.495,1.417 l 0.994,0.499 0.769,-0.807 3.037,-3.187 c 1.287,0.463 2.612,0.81 3.958,1.034 l 1.104,4.266 0.277,1.077 1.111,0.048 c 0.946,0.041 1.91,0.034 2.866,-0.023 L 0.416,55.495 0.679,54.415 1.717,50.13 C 2.402,50.007 3.07,49.855 3.714,49.678 4.357,49.5 5.009,49.288 5.66,49.042 l 3.089,3.144 0.777,0.793 0.985,-0.513 c 0.856,-0.443 1.688,-0.929 2.471,-1.448 l 0.93,-0.611 -0.313,-1.065 -1.242,-4.229 c 1.039,-0.882 1.999,-1.86 2.868,-2.918 l 4.242,1.18 1.07,0.297 0.598,-0.937 c 0.508,-0.792 0.982,-1.631 1.415,-2.494 l 0.499,-0.995 -0.804,-0.766 -3.186,-3.038 c 0.463,-1.291 0.808,-2.617 1.031,-3.961 l 4.267,-1.101 1.077,-0.278 0.048,-1.112 c 0.042,-0.95 0.035,-1.915 -0.023,-2.868 l -0.068,-1.105 -1.079,-0.262 -4.283,-1.037 c -0.124,-0.683 -0.276,-1.35 -0.453,-1.997 -0.178,-0.645 -0.39,-1.296 -0.637,-1.946 l 3.147,-3.088 0.793,-0.778 -0.513,-0.986 c -0.443,-0.855 -0.931,-1.687 -1.449,-2.472 l -0.61,-0.93 -1.068,0.313 -4.229,1.242 c -0.885,-1.042 -1.862,-2 -2.915,-2.865 L 13.273,5.964 13.57,4.894 12.632,4.295 C 11.826,3.784 10.987,3.306 10.138,2.882 L 9.144,2.382 8.376,3.187 5.338,6.377 C 4.053,5.914 2.729,5.568 1.381,5.344 L 0.278,1.076 0,0 Z" /></g></g></g><g
       transform="matrix(0.59565914,-0.80323732,0.80323732,0.59565914,-99.724114,301.89455)"
       id="g41776"><g
         id="g41778"><g
           id="g41784"><g
             id="g41786"><path
               id="path41798"
               style="fill:url(#radialGradient41788);stroke:none"
               d="m 330.474,250.033 c -6.237,-0.304 -11.064,-5.625 -10.76,-11.861 l 0,0 c 0.303,-6.236 5.622,-11.061 11.86,-10.758 l 0,0 c 6.236,0.303 11.06,5.623 10.757,11.859 l 0,0 c -0.294,6.05 -5.308,10.774 -11.301,10.773 l 0,0 c -0.184,0 -0.37,-0.004 -0.556,-0.013" /></g></g></g></g><g
       transform="matrix(0.59565914,-0.80323732,0.80323732,0.59565914,-99.724114,301.89455)"
       id="g41800"><g
         clip-path="url(#clipPath41804)"
         id="g41802"><g
           transform="translate(275.2188,248.8516)"
           id="g41808"><path
             id="path41810"
             style="fill:#b3b3b3;fill-opacity:1;fill-rule:nonzero;stroke:none"
             d="m 0,0 c -5.269,-1.506 -8.32,-6.995 -6.814,-12.267 1.507,-5.269 7,-8.318 12.268,-6.811 5.269,1.506 8.32,6.998 6.814,12.266 C 10.761,-1.541 5.269,1.506 0,0 m 17.997,-10.142 c -0.332,-8.433 -7.438,-15.001 -15.873,-14.668 -8.435,0.332 -15.003,7.441 -14.669,15.874 0.333,8.436 7.44,15.003 15.873,14.668 8.436,-0.332 15.004,-7.439 14.669,-15.874 m 6.074,2.666 4.877,2.461 c -0.154,0.908 -0.356,1.798 -0.6,2.673 l -5.462,0.125 c -0.669,1.84 -1.585,3.563 -2.707,5.134 l 2.991,4.57 C 22.586,8.189 21.963,8.861 21.31,9.5 L 16.518,6.877 C 15.043,8.12 13.395,9.168 11.613,9.979 l 0.306,5.458 c -0.851,0.312 -1.725,0.581 -2.614,0.808 L 6.463,11.575 C 5.518,11.741 4.556,11.852 3.573,11.891 2.589,11.93 1.617,11.896 0.665,11.805 l -2.462,4.879 c -0.907,-0.155 -1.8,-0.357 -2.672,-0.602 L -4.595,10.621 C -6.435,9.953 -8.159,9.037 -9.729,7.914 l -4.57,2.991 C -15.001,10.319 -15.673,9.7 -16.311,9.044 l 2.622,-4.791 c -1.245,-1.475 -2.292,-3.122 -3.104,-4.905 l -5.455,0.306 c -0.315,-0.851 -0.583,-1.724 -0.81,-2.614 l 4.669,-2.842 c -0.166,-0.944 -0.275,-1.906 -0.314,-2.889 -0.037,-0.985 -0.005,-1.955 0.086,-2.909 l -4.879,-2.463 c 0.156,-0.907 0.357,-1.797 0.601,-2.671 l 5.461,-0.124 c 0.67,-1.842 1.586,-3.566 2.708,-5.136 l -2.991,-4.57 c 0.585,-0.701 1.205,-1.374 1.86,-2.013 l 4.793,2.623 c 1.475,-1.243 3.123,-2.292 4.904,-3.103 l -0.306,-5.457 c 0.851,-0.312 1.723,-0.584 2.615,-0.807 l 2.841,4.669 c 0.946,-0.166 1.906,-0.276 2.89,-0.316 0.984,-0.038 1.953,-0.005 2.908,0.086 l 2.463,-4.878 c 0.906,0.154 1.798,0.356 2.671,0.601 l 0.125,5.462 c 1.84,0.67 3.565,1.585 5.134,2.707 l 4.571,-2.991 c 0.702,0.585 1.373,1.206 2.014,1.859 l -2.623,4.793 c 1.243,1.475 2.289,3.122 3.102,4.903 l 5.457,-0.304 c 0.312,0.85 0.583,1.722 0.808,2.616 l -4.668,2.838 c 0.164,0.944 0.275,1.908 0.314,2.891 0.038,0.984 0.004,1.954 -0.085,2.909" /></g></g></g><g
       transform="matrix(0.59565914,-0.80323732,0.80323732,0.59565914,-99.724114,301.89455)"
       id="g41812"><g
         id="g41814"><g
           id="g41820"><g
             id="g41822"><path
               id="path41834"
               style="fill:url(#radialGradient41824);stroke:none"
               d="m 371.723,157.97 c -9.244,-2.735 -14.525,-12.442 -11.789,-21.693 l 0,0 c 2.739,-9.246 12.452,-14.52 21.696,-11.782 l 0,0 c 9.247,2.734 14.523,12.447 11.786,21.693 l 0,0 c -2.246,7.594 -9.196,12.504 -16.729,12.504 l 0,0 c -1.641,0 -3.31,-0.233 -4.964,-0.722" /></g></g></g></g><g
       transform="matrix(0.59565914,-0.80323732,0.80323732,0.59565914,-99.724114,301.89455)"
       id="g41836"><g
         clip-path="url(#clipPath41840)"
         id="g41838"><g
           transform="translate(211.6211,388.5981)"
           id="g41844"><path
             id="path41846"
             style="fill:#22b573;fill-opacity:1;fill-rule:nonzero;stroke:none"
             d="m 0,0 c -2.629,-0.751 -4.151,-3.49 -3.4,-6.12 0.752,-2.63 3.493,-4.151 6.121,-3.4 2.629,0.752 4.151,3.493 3.4,6.122 C 5.369,-0.769 2.629,0.751 0,0 m 8.979,-5.061 c -0.166,-4.208 -3.711,-7.484 -7.919,-7.318 -4.209,0.166 -7.486,3.713 -7.32,7.921 0.166,4.209 3.712,7.484 7.92,7.318 4.209,-0.166 7.486,-3.712 7.319,-7.921 m 3.031,1.331 2.433,1.228 c -0.077,0.452 -0.177,0.897 -0.299,1.334 l -2.725,0.062 c -0.334,0.918 -0.791,1.778 -1.351,2.561 l 1.493,2.28 C 11.27,4.086 10.958,4.422 10.632,4.74 L 8.241,3.432 C 7.506,4.052 6.683,4.574 5.794,4.979 L 5.946,7.702 C 5.522,7.857 5.086,7.992 4.643,8.105 L 3.225,5.775 C 2.753,5.857 2.272,5.913 1.782,5.933 1.291,5.952 0.807,5.936 0.332,5.89 L -0.896,8.324 C -1.35,8.247 -1.795,8.146 -2.229,8.024 L -2.293,5.3 C -3.211,4.966 -4.071,4.509 -4.854,3.949 L -7.135,5.441 C -7.485,5.148 -7.82,4.84 -8.139,4.513 L -6.831,2.122 C -7.451,1.387 -7.975,0.564 -8.379,-0.325 l -2.722,0.152 c -0.157,-0.425 -0.291,-0.86 -0.404,-1.304 l 2.329,-1.418 c -0.082,-0.471 -0.137,-0.951 -0.156,-1.442 -0.019,-0.491 -0.003,-0.975 0.043,-1.451 l -2.435,-1.229 c 0.078,-0.452 0.179,-0.897 0.3,-1.333 l 2.725,-0.061 c 0.335,-0.919 0.792,-1.779 1.351,-2.563 l -1.492,-2.281 c 0.292,-0.349 0.601,-0.684 0.928,-1.004 l 2.391,1.309 c 0.737,-0.62 1.558,-1.144 2.447,-1.548 l -0.153,-2.723 c 0.425,-0.156 0.86,-0.291 1.305,-0.403 l 1.418,2.33 c 0.472,-0.083 0.95,-0.138 1.442,-0.157 0.491,-0.02 0.974,-0.003 1.451,0.043 l 1.228,-2.435 c 0.452,0.077 0.898,0.178 1.333,0.3 l 0.063,2.726 c 0.918,0.334 1.779,0.791 2.561,1.35 l 2.281,-1.492 c 0.35,0.291 0.685,0.602 1.004,0.928 l -1.308,2.39 c 0.62,0.737 1.142,1.559 1.548,2.448 l 2.723,-0.153 c 0.156,0.425 0.29,0.86 0.403,1.306 l -2.329,1.416 c 0.082,0.471 0.137,0.952 0.157,1.442 0.018,0.492 0.002,0.976 -0.043,1.452" /></g><g
           transform="translate(374.1563,283.1821)"
           id="g41848"><path
             id="path41850"
             style="fill:#999999;fill-opacity:1;fill-rule:nonzero;stroke:none"
             d="m 0,0 c -2.629,-0.751 -4.151,-3.49 -3.4,-6.12 0.752,-2.63 3.493,-4.151 6.121,-3.4 2.629,0.752 4.151,3.493 3.4,6.122 C 5.369,-0.769 2.629,0.751 0,0 m 8.979,-5.061 c -0.166,-4.208 -3.711,-7.484 -7.919,-7.318 -4.209,0.166 -7.486,3.713 -7.32,7.921 0.166,4.209 3.712,7.484 7.92,7.318 4.209,-0.166 7.486,-3.712 7.319,-7.921 m 3.031,1.331 2.433,1.228 c -0.077,0.452 -0.177,0.897 -0.299,1.334 l -2.725,0.062 c -0.334,0.918 -0.791,1.778 -1.351,2.561 l 1.493,2.28 C 11.27,4.086 10.958,4.422 10.632,4.74 L 8.241,3.432 C 7.506,4.052 6.683,4.574 5.794,4.979 L 5.946,7.702 C 5.522,7.857 5.086,7.992 4.643,8.105 L 3.225,5.775 C 2.753,5.857 2.272,5.913 1.782,5.933 1.291,5.952 0.807,5.936 0.332,5.89 L -0.896,8.324 C -1.35,8.247 -1.795,8.146 -2.229,8.024 L -2.293,5.3 C -3.211,4.966 -4.071,4.509 -4.854,3.949 L -7.135,5.441 C -7.485,5.148 -7.82,4.84 -8.139,4.513 L -6.831,2.122 C -7.451,1.387 -7.975,0.564 -8.379,-0.325 l -2.722,0.152 c -0.157,-0.425 -0.291,-0.86 -0.404,-1.304 l 2.329,-1.418 c -0.082,-0.471 -0.137,-0.951 -0.156,-1.442 -0.019,-0.491 -0.003,-0.975 0.043,-1.451 l -2.435,-1.229 c 0.078,-0.452 0.179,-0.897 0.3,-1.333 l 2.725,-0.061 c 0.335,-0.919 0.792,-1.779 1.351,-2.563 l -1.492,-2.281 c 0.292,-0.349 0.601,-0.684 0.928,-1.004 l 2.391,1.309 c 0.737,-0.62 1.558,-1.144 2.447,-1.548 l -0.153,-2.723 c 0.425,-0.156 0.86,-0.291 1.305,-0.403 l 1.418,2.33 c 0.472,-0.083 0.95,-0.138 1.442,-0.157 0.491,-0.02 0.974,-0.003 1.451,0.043 l 1.228,-2.435 c 0.452,0.077 0.898,0.178 1.333,0.3 l 0.063,2.726 c 0.918,0.334 1.779,0.791 2.561,1.35 l 2.281,-1.492 c 0.35,0.291 0.685,0.602 1.004,0.928 l -1.308,2.39 c 0.62,0.737 1.142,1.559 1.548,2.448 l 2.723,-0.153 c 0.156,0.425 0.29,0.86 0.403,1.306 l -2.329,1.416 c 0.082,0.471 0.137,0.952 0.157,1.442 0.018,0.492 0.002,0.976 -0.043,1.452" /></g><g
           transform="translate(380.293,301.7026)"
           id="g41852"><path
             id="path41854"
             style="fill:#b3b3b3;fill-opacity:1;fill-rule:nonzero;stroke:none"
             d="m 0,0 c 7.789,5.101 14.718,9.804 19.045,18.245 2.871,5.601 4.768,13.283 2.833,19.228 -0.195,0.599 -1.127,0.208 -0.94,-0.385 C 22.827,31.066 20.319,22.991 17.321,17.463 13.353,10.146 6.292,4.656 -1.013,0.759 -1.696,0.394 -0.683,-0.38 0,0" /></g><g
           transform="translate(400.9502,341.8555)"
           id="g41856"><path
             id="path41858"
             style="fill:#b3b3b3;fill-opacity:1;fill-rule:nonzero;stroke:none"
             d="m 0,0 c -1.048,-2.029 -2.302,-3.966 -3.8,-5.773 -0.448,-0.54 0.253,-1.184 0.859,-0.837 0.542,0.311 0.698,0.733 0.905,1.265 0.272,0.702 -0.86,1.176 -1.143,0.47 -0.119,-0.298 -0.174,-0.607 -0.502,-0.796 0.285,-0.279 0.572,-0.558 0.861,-0.836 1.558,1.902 2.848,3.945 3.925,6.074 C 1.446,0.242 0.346,0.665 0,0" /></g><g
           transform="translate(401.0195,342.2383)"
           id="g41860"><path
             id="path41862"
             style="fill:#b3b3b3;fill-opacity:1;fill-rule:nonzero;stroke:none"
             d="M 0,0 C 1.132,-0.633 2.116,-1.519 3.215,-2.24 3.842,-2.651 4.946,-3.327 5.696,-2.765 6.313,-2.303 5.691,-1.307 5.072,-1.771 4.739,-2.02 3.353,-0.917 3.034,-0.689 2.232,-0.116 1.473,0.519 0.616,0.994 -0.038,1.358 -0.664,0.372 0,0" /></g><g
           transform="translate(453.1738,53.6514)"
           id="g41864"><path
             id="path41866"
             style="fill:#b3b3b3;fill-opacity:1;fill-rule:nonzero;stroke:none"
             d="m 0,0 c 7.789,5.102 14.718,9.805 19.045,18.246 2.871,5.6 4.768,13.282 2.833,19.228 -0.195,0.598 -1.127,0.208 -0.94,-0.385 C 22.827,31.066 20.319,22.991 17.321,17.464 13.353,10.146 6.292,4.656 -1.013,0.76 -1.696,0.395 -0.683,-0.379 0,0" /></g><g
           transform="translate(473.8311,93.8047)"
           id="g41868"><path
             id="path41870"
             style="fill:#b3b3b3;fill-opacity:1;fill-rule:nonzero;stroke:none"
             d="m 0,0 c -1.048,-2.028 -2.302,-3.966 -3.8,-5.773 -0.448,-0.54 0.253,-1.183 0.859,-0.837 0.542,0.31 0.698,0.733 0.905,1.265 0.272,0.701 -0.86,1.176 -1.143,0.471 -0.119,-0.299 -0.174,-0.608 -0.502,-0.797 0.285,-0.279 0.572,-0.558 0.861,-0.836 1.558,1.903 2.848,3.945 3.925,6.074 C 1.446,0.242 0.346,0.665 0,0" /></g><g
           transform="translate(473.9004,94.1875)"
           id="g41872"><path
             id="path41874"
             style="fill:#b3b3b3;fill-opacity:1;fill-rule:nonzero;stroke:none"
             d="M 0,0 C 1.132,-0.634 2.116,-1.519 3.215,-2.24 3.842,-2.651 4.946,-3.327 5.696,-2.765 6.313,-2.303 5.691,-1.308 5.072,-1.771 4.739,-2.021 3.353,-0.917 3.034,-0.689 2.232,-0.116 1.473,0.519 0.616,0.994 -0.038,1.358 -0.664,0.372 0,0" /></g><g
           transform="translate(112.0894,409.2515)"
           id="g41876"><path
             id="path41878"
             style="fill:#b3b3b3;fill-opacity:1;fill-rule:nonzero;stroke:none"
             d="m 0,0 c -6.144,6.996 -11.773,13.196 -20.738,16.295 -5.949,2.057 -13.821,2.856 -19.435,0.106 -0.566,-0.277 -0.048,-1.145 0.512,-0.878 5.698,2.717 14.045,1.368 19.939,-0.825 C -11.919,11.796 -5.493,5.576 -0.609,-1.109 -0.151,-1.734 0.472,-0.623 0,0" /></g><g
           transform="translate(69.4341,424.0674)"
           id="g41880"><path
             id="path41882"
             style="fill:#b3b3b3;fill-opacity:1;fill-rule:nonzero;stroke:none"
             d="m 0,0 c 2.156,-0.753 4.25,-1.722 6.25,-2.952 0.597,-0.368 1.136,0.417 0.708,0.968 -0.384,0.493 -0.824,0.588 -1.38,0.719 -0.733,0.171 -1.043,-1.017 -0.306,-1.198 0.312,-0.076 0.627,-0.087 0.859,-0.385 0.237,0.321 0.473,0.644 0.708,0.97 C 4.736,-0.603 2.532,0.388 0.273,1.155 -0.442,1.398 -0.707,0.25 0,0" /></g><g
           transform="translate(69.0454,424.0825)"
           id="g41884"><path
             id="path41886"
             style="fill:#b3b3b3;fill-opacity:1;fill-rule:nonzero;stroke:none"
             d="M 0,0 C 0.468,1.209 1.207,2.308 1.767,3.498 2.085,4.176 2.6,5.364 1.938,6.028 1.394,6.573 0.495,5.818 1.041,5.271 1.334,4.976 0.437,3.448 0.257,3.101 -0.199,2.227 -0.721,1.385 -1.071,0.471 -1.34,-0.229 -0.275,-0.71 0,0" /></g><g
           transform="translate(334.3701,150.1387)"
           id="g41888"><path
             id="path41890"
             style="fill:#b3b3b3;fill-opacity:1;fill-rule:nonzero;stroke:none"
             d="m 0,0 c -1.669,-6.675 -3.071,-12.701 -1.188,-19.453 1.251,-4.481 4.075,-9.601 8.106,-11.858 0.406,-0.226 0.716,0.453 0.317,0.68 -4.047,2.321 -6.734,7.962 -7.879,12.466 C -2.159,-12.203 -1.08,-5.684 0.931,0.096 1.118,0.637 0.181,0.548 0,0" /></g><g
           transform="translate(343.2939,117.9844)"
           id="g41892"><path
             id="path41894"
             style="fill:#b3b3b3;fill-opacity:1;fill-rule:nonzero;stroke:none"
             d="M 0,0 C -0.447,1.628 -0.738,3.308 -0.833,5.04 -0.859,5.559 -1.563,5.556 -1.719,5.064 -1.856,4.623 -1.729,4.316 -1.575,3.923 -1.37,3.405 -0.519,3.716 -0.72,4.24 -0.804,4.462 -0.93,4.658 -0.846,4.924 -1.141,4.935 -1.435,4.94 -1.732,4.947 -1.623,3.132 -1.299,1.377 -0.815,-0.318 -0.663,-0.855 0.146,-0.533 0,0" /></g><g
           transform="translate(343.4492,117.7412)"
           id="g41896"><path
             id="path41898"
             style="fill:#b3b3b3;fill-opacity:1;fill-rule:nonzero;stroke:none"
             d="m 0,0 c -0.933,-0.222 -1.91,-0.234 -2.869,-0.394 -0.547,-0.092 -1.485,-0.28 -1.61,-0.961 -0.103,-0.558 0.733,-0.788 0.837,-0.227 0.056,0.304 1.363,0.399 1.649,0.436 0.722,0.09 1.453,0.127 2.156,0.298 C 0.701,-0.718 0.546,0.133 0,0" /></g><g
           transform="translate(119.9702,221.8682)"
           id="g41900"><path
             id="path41902"
             style="fill:#b3b3b3;fill-opacity:1;fill-rule:nonzero;stroke:none"
             d="m 0,0 c 6.265,-6.887 12.001,-12.988 21.02,-15.931 5.982,-1.952 13.868,-2.613 19.434,0.234 0.56,0.288 0.027,1.147 -0.529,0.869 -5.649,-2.816 -14.018,-1.612 -19.949,0.477 C 12.124,-11.585 5.589,-5.479 0.59,1.12 0.121,1.737 -0.482,0.614 0,0" /></g><g
           transform="translate(162.8779,207.7998)"
           id="g41904"><path
             id="path41906"
             style="fill:#b3b3b3;fill-opacity:1;fill-rule:nonzero;stroke:none"
             d="M 0,0 C -2.169,0.715 -4.279,1.648 -6.3,2.842 -6.904,3.2 -7.429,2.406 -6.992,1.863 -6.599,1.376 -6.158,1.289 -5.6,1.168 -4.863,1.009 -4.574,2.203 -5.314,2.37 -5.628,2.441 -5.943,2.446 -6.181,2.74 -6.412,2.416 -6.641,2.088 -6.871,1.759 -4.747,0.521 -2.525,-0.432 -0.253,-1.16 0.467,-1.39 0.71,-0.236 0,0" /></g><g
           transform="translate(163.2666,207.792)"
           id="g41908"><path
             id="path41910"
             style="fill:#b3b3b3;fill-opacity:1;fill-rule:nonzero;stroke:none"
             d="m 0,0 c -0.447,-1.219 -1.167,-2.33 -1.705,-3.528 -0.307,-0.684 -0.8,-1.881 -0.127,-2.533 0.553,-0.536 1.438,0.235 0.883,0.773 -0.298,0.289 0.573,1.833 0.746,2.184 0.441,0.88 0.948,1.732 1.282,2.652 C 1.335,0.252 0.263,0.714 0,0" /></g><g
           transform="translate(142.8115,331.3311)"
           id="g41912"><path
             id="path41914"
             style="fill:#b3b3b3;fill-opacity:1;fill-rule:nonzero;stroke:none"
             d="m 0,0 c -6.425,0 -11.65,-5.226 -11.65,-11.652 0,-6.425 5.225,-11.651 11.65,-11.651 6.427,0 11.652,5.226 11.652,11.651 C 11.652,-5.226 6.427,0 0,0 m 0,-30.786 c -10.551,0 -19.133,8.583 -19.133,19.134 0,10.55 8.582,19.135 19.133,19.135 10.551,0 19.136,-8.585 19.136,-19.135 0,-10.551 -8.585,-19.134 -19.136,-19.134 m 0,43.691 c -13.54,0 -24.556,-11.016 -24.556,-24.557 0,-13.54 11.016,-24.556 24.556,-24.556 13.542,0 24.558,11.016 24.558,24.556 C 24.558,1.889 13.542,12.905 0,12.905 m 8.622,-72.039 -0.717,1.292 -3.961,7.131 C 2.606,-50.85 1.286,-50.917 0,-50.917 c -1.282,0 -2.603,0.07 -3.942,0.204 l -3.961,-7.129 -0.717,-1.29 -1.445,0.303 c -1.624,0.344 -3.239,0.776 -4.8,1.282 l -1.407,0.455 0.024,1.48 0.135,8.153 c -2.4,1.083 -4.691,2.406 -6.832,3.952 l -6.987,-4.19 -1.269,-0.761 -1.1,0.993 c -1.216,1.095 -2.398,2.276 -3.514,3.511 l -0.992,1.1 0.761,1.271 4.192,6.987 c -1.547,2.144 -2.872,4.432 -3.955,6.83 l -8.15,-0.134 -1.48,-0.025 -0.457,1.408 c -0.503,1.554 -0.933,3.166 -1.28,4.793 l -0.31,1.447 1.294,0.72 7.131,3.962 c -0.136,1.332 -0.204,2.653 -0.204,3.945 0,1.289 0.068,2.61 0.204,3.942 l -7.129,3.96 -1.29,0.717 0.304,1.446 c 0.343,1.624 0.775,3.238 1.281,4.799 l 0.456,1.408 1.48,-0.025 8.15,-0.134 c 1.081,2.398 2.406,4.688 3.955,6.829 l -4.19,6.99 -0.761,1.271 0.992,1.099 c 1.106,1.224 2.286,2.405 3.51,3.511 l 1.1,0.992 1.271,-0.761 6.987,-4.19 c 2.143,1.548 4.434,2.873 6.832,3.954 l -0.135,8.149 -0.024,1.48 1.407,0.457 c 1.575,0.508 3.19,0.941 4.8,1.281 l 1.445,0.307 0.717,-1.292 3.961,-7.128 c 1.336,0.136 2.656,0.205 3.942,0.205 1.286,0 2.606,-0.069 3.944,-0.207 l 3.961,7.13 0.719,1.292 1.447,-0.309 c 1.637,-0.349 3.251,-0.779 4.796,-1.277 l 1.407,-0.457 -0.024,-1.48 -0.135,-8.153 c 2.398,-1.081 4.687,-2.406 6.83,-3.952 l 6.987,4.19 1.269,0.761 1.1,-0.992 c 1.221,-1.102 2.404,-2.285 3.514,-3.511 l 0.993,-1.099 -0.761,-1.271 -4.191,-6.99 c 1.551,-2.147 2.873,-4.436 3.953,-6.829 l 8.151,0.134 1.479,0.025 0.457,-1.408 c 0.502,-1.556 0.935,-3.171 1.28,-4.796 l 0.308,-1.446 -1.292,-0.72 -7.129,-3.96 c 0.134,-1.34 0.205,-2.661 0.205,-3.942 0,-1.282 -0.071,-2.605 -0.205,-3.945 l 7.129,-3.96 1.292,-0.719 -0.308,-1.445 c -0.347,-1.635 -0.778,-3.25 -1.278,-4.798 l -0.457,-1.408 -1.479,0.025 -8.155,0.134 c -1.083,-2.4 -2.407,-4.688 -3.951,-6.83 l 4.191,-6.987 0.761,-1.269 -0.993,-1.1 c -1.106,-1.225 -2.289,-2.408 -3.514,-3.513 l -1.1,-0.993 -1.269,0.761 -6.987,4.19 c -2.141,-1.546 -4.429,-2.869 -6.83,-3.952 l 0.135,-8.153 0.024,-1.48 -1.407,-0.457 c -1.563,-0.504 -3.178,-0.936 -4.8,-1.28 l -1.445,-0.305 z" /></g></g></g><g
       transform="matrix(0.59565914,-0.80323732,0.80323732,0.59565914,-99.724114,301.89455)"
       id="g41916"><g
         id="g41918"><g
           id="g41924"><g
             id="g41926"><path
               id="path41938"
               style="fill:url(#radialGradient41928);stroke:none"
               d="m 60.085,369.909 c 0,-8.841 7.192,-16.034 16.033,-16.034 l 0,0 c 8.842,0 16.037,7.193 16.037,16.034 l 0,0 c 0,8.842 -7.195,16.036 -16.037,16.036 l 0,0 c -8.841,0 -16.033,-7.194 -16.033,-16.036" /></g></g></g></g><g
       transform="matrix(0.59565914,-0.80323732,0.80323732,0.59565914,-99.724114,301.89455)"
       id="g41940"><g
         clip-path="url(#clipPath41944)"
         id="g41942"><g
           transform="translate(301.0723,274.5864)"
           id="g41948"><path
             id="path41950"
             style="fill:#93278f;fill-opacity:1;fill-rule:nonzero;stroke:none"
             d="m 0,0 c -12.291,0 -22.256,9.963 -22.256,22.254 0,12.291 9.965,22.255 22.256,22.255 12.291,0 22.255,-9.964 22.255,-22.255 C 22.255,9.963 12.291,0 0,0 m 31.229,22.255 c 0,1.433 -0.106,2.842 -0.291,4.224 l 6.957,3.865 c -0.28,1.309 -0.623,2.594 -1.029,3.852 l -7.954,-0.132 c -1.079,2.639 -2.511,5.095 -4.233,7.315 l 4.089,6.821 c -0.892,0.989 -1.832,1.931 -2.823,2.823 l -6.82,-4.089 c -2.22,1.722 -4.676,3.152 -7.314,4.232 l 0.13,7.956 C 10.685,59.528 9.398,59.87 8.09,60.148 L 4.225,53.191 C 2.842,53.378 1.434,53.484 0,53.484 c -1.434,0 -2.843,-0.106 -4.225,-0.293 l -3.865,6.958 c -1.308,-0.278 -2.594,-0.622 -3.851,-1.029 l 0.13,-7.954 c -2.638,-1.079 -5.095,-2.51 -7.315,-4.232 l -6.819,4.089 c -0.99,-0.892 -1.931,-1.834 -2.824,-2.823 l 4.09,-6.821 c -1.723,-2.219 -3.153,-4.675 -4.233,-7.315 l -7.955,0.132 c -0.406,-1.257 -0.749,-2.542 -1.028,-3.852 l 6.958,-3.865 c -0.188,-1.382 -0.292,-2.791 -0.292,-4.224 0,-1.434 0.104,-2.843 0.292,-4.225 l -6.958,-3.865 c 0.278,-1.31 0.622,-2.594 1.03,-3.852 l 7.953,0.132 c 1.08,-2.639 2.511,-5.095 4.233,-7.316 l -4.091,-6.82 c 0.893,-0.99 1.834,-1.931 2.823,-2.824 l 6.822,4.091 c 2.219,-1.723 4.676,-3.154 7.314,-4.232 l -0.13,-7.957 c 1.256,-0.407 2.542,-0.749 3.851,-1.027 l 3.865,6.958 c 1.383,-0.187 2.791,-0.292 4.225,-0.292 1.434,0 2.842,0.105 4.225,0.292 L 8.09,-15.64 c 1.308,0.278 2.594,0.62 3.851,1.028 l -0.13,7.956 c 2.636,1.078 5.094,2.509 7.314,4.232 l 6.82,-4.091 c 0.991,0.892 1.931,1.834 2.825,2.824 L 24.679,3.13 c 1.722,2.22 3.151,4.676 4.233,7.315 l 7.955,-0.132 c 0.406,1.257 0.748,2.541 1.028,3.852 l -6.957,3.865 c 0.185,1.382 0.291,2.791 0.291,4.225" /></g><g
           transform="translate(357.4844,184.291)"
           id="g41952"><path
             id="path41954"
             style="fill:#ed1c24;fill-opacity:1;fill-rule:nonzero;stroke:none"
             d="m 0,0 c -4.494,0 -8.137,3.642 -8.137,8.134 0,4.494 3.643,8.136 8.137,8.136 4.492,0 8.134,-3.642 8.134,-8.136 C 8.134,3.642 4.492,0 0,0 m 0,18.344 c -5.639,0 -10.21,-4.572 -10.21,-10.21 0,-5.637 4.571,-10.208 10.21,-10.208 5.637,0 10.208,4.571 10.208,10.208 0,5.638 -4.571,10.21 -10.208,10.21 M 0,-7.689 c -8.741,0 -15.826,7.084 -15.826,15.823 0,8.741 7.085,15.825 15.826,15.825 8.739,0 15.824,-7.084 15.824,-15.825 C 15.824,-0.605 8.739,-7.689 0,-7.689 M 22.205,8.136 c 0,1.019 -0.074,2.019 -0.207,3.003 l 4.946,2.747 c -0.198,0.933 -0.44,1.846 -0.73,2.74 l -5.655,-0.094 c -0.768,1.876 -1.787,3.623 -3.011,5.202 l 2.908,4.85 c -0.635,0.703 -1.304,1.372 -2.008,2.007 L 13.6,25.683 c -1.579,1.225 -3.327,2.242 -5.203,3.009 L 8.49,34.35 C 7.597,34.64 6.682,34.882 5.751,35.08 L 3.004,30.132 C 2.02,30.267 1.02,30.341 0,30.341 c -1.021,0 -2.021,-0.074 -3.004,-0.209 l -2.749,4.948 c -0.931,-0.198 -1.844,-0.442 -2.738,-0.732 l 0.093,-5.656 c -1.877,-0.766 -3.624,-1.784 -5.203,-3.009 l -4.849,2.908 c -0.702,-0.635 -1.371,-1.304 -2.007,-2.007 l 2.908,-4.85 c -1.225,-1.579 -2.242,-3.325 -3.01,-5.202 l -5.657,0.094 c -0.29,-0.894 -0.532,-1.807 -0.73,-2.74 l 4.948,-2.747 c -0.135,-0.984 -0.208,-1.984 -0.208,-3.003 0,-1.021 0.073,-2.022 0.208,-3.005 l -4.948,-2.748 c 0.198,-0.933 0.442,-1.846 0.732,-2.739 l 5.655,0.093 c 0.768,-1.876 1.785,-3.623 3.01,-5.202 l -2.909,-4.849 c 0.636,-0.704 1.305,-1.373 2.008,-2.007 l 4.851,2.908 c 1.577,-1.226 3.324,-2.242 5.201,-3.01 l -0.093,-5.657 c 0.892,-0.29 1.807,-0.532 2.738,-0.731 l 2.749,4.949 c 0.983,-0.135 1.983,-0.208 3.004,-0.208 1.02,0 2.02,0.073 3.004,0.208 l 2.747,-4.949 c 0.931,0.199 1.846,0.441 2.739,0.732 l -0.093,5.656 c 1.875,0.768 3.624,1.784 5.203,3.01 l 4.848,-2.908 c 0.704,0.633 1.373,1.303 2.008,2.007 l -2.908,4.851 c 1.224,1.577 2.241,3.324 3.011,5.2 l 5.655,-0.093 c 0.29,0.893 0.532,1.806 0.73,2.74 l -4.946,2.748 c 0.133,0.982 0.207,1.983 0.207,3.004" /></g></g></g><g
       transform="matrix(0.59565914,-0.80323732,0.80323732,0.59565914,-99.724114,301.89455)"
       id="g41956"><g
         id="g41958"><g
           id="g41964"><g
             id="g41966"><path
               id="path41978"
               style="fill:url(#radialGradient41968);stroke:none"
               d="m 349.348,192.424 c 0,-4.491 3.642,-8.133 8.136,-8.133 l 0,0 c 4.492,0 8.134,3.642 8.134,8.133 l 0,0 c 0,4.495 -3.642,8.137 -8.134,8.137 l 0,0 c -4.494,0 -8.136,-3.642 -8.136,-8.137" /></g></g></g></g></g></svg>