<?xml version="1.0" encoding="UTF-8" standalone="no"?>
<!-- Created with Inkscape (http://www.inkscape.org/) -->

<svg
   xmlns:dc="http://purl.org/dc/elements/1.1/"
   xmlns:cc="http://creativecommons.org/ns#"
   xmlns:rdf="http://www.w3.org/1999/02/22-rdf-syntax-ns#"
   xmlns:svg="http://www.w3.org/2000/svg"
   xmlns="http://www.w3.org/2000/svg"
   xmlns:sodipodi="http://sodipodi.sourceforge.net/DTD/sodipodi-0.dtd"
   xmlns:inkscape="http://www.inkscape.org/namespaces/inkscape"
   width="85.045914"
   height="594.57141"
   viewBox="0 0 85.045914 594.57142"
   id="svg10779"
   version="1.1"
   inkscape:version="0.91 r13725"
   sodipodi:docname="locks.svg">
  <defs
     id="defs10781" />
  <sodipodi:namedview
     id="base"
     pagecolor="#ffffff"
     bordercolor="#666666"
     borderopacity="1.0"
     inkscape:pageopacity="0.0"
     inkscape:pageshadow="2"
     inkscape:zoom="7.9195959"
     inkscape:cx="77.683739"
     inkscape:cy="79.965303"
     inkscape:document-units="px"
     inkscape:current-layer="layer1"
     showgrid="false"
     units="px"
     fit-margin-top="0"
     fit-margin-left="0"
     fit-margin-right="0"
     fit-margin-bottom="0"
     inkscape:window-width="1402"
     inkscape:window-height="881"
     inkscape:window-x="0"
     inkscape:window-y="0"
     inkscape:window-maximized="1" />
  <metadata
     id="metadata10784">
    <rdf:RDF>
      <cc:Work
         rdf:about="">
        <dc:format>image/svg+xml</dc:format>
        <dc:type
           rdf:resource="http://purl.org/dc/dcmitype/StillImage" />
        <dc:title></dc:title>
      </cc:Work>
    </rdf:RDF>
  </metadata>
  <g
     inkscape:label="Layer 1"
     inkscape:groupmode="layer"
     id="layer1"
     transform="translate(-119.88572,-455.64787)">
    <path
       inkscape:connector-curvature="0"
       style="clip-rule:evenodd;fill:#f7931e;fill-opacity:0.90588235;fill-rule:evenodd"
       d="m 194.22214,889.82699 -63.83692,0 c -5.87972,0 -10.4995,-4.61977 -10.4995,-10.4995 l 0,-44.93784 c 0,-5.87971 4.61978,-10.49949 10.4995,-10.49949 l 0.83995,0 0,-12.17941 c 0,-17.21918 13.85934,-31.07851 30.86852,-31.07851 17.00918,0 30.86851,13.85933 30.86851,30.86851 l 0,12.17941 1.25994,0 c 5.87973,0 10.4995,4.61979 10.4995,10.49951 l 0,45.14782 c 0,5.87973 -4.61977,10.4995 -10.4995,10.4995 z m -16.3792,-78.32624 c 0,-8.60958 -7.13966,-15.74924 -15.74925,-15.74924 -8.60958,0 -15.74923,7.13966 -15.74923,15.74924 l 0,12.17941 31.49848,0 0,-12.17941 z m 1.04995,28.34865 c -2.09991,-1.25994 -5.03976,-0.62998 -6.2997,1.46993 l -11.96943,19.52906 -6.92966,-10.49949 c -1.46994,-2.09991 -4.19981,-2.72988 -6.50969,-1.25995 -2.0999,1.46992 -2.72987,4.19979 -1.25994,6.50969 l 11.12946,16.5892 c 0.83997,1.25994 2.30989,2.0999 3.77982,2.0999 1.67991,0 2.93986,-0.83996 3.77982,-2.30989 l 15.74924,-25.82875 c 1.46993,-2.30989 0.83997,-5.03976 -1.46992,-6.2997 z"
       id="path11836" />
    <path
       inkscape:connector-curvature="0"
       style="clip-rule:evenodd;fill:#e8262d;fill-opacity:0.81960784;fill-rule:evenodd"
       d="m 191.91226,1040.1399 13.01937,0 c -0.20999,5.4596 -4.82976,10.0794 -10.49949,10.0794 l -64.04692,0 c -5.66973,0 -10.28951,-4.4098 -10.4995,-10.0794 l 8.60958,0 17.00918,-17.0093 -14.27931,0 -11.33945,11.3395 0,-39.89813 c 0,-5.45973 4.1998,-9.86952 9.44955,-10.49949 l 66.14681,0 c 5.24976,0.62997 9.44955,5.03976 9.44955,10.49949 l 0,32.54843 -13.01937,13.0195 z m -34.85833,-17.0093 -17.00918,17.0093 14.27931,0 17.00919,-17.0093 -14.27932,0 z m 25.82876,0 -17.00918,17.0093 14.27932,0 17.00918,-17.0093 -14.27932,0 z m -4.82977,-46.82774 c 0,-8.6096 -7.13965,-15.74924 -15.74924,-15.74924 -8.60958,0 -15.74925,7.13964 -15.74925,15.74924 l 0,7.76962 -15.32926,0 0,-7.76962 c 0,-17.21919 13.85934,-31.0785 31.07851,-31.0785 17.21918,0 31.0785,13.85931 31.0785,31.0785 l 0,7.76962 -15.32926,0 0,-7.76962 z"
       id="path11846" />
    <path
       inkscape:connector-curvature="0"
       style="clip-rule:evenodd;fill:#2aabe2;fill-opacity:0.9254902;fill-rule:evenodd"
       d="m 194.27,734.32628 -63.88833,0 c -5.70432,0 -10.49595,-4.79164 -10.49595,-10.49594 l 0,-45.17818 c 0,-5.70433 4.79163,-10.49594 10.49595,-10.49594 l 0.22816,0 0,-15.9721 c 0,-17.56929 14.37488,-31.94417 31.94417,-31.94417 8.44241,0 16.42844,2.96625 22.36092,8.44238 6.16066,5.70433 9.58327,13.4622 9.58327,22.13275 0,4.33529 -3.42261,7.75787 -7.75789,7.75787 -4.33528,0 -7.75786,-3.42258 -7.75786,-7.75787 0,-9.58325 -8.21422,-14.60305 -16.20026,-14.60305 -8.89873,0 -16.20026,7.30154 -16.20026,16.20027 l 0,15.97208 47.91627,0 c 5.70431,0 10.49592,4.79163 10.49592,10.49595 l 0,45.17818 c -0.22816,5.47613 -4.79161,10.26777 -10.72411,10.26777 z m -15.51573,-49.74165 c -2.28173,-1.36902 -5.0198,-0.68449 -6.38883,1.59721 l -11.86498,19.62285 -7.07336,-10.49594 c -1.36904,-2.05355 -4.33529,-2.73806 -6.38883,-1.36903 -2.05356,1.36903 -2.73807,4.33528 -1.36903,6.38883 l 11.18044,16.6566 c 0.91271,1.36904 2.28174,2.05356 3.87894,2.05356 1.59722,0 2.96625,-0.91269 3.87894,-2.28173 l 15.74392,-25.7835 c 1.36902,-2.05357 0.68451,-5.01981 -1.59721,-6.38885 z"
       id="path11826" />
    <path
       inkscape:connector-curvature="0"
       style="clip-rule:evenodd;fill:#22b573;fill-opacity:0.99215686;fill-rule:evenodd"
       d="m 194.15316,569.5684 -63.75171,0 c -5.91509,0 -10.51573,-4.60061 -10.51573,-10.51573 l 0,-44.91097 c 0,-5.69603 4.60064,-10.51576 10.51573,-10.51576 l 0.2191,0 0,-15.99269 c 0,-17.74533 14.24006,-31.98538 31.98538,-31.98538 8.54403,0 16.43086,2.84801 22.34595,8.32497 6.13418,5.69602 9.63943,13.58283 9.63943,22.12686 0,4.38156 -3.50525,7.88683 -7.88681,7.88683 -4.38156,0 -7.88681,-3.50527 -7.88681,-7.88683 0,-9.63941 -8.10588,-14.67823 -16.21176,-14.67823 -8.98221,0 -16.21178,7.22958 -16.21178,16.21178 l 0,15.99269 47.97809,0 c 5.69603,0 10.51573,4.60065 10.51573,10.51576 l 0,45.13005 c -0.21908,5.69604 -4.8197,10.29665 -10.73481,10.29665 z m -31.76631,-50.38792 c -5.0388,0 -8.98219,4.16249 -8.98219,8.98219 0,3.50525 1.97168,6.57234 5.03878,8.1059 l -3.50524,17.30717 c 0,0.21906 0,0.43815 0.21908,0.65722 0.21906,0.21907 0.43816,0.21907 0.65722,0.21907 l 13.36376,0 c 0.43816,0 0.87633,-0.43814 0.87633,-0.87629 l 0,-0.21909 -3.94341,-16.64994 c 3.28616,-1.53353 5.25787,-4.60063 5.25787,-8.32495 0,-5.03879 -4.16248,-9.20128 -8.9822,-9.20128 z"
       id="path13609" />
  </g>
</svg>
