<?xml version="1.0" encoding="UTF-8" standalone="no"?>
<svg
   xmlns:dc="http://purl.org/dc/elements/1.1/"
   xmlns:cc="http://creativecommons.org/ns#"
   xmlns:rdf="http://www.w3.org/1999/02/22-rdf-syntax-ns#"
   xmlns:svg="http://www.w3.org/2000/svg"
   xmlns="http://www.w3.org/2000/svg"
   version="1.1"
   id="svg26013"
   viewBox="0 0 194.47324 565.51766"
   height="565.51764"
   width="194.47324">
  <defs
     id="defs26015" />
  <metadata
     id="metadata26018">
    <rdf:RDF>
      <cc:Work
         rdf:about="">
        <dc:format>image/svg+xml</dc:format>
        <dc:type
           rdf:resource="http://purl.org/dc/dcmitype/StillImage" />
        <dc:title></dc:title>
      </cc:Work>
    </rdf:RDF>
  </metadata>
  <g
     transform="translate(-105.90733,-483.48888)"
     id="layer1">
    <path
       id="path24813"
       style="fill:#e31d6c;fill-opacity:1;fill-rule:nonzero;stroke:none"
       d="m 271.67311,704.63049 c -0.11625,0.15625 -0.18875,0.33012 -0.2175,0.50637 -0.0263,0.1875 -0.005,0.37263 0.0538,0.55375 -0.1725,0.0825 -0.32125,0.18988 -0.435,0.33638 -0.11625,0.14262 -0.185,0.31013 -0.22125,0.50637 -0.1975,-0.0254 -0.3775,0 -0.55375,0.0649 -0.1675,0.0689 -0.315,0.17638 -0.44375,0.31988 -0.1575,-0.10988 -0.33125,-0.18263 -0.51125,-0.21 -0.18125,-0.0264 -0.36375,-0.007 -0.5475,0.0616 -0.0812,-0.18025 -0.18625,-0.33162 -0.335,-0.4415 -0.14125,-0.11763 -0.3075,-0.19375 -0.5025,-0.2275 0.0225,-0.19237 0,-0.38137 -0.0675,-0.55125 -0.0688,-0.169 -0.18,-0.315 -0.32375,-0.44488 0.11875,-0.15625 0.18875,-0.32762 0.215,-0.50775 0.0213,-0.18362 0.006,-0.36625 -0.0588,-0.54987 0.17875,-0.0776 0.32875,-0.18988 0.44125,-0.334 0.115,-0.141 0.18625,-0.3125 0.225,-0.50238 0.1925,0.0136 0.3775,-0.005 0.54625,-0.0659 0.16875,-0.0742 0.32,-0.18412 0.44875,-0.32775 0.1575,0.11238 0.3275,0.18363 0.505,0.21 0.185,0.0312 0.37,0.007 0.54875,-0.0537 0.08,0.17875 0.195,0.32238 0.33625,0.4375 0.145,0.11388 0.31125,0.19 0.505,0.22863 -0.0212,0.19375 0,0.37637 0.0663,0.54237 0.0712,0.17538 0.18,0.32275 0.32625,0.44876 z m 15.00625,-12.4385 c 3.3125,-5.08 4.3575,-10.02875 2.25375,-11.70112 -2.1125,-1.67288 -6.6825,0.47362 -10.86875,4.86475 0.33625,-6.05376 -1.22875,-10.86138 -3.89125,-11.25738 -2.66375,-0.395 -5.55625,3.74763 -6.9825,9.64362 -2.74125,-5.40962 -6.49375,-8.78612 -8.99625,-7.79249 -2.50125,0.99124 -2.93375,6.02249 -1.23,11.84762 -5.07875,-3.32025 -10.01125,-4.35737 -11.68875,-2.25 -1.67125,2.11375 0.47,6.68613 4.85375,10.879 -6.05125,-0.3355 -10.8525,1.23725 -11.25,3.89838 -0.39125,2.66412 3.74875,5.55612 9.63875,6.98774 -5.41,2.74126 -8.78375,6.5035 -7.79625,9.00888 0.99125,2.50725 6.02,2.93113 11.84,1.22213 -3.32375,5.084 -4.365,10.02787 -2.25375,11.70512 2.11375,1.67375 6.68125,-0.46875 10.865,-4.86625 -0.33625,6.0625 1.23125,10.86625 3.89125,11.25975 2.6675,0.39262 5.55375,-3.75237 6.98625,-9.65325 2.73875,5.4145 6.49125,8.79338 8.99625,7.80225 2.50125,-0.99375 2.93125,-6.025 1.23,-11.85013 5.07375,3.31488 10.01625,4.36526 11.6875,2.24901 1.6725,-2.11525 -0.47,-6.68513 -4.85875,-10.875 6.06,0.3325 10.8525,-1.23238 11.24875,-3.90388 0.39625,-2.6625 -3.7425,-5.54875 -9.6375,-6.98625 5.4125,-2.74275 8.79,-6.49762 7.8,-9.00637 -0.98875,-2.50738 -6.02125,-2.935 -11.8375,-1.22613 l 0,0" />
    <path
       id="path24815"
       style="fill:#ccbf82;fill-opacity:1;fill-rule:nonzero;stroke:none"
       d="m 270.98561,705.04074 c -0.10125,0.0888 -0.17625,0.1835 -0.215,0.29875 -0.05,0.11862 -0.065,0.23875 -0.0537,0.36625 -0.1275,0.0239 -0.24125,0.0674 -0.34375,0.1465 -0.0925,0.0722 -0.1675,0.17238 -0.2225,0.2925 -0.1225,-0.044 -0.24375,-0.0591 -0.36625,-0.044 -0.1225,0.0127 -0.2325,0.061 -0.3375,0.13375 -0.0838,-0.1 -0.18625,-0.16987 -0.3,-0.21875 -0.11125,-0.0449 -0.2325,-0.0615 -0.36,-0.0513 -0.0263,-0.125 -0.0712,-0.24263 -0.14625,-0.33738 -0.0738,-0.0952 -0.17125,-0.169 -0.28875,-0.22512 0.0387,-0.12113 0.0562,-0.24613 0.0437,-0.36375 -0.02,-0.12113 -0.0662,-0.23638 -0.14125,-0.34125 0.1025,-0.0875 0.17375,-0.18513 0.21875,-0.295 0.05,-0.11225 0.0613,-0.24025 0.055,-0.36375 0.12625,-0.0249 0.24,-0.0713 0.3375,-0.14988 0.0925,-0.0704 0.1675,-0.17237 0.22625,-0.28762 0.1225,0.041 0.245,0.0561 0.37,0.041 0.11125,-0.0146 0.22625,-0.0659 0.33125,-0.13863 0.09,0.0976 0.18625,0.17375 0.29625,0.22013 0.1125,0.0489 0.2425,0.065 0.36875,0.0514 0.0175,0.12837 0.07,0.23875 0.1475,0.33587 0.0712,0.0976 0.17,0.17388 0.28375,0.2305 -0.0375,0.11963 -0.0588,0.24125 -0.0375,0.36325 0.0163,0.12163 0.06,0.23151 0.13375,0.3365 z m 11.6975,-5.64362 c 2.95875,-2.76126 4.43,-5.79388 3.32875,-7.21288 -1.09625,-1.42088 -4.39875,-0.76125 -7.8075,1.414 1.1825,-3.87 0.94125,-7.229 -0.7225,-7.91012 -1.65875,-0.67625 -4.19,1.54012 -6.0575,5.125 -0.91,-3.94138 -2.79625,-6.72113 -4.5725,-6.48001 -1.78125,0.24126 -2.865,3.42775 -2.69125,7.47276 -2.7525,-2.95901 -5.78125,-4.42638 -7.20125,-3.32525 -1.42,1.10162 -0.76375,4.39987 1.405,7.8125 -3.86375,-1.18601 -7.2225,-0.93988 -7.9075,0.72512 -0.67875,1.665 1.5375,4.19475 5.11875,6.05762 -3.94125,0.9135 -6.71875,2.80463 -6.47875,4.58738 0.23875,1.77975 3.42375,2.85888 7.465,2.68263 -2.96375,2.75737 -4.42875,5.78862 -3.33,7.21 1.0975,1.41837 4.395,0.76112 7.8075,-1.41113 -1.185,3.86963 -0.94625,7.22363 0.71875,7.90712 1.6625,0.68126 4.19125,-1.53999 6.06125,-5.12587 0.90875,3.9375 2.7925,6.726 4.5725,6.4785 1.77375,-0.23637 2.865,-3.42488 2.69375,-7.46487 2.75,2.95849 5.77875,4.42387 7.2,3.32475 1.41875,-1.10363 0.76625,-4.40488 -1.4075,-7.8125 3.8675,1.18112 7.22125,0.93012 7.90125,-0.7325 0.68625,-1.65475 -1.53125,-4.1875 -5.11625,-6.05763 3.94,-0.90962 6.72625,-2.79975 6.48375,-4.5795 -0.24375,-1.78275 -3.42875,-2.86387 -7.46375,-2.68512 l 0,0" />
    <path
       id="path24817"
       style="fill:#ccbf82;fill-opacity:1;fill-rule:evenodd;stroke:none"
       d="m 273.02686,696.55674 c 4.58875,1.8775 6.78375,7.1265 4.9,11.71875 -1.88125,4.59038 -7.13,6.79012 -11.715,4.91263 -4.58625,-1.88225 -6.77625,-7.12601 -4.89625,-11.71875 1.88125,-4.59225 7.1275,-6.79251 11.71125,-4.91263" />
    <path
       id="path24819"
       style="fill:#645441;fill-opacity:1;fill-rule:nonzero;stroke:none"
       d="m 278.77936,706.78436 c -1.06,5.059 -6.0175,8.30276 -11.0775,7.2465 -5.05875,-1.06 -8.30125,-6.019 -7.2425,-11.07762 1.05875,-5.06 6.01625,-8.30275 11.0775,-7.24513 5.0575,1.05626 8.30375,6.01763 7.2425,11.07625" />
    <path
       id="path24821"
       style="fill:#f25a2c;fill-opacity:1;fill-rule:nonzero;stroke:none"
       d="m 274.02061,705.79074 c -0.50875,2.42863 -2.89,3.98875 -5.32375,3.48388 -2.4275,-0.51276 -3.9875,-2.89751 -3.48125,-5.32763 0.51,-2.43125 2.8925,-3.98888 5.32625,-3.4815 2.43375,0.51025 3.98875,2.894 3.47875,5.32525" />
    <path
       id="path24853"
       style="fill:#f25a2c;fill-opacity:1;fill-rule:nonzero;stroke:none"
       d="m 246.25867,511.96663 c 0.0968,-0.14112 0.1495,-0.31 0.1675,-0.49512 0.18663,0.005 0.358,-0.0336 0.51225,-0.10738 0.15525,-0.081 0.28763,-0.19237 0.394,-0.34612 0.15625,0.0951 0.32475,0.15125 0.5025,0.16012 0.17088,0.01 0.34325,-0.0264 0.51025,-0.10012 0.0904,0.16112 0.206,0.291 0.3515,0.39112 0.1485,0.0928 0.3145,0.1465 0.49713,0.16888 -0.004,0.17975 0.0322,0.35363 0.11037,0.50988 0.0781,0.15625 0.19288,0.28999 0.34375,0.39737 -0.0967,0.15625 -0.15087,0.32525 -0.16212,0.499 -0.008,0.17237 0.0264,0.34375 0.1015,0.51525 -0.1625,0.0898 -0.29238,0.2045 -0.38713,0.34863 -0.0943,0.146 -0.15237,0.3125 -0.1685,0.49599 -0.1865,-0.002 -0.35787,0.0312 -0.51262,0.11388 -0.15725,0.0761 -0.28713,0.19137 -0.3985,0.34275 -0.15575,-0.0928 -0.32375,-0.15138 -0.49363,-0.15925 -0.17437,-0.0121 -0.34962,0.0215 -0.51462,0.0953 -0.0919,-0.15875 -0.20763,-0.29 -0.35163,-0.38625 -0.14787,-0.0952 -0.3095,-0.15137 -0.4985,-0.16988 0.003,-0.18412 -0.0307,-0.35499 -0.10887,-0.50887 -0.0768,-0.15625 -0.19488,-0.2875 -0.33988,-0.39738 0.0904,-0.15875 0.145,-0.32524 0.15675,-0.5025 0.0113,-0.16887 -0.0259,-0.34274 -0.0986,-0.51024 0.15963,-0.0937 0.2905,-0.2075 0.38713,-0.35501 z m -11.90275,-14.10887 c -5.07175,-2.71475 -9.82175,-3.29488 -11.22612,-1.16112 -1.40913,2.13624 0.99412,6.28125 5.48825,9.87749 -5.75,0.1875 -10.15375,2.0625 -10.30613,4.61375 -0.15037,2.55376 3.999,4.94138 9.68263,5.80913 -4.88375,3.03212 -7.75775,6.86225 -6.61663,9.14987 1.13963,2.28463 5.93263,2.27488 11.28663,0.18363 -2.71538,5.07275 -3.28963,9.8315 -1.15925,11.23475 2.12887,1.40925 6.2715,-0.996 9.86475,-5.49113 0.18362,5.75238 2.05812,10.164 4.60937,10.3125 2.55075,0.15375 4.93363,-3.99862 5.79988,-9.68999 3.03162,4.88774 6.85687,7.76912 9.141,6.62112 2.28575,-1.14213 2.27837,-5.9375 0.18025,-11.29588 5.07325,2.71488 9.82325,3.29338 11.231,1.15963 1.40275,-2.13325 -0.99763,-6.27738 -5.48975,-9.876 5.746,-0.18263 10.15087,-2.0625 10.30412,-4.61125 0.15138,-2.55375 -4.0005,-4.94388 -9.68412,-5.81012 4.88437,-3.03463 7.75837,-6.86613 6.61775,-9.15625 -1.1465,-2.28226 -5.93263,-2.27238 -11.28663,-0.17476 2.71338,-5.07912 3.28813,-9.8365 1.15863,-11.23874 -2.12938,-1.40776 -6.271,0.99112 -9.86425,5.48624 -0.18063,-5.75137 -2.06,-10.15912 -4.60688,-10.30762 -2.55225,-0.15375 -4.9365,4.001 -5.80175,9.69237 -3.03325,-4.89012 -6.86187,-7.771 -9.14062,-6.62349 -2.28613,1.13962 -2.27438,5.9375 -0.18213,11.29587 l 0,0" />
    <path
       id="path24855"
       style="fill:#fafaba;fill-opacity:1;fill-rule:nonzero;stroke:none"
       d="m 246.39542,512.47301 c 0.0507,-0.13525 0.0591,-0.27637 0.0396,-0.41988 0.1425,-0.0376 0.27,-0.0953 0.3745,-0.189 0.10588,-0.0874 0.186,-0.19975 0.23975,-0.33887 0.143,0.0415 0.28463,0.0512 0.42188,0.0264 0.13225,-0.0234 0.26212,-0.0874 0.38037,-0.17725 0.0996,0.10988 0.21625,0.19 0.34175,0.23587 0.13525,0.0439 0.27488,0.059 0.41988,0.039 0.0343,0.14263 0.0952,0.271 0.18312,0.37113 0.0904,0.10987 0.20563,0.189 0.34425,0.24513 -0.0415,0.13862 -0.0541,0.28224 -0.0277,0.42237 0.0277,0.13137 0.0849,0.25875 0.17675,0.375 -0.10987,0.1025 -0.1895,0.21537 -0.234,0.34762 -0.041,0.13138 -0.0566,0.2725 -0.0385,0.42001 -0.145,0.0312 -0.26812,0.0951 -0.37212,0.1825 -0.10688,0.0947 -0.188,0.20762 -0.24563,0.34375 -0.13762,-0.0464 -0.28125,-0.0536 -0.4155,-0.0312 -0.13425,0.0274 -0.26212,0.085 -0.38037,0.17874 -0.1025,-0.10737 -0.21625,-0.189 -0.34563,-0.23 -0.13337,-0.0487 -0.2745,-0.0615 -0.4175,-0.0385 -0.0361,-0.14162 -0.0973,-0.27637 -0.18312,-0.37899 -0.0909,-0.10738 -0.207,-0.1825 -0.34625,-0.23876 0.0445,-0.14012 0.0557,-0.28362 0.0279,-0.42237 -0.022,-0.13762 -0.084,-0.26113 -0.17338,-0.38125 0.1075,-0.10012 0.18513,-0.21538 0.23,-0.34138 z m -11.95162,-8.68262 c -4.4585,-1.14013 -8.26325,-0.67375 -8.94488,1.25249 -0.6835,1.92625 1.97713,4.6875 6.15725,6.6215 -4.42912,1.24713 -7.48975,3.54988 -7.11525,5.56113 0.37113,2.01025 4.05525,3.06875 8.63575,2.65375 -3.21437,3.29637 -4.71487,6.82375 -3.38912,8.38138 1.32862,1.55612 5.04975,0.62737 8.80225,-2.02638 -1.13238,4.46137 -0.665,8.27 1.25875,8.95112 1.92875,0.68513 4.68162,-1.9775 6.60887,-6.15712 1.24863,4.43112 3.54838,7.5 5.56163,7.12587 2.00925,-0.36862 3.06387,-4.05462 2.644,-8.64987 3.29437,3.21725 6.81637,4.72363 8.372,3.399 1.55712,-1.33162 0.62987,-5.0465 -2.02925,-8.81163 4.46187,1.13238 8.26462,0.67388 8.94625,-1.25237 0.68362,-1.93362 -1.9755,-4.69238 -6.15675,-6.6235 4.43262,-1.24275 7.49025,-3.5455 7.12262,-5.56163 -0.375,-2.00725 -4.05762,-3.06874 -8.645,-2.64837 3.21625,-3.29888 4.71525,-6.82425 3.38863,-8.38137 -1.32613,-1.55513 -5.0425,-0.63038 -8.80375,2.0235 1.13775,-4.46251 0.67237,-8.26863 -1.25438,-8.95226 -1.92375,-0.684 -4.67862,1.97763 -6.61037,6.15875 -1.245,-4.43262 -3.54875,-7.49762 -5.558,-7.12887 -2.01075,0.3735 -3.066,4.0625 -2.6485,8.645 -3.2935,-3.21487 -6.82075,-4.71875 -8.36763,-3.39113 -1.55612,1.32375 -0.62937,5.04738 2.02488,8.81101 l 0,0" />
    <path
       id="path24857"
       style="fill:#fafaba;fill-opacity:1;fill-rule:evenodd;stroke:none"
       d="m 245.86467,502.87538 c -5.54837,1.02788 -9.21537,6.36525 -8.19087,11.92625 1.02775,5.54888 6.36475,9.22901 11.91212,8.20263 5.55275,-1.0225 9.22013,-6.36375 8.19288,-11.91887 -1.02588,-5.55626 -6.36188,-9.23101 -11.91413,-8.21001" />
    <path
       id="path24859"
       style="fill:#625840;fill-opacity:1;fill-rule:evenodd;stroke:none"
       d="m 242.14642,514.54526 -15.73337,-0.22463 14.72462,-2.13124 -13.86825,-5.38388 15.376,3.3165 -10.96137,-11.27788 11.93212,8.92625 -6.01512,-13.62987 8.5185,13.2075 0.231,-15.72263 2.13037,14.71625 5.38475,-13.86374 -3.313,15.375 11.2685,-10.95851 -8.9135,11.92625 13.62113,-6.01112 -13.21,8.52337 15.7265,0.22363 -14.71913,2.13137 13.86613,5.38138 -15.37988,-3.3125 10.96238,11.27638 -11.92763,-8.92138 6.01563,13.62887 -8.5255,-13.22025 -0.226,15.73638 -2.128,-14.72362 -5.38325,13.87012 3.31487,-15.38675 -11.28125,10.97025 8.92288,-11.92875 -13.62938,6.00975 13.21925,-8.5225" />
    <path
       id="path24893"
       style="fill:#645441;fill-opacity:1;fill-rule:nonzero;stroke:none"
       d="m 169.93511,610.37253 c 0.63125,-0.82963 1.455,-1.51375 2.39625,-2.11238 0.001,0 0.004,0.002 0.006,0.005 0.009,-0.005 0.015,-0.0136 0.0263,-0.0185 -0.001,-0.002 -0.001,-0.002 -0.006,-0.002 -0.006,0.007 -0.0175,0.01 -0.0263,0.0161 -0.39875,-0.331 -0.7675,-0.67625 -1.105,-1.04488 -0.385,-0.41512 -0.72375,-0.85399 -0.98375,-1.30525 -1.325,-2.3125 -0.53375,-5.28362 1.68625,-6.6025 0.27625,-0.14112 0.5575,-0.27 0.84375,-0.39262 0.2025,-0.0874 0.40625,-0.17375 0.61625,-0.24213 0.3075,-0.10887 0.62375,-0.20262 0.94625,-0.28024 0.0738,-0.0146 0.14625,-0.0323 0.21875,-0.0489 0.15375,-0.0346 0.3025,-0.0712 0.4575,-0.0996 -0.55,-0.98625 -0.9175,-1.9975 -1.05375,-2.99412 -0.35625,-2.62113 1.48375,-5.0435 4.1075,-5.40475 1.03375,-0.18513 2.10625,-0.1025 3.1975,0.1635 -0.0225,-0.25338 -0.0462,-0.50088 -0.0563,-0.75 -0.0125,-0.31 -0.007,-0.6225 0.0125,-0.92962 0.01,-0.18513 0.0325,-0.36626 0.0537,-0.54401 0.04,-0.33 0.09,-0.65712 0.16125,-0.9775 0.71375,-2.54349 3.32375,-4.05462 5.9025,-3.39112 0.9425,0.23737 1.92,0.73737 2.8275,1.34137 0.31875,-1.03275 0.745,-1.9825 1.3575,-2.78612 1.6025,-2.109 4.645,-2.47763 6.7525,-0.8765 0.3375,0.25637 0.64375,0.54638 0.935,0.85888 0.1875,0.19387 0.36,0.40625 0.5325,0.61862 0.10625,0.13625 0.21,0.27 0.31125,0.41263 0.11125,0.15625 0.23625,0.28712 0.34,0.45362 0.47875,-0.55863 0.98875,-1.05275 1.5375,-1.48487 0.27375,-0.21638 0.5525,-0.41901 0.855,-0.59526 2.30875,-1.331 5.2275,-0.57612 6.59625,1.68263 0.15125,0.28513 0.285,0.57862 0.40875,0.87888 0.075,0.17974 0.15,0.36624 0.215,0.55374 0.0937,0.271 0.17625,0.54738 0.24125,0.82963 0.0637,0.2515 0.1125,0.51512 0.16,0.77637 0.98125,-0.54587 1.99,-0.91212 3.0325,-1.00975 2.62625,-0.3565 5.04625,1.4785 5.40375,4.10588 0.135,0.99413 0.0525,2.0625 -0.2125,3.16162 1.11125,-0.11037 2.1875,-0.0902 3.20625,0.16363 2.5425,0.71725 4.1,3.36375 3.4375,5.94775 -0.265,0.99612 -0.76,1.93362 -1.38875,2.8335 1.0975,0.355 2.03125,0.82125 2.84875,1.44137 2.10875,1.6035 2.515,4.58988 0.91125,6.70113 -0.5875,0.771 -1.36625,1.48 -2.30125,2.065 0.58125,0.4985 1.0925,1.03375 1.53375,1.605 0.1975,0.25875 0.385,0.52 0.545,0.79 1.33125,2.31012 0.57625,5.22263 -1.73375,6.55612 -0.89375,0.53613 -1.905,0.90538 -2.995,1.05625 0.51125,1.03263 0.8675,1.95401 1.0175,3.04238 0.355,2.62412 -1.48125,5.0415 -4.1075,5.40287 -1.04875,0.0971 -2.06875,0.0484 -3.1675,-0.21537 0.10875,1.13775 0.025,2.21 -0.25125,3.21787 -0.6275,2.53213 -3.27,4.09225 -5.8525,3.42375 -0.445,-0.11525 -0.875,-0.28412 -1.29625,-0.48387 -0.0575,-0.0288 -0.1125,-0.0488 -0.17,-0.0776 -0.465,-0.23238 -0.91875,-0.51125 -1.36625,-0.82375 -0.35125,1.10113 -0.8225,2.02887 -1.4425,2.84762 -1.6025,2.11138 -4.59375,2.521 -6.705,0.91263 -0.815,-0.61525 -1.51125,-1.39162 -2.15,-2.354 -0.7,0.84762 -1.4675,1.56988 -2.35625,2.09275 -2.3125,1.33112 -5.27875,0.53475 -6.60875,-1.77 -0.17625,-0.3125 -0.33,-0.65137 -0.475,-1.00638 -0.0387,-0.0951 -0.0825,-0.18987 -0.12,-0.29 -0.13,-0.36125 -0.24125,-0.74262 -0.335,-1.13762 -0.005,-0.025 -0.0113,-0.0484 -0.0163,-0.0738 -0.0375,-0.16113 -0.0762,-0.31738 -0.10625,-0.48487 -0.9875,0.54637 -2,0.91749 -2.99375,1.04874 -2.62875,0.36238 -5.045,-1.476 -5.4025,-4.10637 -0.18875,-1.03463 -0.10625,-2.106 0.16375,-3.2075 -1.09,0.15137 -2.1625,0.0689 -3.17,-0.21 -2.58,-0.66363 -4.09,-3.271 -3.425,-5.8525 0.0875,-0.33112 0.2075,-0.65388 0.34125,-0.97613 0.26875,-0.6475 0.60875,-1.27637 1.02,-1.88225 -0.23375,-0.0727 -0.44,-0.18025 -0.66125,-0.26662 -0.0625,-0.021 -0.1225,-0.0459 -0.18375,-0.0674 -0.31875,-0.13238 -0.6325,-0.26863 -0.92625,-0.43025 -0.3675,-0.19238 -0.7225,-0.40475 -1.05,-0.65225 -2.1125,-1.60112 -2.57,-4.63138 -0.9625,-6.74513" />
    <path
       id="path24895"
       style="fill:#abe1cf;fill-opacity:1;fill-rule:nonzero;stroke:none"
       d="m 198.48136,621.2924 c -1.16875,6.79787 -3.705,10.90375 -3.705,10.90375 -1.0325,-3.65225 -0.63,-7.86613 0.24875,-11.621 -3.2325,6.06 -6.88625,9.11862 -6.88625,9.11862 0.15125,-3.81587 1.82125,-7.67625 3.81125,-10.94237 -4.92375,4.70012 -9.33,6.3935 -9.33,6.3935 1.32,-3.57863 4.09875,-6.67963 6.98375,-9.12987 -6.1125,2.82862 -10.81625,2.97512 -10.81625,2.97512 2.36,-2.95112 5.94125,-4.97025 9.43125,-6.34525 -6.6625,0.67137 -11.15875,-0.73975 -11.15875,-0.73975 3.14375,-2.01362 7.165,-2.75387 10.89875,-2.90525 -6.52625,-1.56487 -10.35875,-4.372 -10.35875,-4.372 2.28,-0.57675 4.7325,-0.52012 7.1475,-0.1265 -3.92125,-2.50738 -5.94375,-4.85113 -5.94375,-4.85113 2.5375,-0.0126 5.1025,0.69488 7.5175,1.76463 -3.06,-3.15712 -4.445,-5.7085 -4.445,-5.7085 3.625,0.79113 7.015,3.15725 9.79375,5.74763 -3.64375,-5.82763 -4.505,-10.59138 -4.505,-10.59138 3.18875,1.94875 5.6725,5.28863 7.51375,8.6475 -1.665,-6.69875 -1.01125,-11.51512 -1.01125,-11.51512 2.42125,2.89987 3.7325,6.894 4.445,10.69537 0.49375,-6.91162 2.6025,-11.253 2.6025,-11.253 1.39625,3.53025 1.415,7.76663 0.90375,11.5855 2.62,-6.3755 5.94875,-9.79788 5.94875,-9.79788 0.235,3.82126 -1.045,7.82026 -2.6975,11.28363 4.4275,-5.19475 8.6375,-7.3335 8.6375,-7.3335 -0.9575,3.69875 -3.40625,7.065 -6.04375,9.80525 5.805,-3.45263 10.47,-4.09762 10.47,-4.09762 -2.04875,3.17862 -5.41625,5.57612 -8.76375,7.3125 6.56625,-1.36038 11.18375,-0.45363 11.18375,-0.45363 -2.91625,2.34375 -6.85125,3.496 -10.55625,4.05463 6.64875,0.85887 10.73625,3.2325 10.73625,3.2325 -3.48625,1.28362 -7.5725,1.079 -11.24375,0.36612 6.02875,3.00787 9.17625,6.63287 9.17625,6.63287 -3.705,0.0586 -7.50625,-1.48387 -10.78125,-3.37887 4.7975,4.85638 6.64375,9.3125 6.64375,9.3125 -3.50875,-1.17237 -6.64375,-3.88775 -9.155,-6.74375 3.0325,6.17875 3.42125,11.00888 3.42125,11.00888 -2.97375,-2.26126 -5.095,-5.875 -6.6075,-9.41026 0.98,6.85651 -0.13875,11.57763 -0.13875,11.57763 -2.1125,-3.13525 -3.03,-7.25875 -3.3675,-11.1015" />
    <path
       id="path24897"
       style="fill:#f25a2c;fill-opacity:1;fill-rule:nonzero;stroke:none"
       d="m 198.65761,614.96527 c -0.52375,3.03125 -1.64125,4.84863 -1.64125,4.84863 -0.4625,-1.63138 -0.2825,-3.49612 0.1025,-5.16363 -1.43125,2.69725 -3.055,4.05475 -3.055,4.05475 0.065,-1.69875 0.8125,-3.40874 1.69375,-4.86374 -2.18625,2.08737 -4.1425,2.83787 -4.1425,2.83787 0.585,-1.59038 1.81625,-2.9615 3.1025,-4.05038 -2.71875,1.2525 -4.80375,1.32525 -4.80375,1.32525 1.0425,-1.31637 2.6375,-2.21637 4.19,-2.82275 -2.96,0.29638 -4.96125,-0.32612 -4.96125,-0.32612 1.39375,-0.899 3.1825,-1.22613 4.84,-1.2925 -2.8975,-0.69487 -4.60125,-1.94725 -4.60125,-1.94725 1.015,-0.24512 2.10375,-0.22275 3.17375,-0.0537 -1.7375,-1.11138 -2.63625,-2.15138 -2.63625,-2.15138 1.12375,-0.005 2.26875,0.31 3.34125,0.78363 -1.36375,-1.40625 -1.9775,-2.53363 -1.9775,-2.53363 1.61,0.35113 3.11375,1.40138 4.35,2.54888 -1.615,-2.584 -1.9975,-4.70513 -1.9975,-4.70513 1.40875,0.86475 2.51375,2.3535 3.33,3.84713 -0.73625,-2.9785 -0.44625,-5.11475 -0.44625,-5.11475 1.0725,1.28525 1.65875,3.0625 1.97375,4.74612 0.225,-3.07125 1.15375,-5 1.15375,-5 0.6225,1.57763 0.63125,3.44776 0.4125,5.15388 1.1575,-2.8335 2.635,-4.35987 2.635,-4.35987 0.1025,1.69475 -0.46875,3.476 -1.20375,5.01512 1.9725,-2.30275 3.84375,-3.25787 3.84375,-3.25787 -0.42625,1.64112 -1.515,3.13774 -2.69,4.35649 2.58125,-1.53912 4.65,-1.81887 4.65,-1.81887 -0.91,1.41112 -2.4025,2.47262 -3.88875,3.23875 2.91625,-0.60738 4.965,-0.19475 4.965,-0.19475 -1.3,1.0395 -3.04375,1.55225 -4.68625,1.79487 2.95125,0.38238 4.7675,1.44975 4.7675,1.44975 -1.55,0.5615 -3.3625,0.46875 -4.99375,0.15375 2.6775,1.34275 4.07125,2.94625 4.07125,2.94625 -1.64,0.0201 -3.33125,-0.66112 -4.78125,-1.49362 2.125,2.149 2.95125,4.13137 2.95125,4.13137 -1.565,-0.5225 -2.95625,-1.72662 -4.0725,-2.99662 1.355,2.73788 1.52875,4.89262 1.52875,4.89262 -1.32375,-1.01225 -2.2725,-2.60987 -2.93875,-4.18599 0.43625,3.04587 -0.0625,5.13612 -0.0625,5.13612 -0.94125,-1.38862 -1.34625,-3.22013 -1.49625,-4.92863" />
    <path
       id="path24917"
       style="fill:#ccbf82;fill-opacity:1;fill-rule:nonzero;stroke:none"
       d="m 148.54909,1021.6307 c 8.15625,3.1388 7.73375,4.4938 -0.7525,2.4264 7.395,4.6435 6.73,5.8686 -1.19125,2.1948 6.37125,5.9663 5.49125,7.0312 -1.5775,1.9164 5.1175,7.065 4.05125,7.9473 -1.9125,1.5772 3.6725,7.9175 2.44375,8.5865 -2.1975,1.1915 2.065,8.4862 0.71625,8.9062 -2.42375,0.7524 0.33375,8.7276 -1.12125,8.8788 -2.60625,0.2612 -1.4875,8.6176 -2.9375,8.4664 -2.6075,-0.2612 -3.1375,8.1538 -4.48875,7.7338 -2.425,-0.7524 -4.64125,7.395 -5.8675,6.726 -2.1925,-1.1915 -5.965,6.3701 -7.03125,5.4878 -1.915,-1.5772 -7.0675,5.1148 -7.95,4.0499 -1.5775,-1.9164 -7.92,3.6738 -8.58875,2.4487 -1.19375,-2.1948 -8.485,2.0674 -8.9075,0.7124 -0.755,-2.4264 -8.72625,0.3335 -8.8775,-1.1186 -0.26,-2.6049 -8.6175,-1.4879 -8.46625,-2.94 0.26,-2.605 -8.1525,-3.1401 -7.73,-4.4927 0.755,-2.4254 -7.395,-4.641 -6.72625,-5.8661 1.19375,-2.1947 -6.3725,-5.9639 -5.49,-7.0313 1.5775,-1.9136 -5.11625,-7.0679 -4.05,-7.9512 1.915,-1.5815 -3.675,-7.916 -2.44875,-8.58255 2.1925,-1.1875 -2.06375,-8.4888 -0.7125,-8.91117 2.425,-0.7564 -0.33,-8.72852 1.12,-8.87502 2.6075,-0.2583 1.485,-8.61672 2.94,-8.47022 2.60625,0.2583 3.14,-8.15477 4.48875,-7.7324 2.42375,0.7564 4.64125,-7.39505 5.87,-6.7285 2.1975,1.1875 5.96375,-6.3697 7.03,-5.4864 1.9125,1.5815 7.06875,-5.1177 7.94875,-4.0503 1.5775,1.9136 7.92125,-3.6714 8.58625,-2.4463 1.19125,2.1947 8.48625,-2.0673 8.90875,-0.7147 0.7525,2.4254 8.73,-0.335 8.88,1.1171 0.265,2.605 8.615,1.4863 8.465,2.9384 -0.265,2.6049 z m 7.41625,-2.6049 c 13.38625,-2.3101 13.15,-4.5665 -0.4075,-4.0464 12.66625,-4.875 12.0125,-6.98 -1.16875,-3.7686 11.485,-7.2129 10.44875,-9.1162 -1.8525,-3.4116 9.895,-9.26227 8.525,-10.92239 -2.45125,-2.9711 7.95125,-10.97867 6.29125,-12.34629 -2.9725,-2.4537 5.70375,-12.29885 3.79875,-13.33497 -3.41125,-1.8477 3.21,-13.18114 1.11,-13.83739 -3.7675,-1.16989 0.5175,-13.56101 -1.7375,-13.79638 -4.04625,-0.40726 -2.31,-13.38912 -4.5675,-13.15375 -4.04875,0.40726 -4.875,-12.6675 -6.97625,-12.01125 -3.7675,1.16989 -7.21125,-11.48727 -9.11625,-10.45114 -3.41125,1.8477 -9.265,-9.8926 -10.92375,-8.52497 -2.97,2.4537 -10.98125,-7.95129 -12.35,-6.29117 -2.4525,2.9711 -12.30375,-5.7046 -13.33625,-3.8013 -1.85125,3.4116 -13.18125,-3.2114 -13.83875,-1.1064 -1.17,3.7686 -13.5575,-0.5201 -13.79375,1.7363 -0.40875,4.0464 -13.385,2.3085 -13.14875,4.5649 0.40875,4.0474 -12.66875,4.8725 -12.01125,6.9775 1.17,3.77 -11.485,7.2139 -10.4525,9.1138 1.85125,3.4102 -9.8975,9.2676 -8.52875,10.9223 2.4525,2.9711 -7.95375,10.9786 -6.295,12.3462 2.97,2.4512 -5.705,12.2998 -3.8,13.3374 3.41125,1.8502 -3.20875,13.1835 -1.1075,13.8412 3.7675,1.1723 -0.51875,13.5576 1.73875,13.7916 4.04875,0.4076 2.30875,13.384 4.56375,13.15 4.04625,-0.4076 4.8775,12.6689 6.9775,12.0112 3.7675,-1.1723 7.21,11.4872 9.115,10.4496 3.41125,-1.8502 9.26375,9.895 10.92375,8.5274 2.9725,-2.4512 10.97625,7.9512 12.34625,6.2965 2.45125,-2.9711 12.30125,5.7036 13.3375,3.8037 1.8525,-3.4102 13.18125,3.2075 13.835,1.1025 1.16875,-3.77 13.5575,0.5175 13.79375,-1.7389 0.4075,-4.0474" />
    <path
       id="path24919"
       style="fill:#645441;fill-opacity:1;fill-rule:nonzero;stroke:none"
       d="m 145.32159,1019.0258 c 0,5.2099 -4.22375,9.436 -9.43375,9.436 -5.2125,0 -9.43625,-4.2261 -9.43625,-9.436 0,-5.21 4.22375,-9.4312 9.43625,-9.4312 5.21,0 9.43375,4.2212 9.43375,9.4312" />
    <path
       id="path24929"
       style="fill:#abe1cf;fill-opacity:1;fill-rule:nonzero;stroke:none"
       d="m 164.15004,878.63045 c 0,0 -4.23625,17.77 4.71375,27.36225 0,0 3.655,-16.75975 -4.71375,-27.36225" />
    <path
       id="path24931"
       style="fill:#abe1cf;fill-opacity:1;fill-rule:nonzero;stroke:none"
       d="m 186.86129,884.08157 c 0,0 -12.51375,6.86525 -15.2075,22.61775 0,0 10.97,-4.34137 15.2075,-22.61775" />
    <path
       id="path24933"
       style="fill:#625840;fill-opacity:1;fill-rule:nonzero;stroke:none"
       d="m 174.34754,886.30282 c 0,0 -4.135,3.83888 -2.69375,12.72513 0,0 4.42625,-3.335 2.69375,-12.72513" />
    <path
       id="path24935"
       style="fill:#625840;fill-opacity:1;fill-rule:nonzero;stroke:none"
       d="m 156.83754,889.4327 c 0,0 0.96,8.38375 6.925,11.51125 0,0 0.7725,-5.95613 -6.925,-11.51125" />
    <path
       id="path24937"
       style="fill:#625840;fill-opacity:1;fill-rule:nonzero;stroke:none"
       d="m 178.29504,904.07432 c 0,0 1.15,-4.84625 10.8725,-7.26999 0,0 -4.90875,7.70987 -10.8725,7.26999" />
    <path
       id="path24939"
       style="fill:#625840;fill-opacity:1;fill-rule:nonzero;stroke:none"
       d="m 146.72129,904.08945 c 0,0 8.1925,-1.3315 12.8075,3.622 0,0 -7.33,1.7515 -12.8075,-3.622" />
    <path
       id="path24941"
       style="fill:#625840;fill-opacity:1;fill-rule:nonzero;stroke:none"
       d="m 150.08004,923.15432 c 0,0 3.2175,-6.86275 10.23,-7.26649 0,0 -0.92,5.24749 -10.23,7.26649" />
    <path
       id="path24943"
       style="fill:#625840;fill-opacity:1;fill-rule:nonzero;stroke:none"
       d="m 164.62879,934.1617 c 0,0 -2.4975,-7.97512 2.50375,-13.43012 0,0 1.73125,7.57124 -2.50375,13.43012" />
    <path
       id="path24945"
       style="fill:#625840;fill-opacity:1;fill-rule:nonzero;stroke:none"
       d="m 174.75004,919.0182 c 0,0 0.6575,7.67325 7.10375,11.71087 0,0 0.13,-7.57475 -7.10375,-11.71087" />
    <path
       id="path24947"
       style="fill:#625840;fill-opacity:1;fill-rule:nonzero;stroke:none"
       d="m 179.25504,912.25295 c 0,0 6.83375,-1.84612 12.79625,2.41025 0,0 -5.2875,2.63625 -12.79625,-2.41025" />
    <path
       id="path24949"
       style="fill:#abe1cf;fill-opacity:1;fill-rule:nonzero;stroke:none"
       d="m 173.04504,909.2227 c 0,0 9.57875,-8.581 25.84,-4.646 0,0 -11.83375,8.88775 -25.84,4.646" />
    <path
       id="path24951"
       style="fill:#abe1cf;fill-opacity:1;fill-rule:nonzero;stroke:none"
       d="m 172.62129,911.85795 c 0,0 2.97625,11.80375 21.165,16.0425 0,0 -6.64,-13.314 -21.165,-16.0425" />
    <path
       id="path24953"
       style="fill:#abe1cf;fill-opacity:1;fill-rule:nonzero;stroke:none"
       d="m 174.75004,941.23058 c 0,0 -9.155,-15.044 -4.5375,-27.15876 0,0 6.96125,5.44725 4.5375,27.15875" />
    <path
       id="path24955"
       style="fill:#abe1cf;fill-opacity:1;fill-rule:nonzero;stroke:none"
       d="m 152.11879,935.77795 c 0,0 3.49625,-17.49025 15.36375,-22.17488 0,0 -0.35,12.68613 -15.36375,22.17488" />
    <path
       id="path24957"
       style="fill:#abe1cf;fill-opacity:1;fill-rule:nonzero;stroke:none"
       d="m 139.89879,915.88783 c 0,0 12.8175,-10.12601 25.845,-5.51763 0,0 -6.11875,8.24262 -25.845,5.51763" />
    <path
       id="path24959"
       style="fill:#abe1cf;fill-opacity:1;fill-rule:nonzero;stroke:none"
       d="m 166.40254,907.98295 c 0,0 -1.19625,-9.96875 -21.78625,-16.32762 0,0 7.68125,14.37887 21.78625,16.32762" />
    <path
       id="path24961"
       style="fill:#4eb3d2;fill-opacity:1;fill-rule:nonzero;stroke:none"
       d="m 171.65379,910.14657 c 0,1.20513 -0.93375,2.1875 -2.09,2.1875 -1.15,0 -2.08125,-0.98237 -2.08125,-2.1875 0,-1.20849 0.93125,-2.19 2.08125,-2.19 1.15625,0 2.09,0.98151 2.09,2.19" />
    <path
       id="path25169"
       style="fill:#abe1cf;fill-opacity:1;fill-rule:nonzero;stroke:none"
       d="m 275.48797,898.52893 c 21.18,-3.17875 21.30125,-8.19875 2.58125,-3.48237 18.03125,-6.90138 15.04625,-10.93901 -4.11875,-1.35651 16.30375,-10.09862 16.5175,-14.89349 5.385,-7.38624 10.17625,-10.20751 3.985,-10.3125 -11.42875,7.41749 14.47625,-19.10112 12.75,-25 4.43,-11.96 5.88375,-14.30512 0.0637,-12.32512 -7.24125,10.5 5.6475,-22.80462 1.99625,-27.8125 -0.505,-13.61612 -0.25375,-13.42488 -4.0525,-10.49762 -2.94625,8.645 -3.1775,-21.189 -8.19625,-21.30375 -3.4775,-2.58012 -6.89875,-18.03513 -10.9425,-15.05125 -1.36125,4.11137 -10.09875,-16.30375 -14.89,-16.51125 -7.37875,-5.3765 -10.20713,-10.18212 -10.31838,-3.99125 7.4125,11.42387 -19.09963,-14.47225 -24.99563,-12.74612 -11.957,-4.42624 -14.30563,-5.88626 -12.33063,-0.0689 10.49825,7.24112 -22.80875,-5.64988 -27.81175,-1.9975 -13.615,0.5 -13.42275,0.25637 -10.49513,4.05525 8.64,2.94775 -21.18338,3.18125 -21.29813,8.19725 -2.5725,3.47612 -18.03575,6.90138 -15.05675,10.94288 4.105,1.36763 -16.294,10.09238 -16.50838,14.88237 -5.37625,7.3775 -10.179,10.205 -3.98513,10.31487 11.43,-7.42 -14.48063,19.105 -12.75213,25.0025 -4.42875,11.9615 -5.8875,14.30613 -0.0675,12.331 7.2425,-10.50538 -5.6525,22.814 -2.00375,27.81638 0.49875,13.62013 0.2525,13.42725 4.055,10.5 2.9425,-8.63775 3.18125,21.17875 8.20125,21.29638 3.4825,2.57762 6.90125,18.03038 10.93875,15.04888 1.3625,-4.11125 10.095,16.29638 14.8825,16.50875 7.3775,5.38138 10.20875,10.17375 10.3175,3.97987 -7.4175,-11.43363 19.1025,14.476 25.00125,12.75238 11.96125,4.42863 14.3075,5.88875 12.32875,0.0689 -10.50375,-7.24113 22.8125,5.64988 27.81875,2.00238 13.6225,-0.5 13.4225,-0.25387 10.49375,-4.05525 -8.64375,-2.94387" />
    <path
       id="path25171"
       style="fill:#bd66a9;fill-opacity:1;fill-rule:nonzero;stroke:none"
       d="m 272.30297,899.83268 c 0,5.16013 -4.19,9.35 -9.355,9.35 -5.165,0 -9.355,-4.18987 -9.355,-9.35 0,-5.169 4.19,-9.3565 9.355,-9.3565 5.165,0 9.355,4.1875 9.355,9.3565" />
    <path
       id="path25173"
       style="fill:#fdf6b0;fill-opacity:1;fill-rule:nonzero;stroke:none"
       d="m 269.05672,899.83018 c 0,3.37112 -2.73625,6.1075 -6.10875,6.1075 -3.3725,0 -6.10875,-2.73638 -6.10875,-6.1075 0,-3.375 2.73625,-6.10888 6.10875,-6.10888 3.3725,0 6.10875,2.73388 6.10875,6.10888" />
    <path
       id="path25211"
       style="fill:#bd66a9;fill-opacity:1;fill-rule:nonzero;stroke:none"
       d="m 220.85094,820.97148 c -7.2225,6.01763 -13.76125,3.08888 -14.24,-5.90138 -8.9875,-0.47612 -11.91375,-7.01612 -5.89875,-14.23724 -6.015,-7.22276 -3.08875,-13.76025 5.89875,-14.23638 0.47875,-8.98875 7.0175,-11.919 14.24,-5.89887 7.22125,-6.02013 13.76125,-3.08988 14.23875,5.89887 8.99,0.47613 11.91625,7.01362 5.8975,14.23638 6.01875,7.22112 3.0925,13.76112 -5.8975,14.23724 -0.4775,8.99026 -7.0175,11.91901 -14.23875,5.90138 z m 0,-46.31638 c -9.38875,-7.81987 -17.8875,-4.01612 -18.50875,7.66888 -11.68375,0.62012 -15.49,9.12112 -7.6675,18.50888 -7.8225,9.38862 -4.01625,17.88962 7.6675,18.51212 0.62125,11.68025 9.12,15.48875 18.50875,7.66412 9.39,7.82463 17.88875,4.01613 18.50875,-7.66412 11.68375,-0.6225 15.48875,-9.1235 7.6675,-18.51212 7.82125,-9.38776 4.01625,-17.88876 -7.6675,-18.50888 -0.62,-11.685 -9.11875,-15.48875 -18.50875,-7.66888" />
    <path
       id="path25213"
       style="fill:#ccbf82;fill-opacity:1;fill-rule:nonzero;stroke:none"
       d="m 220.85094,810.99148 c -3.64375,3.03375 -6.94,1.55763 -7.1825,-2.976 -4.53125,-0.24025 -6.00875,-3.54013 -2.97375,-7.18262 -3.035,-3.64013 -1.5575,-6.93901 2.97375,-7.18025 0.2425,-4.53363 3.53875,-6.01126 7.1825,-2.976 3.64125,-3.03526 6.94,-1.55763 7.18,2.976 4.53375,0.24124 6.01,3.54012 2.975,7.18025 3.035,3.64249 1.55875,6.94237 -2.975,7.18262 -0.24,4.53363 -3.53875,6.00975 -7.18,2.976 z m 0,-23.35988 c -4.73625,-3.94525 -9.02375,-2.02387 -9.335,3.86476 -5.8925,0.31499 -7.8125,4.60262 -3.86875,9.3365 -3.94375,4.73624 -2.02375,9.02237 3.86875,9.33487 0.31125,5.89362 4.59875,7.8125 9.335,3.86725 4.73625,3.94525 9.02125,2.02637 9.33375,-3.86725 5.89375,-0.3125 7.81375,-4.59863 3.8675,-9.33487 3.94625,-4.73388 2.02625,-9.02151 -3.8675,-9.3365 -0.3125,-5.88863 -4.5975,-7.81001 -9.33375,-3.86476" />
    <path
       id="path25215"
       style="fill:#abe1cf;fill-opacity:1;fill-rule:nonzero;stroke:none"
       d="m 225.65344,800.83286 c 0,2.65375 -2.15125,4.80124 -4.8025,4.80124 -2.65125,0 -4.8025,-2.14749 -4.8025,-4.80124 0,-2.649 2.15125,-4.80038 4.8025,-4.80038 2.65125,0 4.8025,2.15138 4.8025,4.80038" />
    <path
       id="path25229"
       style="fill:#ccbf82;fill-opacity:1;fill-rule:nonzero;stroke:none"
       d="m 228.15596,1011.4182 c 0.6475,-0.855 1.49375,-1.5562 2.4525,-2.169 0.005,0 0.005,0 0.005,0 0.0125,0 0.0188,-0.013 0.0275,-0.018 0,0 -0.004,0 -0.004,0 -0.006,0.01 -0.0175,0.01 -0.0288,0.016 -0.405,-0.3335 -0.7875,-0.6885 -1.1275,-1.0635 -0.3975,-0.4277 -0.7425,-0.8773 -1.0075,-1.3388 -1.355,-2.3672 -0.5475,-5.4023 1.725,-6.7524 0.2825,-0.14372 0.57,-0.27892 0.86375,-0.39992 0.2075,-0.091 0.41125,-0.1764 0.63,-0.2476 0.31375,-0.1113 0.63625,-0.2075 0.9675,-0.2851 0.0738,-0.025 0.15,-0.034 0.22,-0.051 0.1575,-0.036 0.3125,-0.071 0.4725,-0.105 -0.56375,-1.0088 -0.94125,-2.0387 -1.08125,-3.0587 -0.36125,-2.6865 1.5175,-5.15621 4.2,-5.52734 1.055,-0.19137 2.15625,-0.10487 3.27375,0.16613 -0.025,-0.25888 -0.0475,-0.51613 -0.0575,-0.76762 -0.0113,-0.31988 -0.009,-0.63475 0.0125,-0.95113 0.009,-0.189 0.0337,-0.37112 0.0537,-0.55763 0.0437,-0.33112 0.0937,-0.671 0.1675,-1.0025 0.72875,-2.59612 3.39875,-4.14112 6.0325,-3.46487 0.96875,0.24125 1.9675,0.75738 2.895,1.37263 0.32625,-1.05275 0.76,-2.02638 1.38875,-2.85013 1.63875,-2.15775 4.75125,-2.53375 6.9075,-0.895 0.34125,0.26362 0.6575,0.561 0.9525,0.8735 0.19125,0.20025 0.37125,0.418 0.54375,0.63525 0.11,0.13875 0.2175,0.27975 0.32125,0.42625 0.1125,0.15237 0.24125,0.294 0.35125,0.46 0.48625,-0.57375 1.00625,-1.07525 1.57,-1.51363 0.27875,-0.22512 0.5675,-0.43262 0.87125,-0.61137 2.3675,-1.36625 5.34875,-0.58987 6.75,1.71875 0.1525,0.29637 0.29,0.59375 0.4125,0.896 0.0813,0.189 0.1575,0.37887 0.22375,0.57375 0.0975,0.27637 0.18,0.55662 0.2475,0.84525 0.065,0.25875 0.1175,0.52487 0.16125,0.79387 1.0025,-0.56 2.03625,-0.93262 3.10375,-1.03274 2.68625,-0.36863 5.16,1.51124 5.525,4.20124 0.14125,1.00875 0.0562,2.10888 -0.21125,3.22754 1.1275,-0.1099 2.23,-0.09 3.27375,0.1738 2.60125,0.73 4.195,3.4399 3.51375,6.081 -0.26875,1.01772 -0.77625,1.97752 -1.4175,2.89752 1.12125,0.3613 2.0775,0.8403 2.91125,1.4752 2.15625,1.6401 2.5725,4.6928 0.935,6.8525 -0.6,0.7861 -1.39625,1.5112 -2.35625,2.1176 0.59625,0.5025 1.12,1.0489 1.56875,1.6401 0.2025,0.2559 0.39375,0.5225 0.56,0.8086 1.36125,2.3575 0.59,5.3365 -1.77375,6.6988 -0.915,0.5489 -1.94875,0.9272 -3.06125,1.0786 0.51875,1.06 0.88625,2.0054 1.04,3.1153 0.36375,2.686 -1.51875,5.1562 -4.2025,5.5273 -1.0725,0.096 -2.1175,0.051 -3.24,-0.2163 0.11,1.1587 0.0238,2.2578 -0.25625,3.2876 -0.64125,2.584 -3.34625,4.1875 -5.98625,3.5039 -0.45625,-0.1202 -0.89375,-0.2925 -1.3275,-0.4975 -0.055,-0.03 -0.115,-0.054 -0.1725,-0.082 -0.475,-0.2358 -0.94125,-0.5224 -1.395,-0.8349 -0.36375,1.1215 -0.8425,2.0687 -1.4775,2.9052 -1.63875,2.1612 -4.70125,2.5835 -6.855,0.936 -0.84,-0.6324 -1.55,-1.4262 -2.20125,-2.4096 -0.715,0.8661 -1.50375,1.6108 -2.41125,2.1411 -2.36375,1.3599 -5.39625,0.5434 -6.7575,-1.8125 -0.1825,-0.3189 -0.3375,-0.6665 -0.485,-1.025 -0.0413,-0.1 -0.085,-0.1952 -0.1225,-0.2977 -0.1325,-0.3712 -0.25,-0.7638 -0.345,-1.1651 -0.005,-0.023 -0.0113,-0.054 -0.015,-0.077 -0.04,-0.164 -0.0825,-0.3252 -0.1125,-0.499 -1.00625,0.564 -2.0425,0.9423 -3.06125,1.0825 -2.68625,0.3637 -5.16,-1.5162 -5.52125,-4.2052 -0.19375,-1.061 -0.11,-2.1522 0.1675,-3.2787 -1.1175,0.1514 -2.21625,0.069 -3.24,-0.2149 -2.64375,-0.6836 -4.1875,-3.3461 -3.50875,-5.9887 0.0888,-0.3389 0.2125,-0.6685 0.35125,-0.9962 0.275,-0.6665 0.62375,-1.3051 1.04,-1.9286 -0.2375,-0.073 -0.44375,-0.1802 -0.6725,-0.2627 -0.0663,-0.03 -0.125,-0.054 -0.19125,-0.081 -0.3225,-0.1314 -0.64625,-0.274 -0.94625,-0.4375 -0.37375,-0.1978 -0.7375,-0.4127 -1.07375,-0.6642 -2.15625,-1.6347 -2.63,-4.7333 -0.98625,-6.8935" />
    <path
       id="path25231"
       style="fill:#f25a2c;fill-opacity:1;fill-rule:evenodd;stroke:none"
       d="m 251.80596,988.41183 c -0.47125,0.61525 -0.805,1.40863 -1.0675,2.26663 -0.73,-0.499 -1.5325,-0.90925 -2.30125,-1.09913 -2.08,-0.53475 -4.18625,0.67625 -4.76125,2.72895 -0.1825,0.8448 -0.25375,1.7124 -0.13,2.5835 -0.88625,-0.2148 -1.75,-0.2788 -2.5875,-0.1323 -2.115,0.294 -3.60125,2.2387 -3.31125,4.3637 0.11125,0.7974 0.405,1.61382 0.8525,2.40882 -0.91125,0.1611 -1.72375,0.4624 -2.48875,0.8622 -1.795,1.064 -2.43,3.4567 -1.35875,5.3204 0.395,0.6899 1.00625,1.3501 1.71,1.8863 -0.7875,0.5136 -1.4575,1.0546 -1.9625,1.7147 -1.295,1.7066 -0.925,4.1475 0.77875,5.439 0.665,0.5025 1.42375,0.8784 2.27625,1.1396 -0.49125,0.7354 -0.87375,1.4967 -1.09875,2.3101 -0.5375,2.0825 0.68,4.1827 2.7625,4.7188 0.81375,0.2178 1.67875,0.2915 2.55625,0.1714 -0.2175,0.8837 -0.285,1.75 -0.13375,2.5873 0.28875,2.1128 2.24,3.5963 4.3575,3.3115 0.80375,-0.1127 1.61625,-0.4101 2.41625,-0.8501 0.1575,0.9063 0.45625,1.7188 0.8475,2.4126 1.075,1.8599 3.46125,2.5 5.32625,1.4273 0.72125,-0.4286 1.35375,-1.0024 1.88875,-1.706 0.51375,0.7885 1.085,1.416 1.7475,1.9184 1.70375,1.294 4.11625,0.963 5.4125,-0.7398 0.50125,-0.6611 0.88,-1.4198 1.16625,-2.3163 0.71,0.5376 1.465,0.9223 2.28,1.1426 2.08,0.5351 4.21375,-0.7226 4.71875,-2.7613 0.225,-0.815 0.29125,-1.6826 0.20375,-2.5952 0.88125,0.2154 1.705,0.2466 2.5525,0.1713 2.11375,-0.2885 3.6025,-2.2387 3.30875,-4.3563 -0.115,-0.8809 -0.4025,-1.6212 -0.81875,-2.4537 0.87625,-0.1234 1.69125,-0.4198 2.41375,-0.8486 1.8675,-1.0776 2.47375,-3.4311 1.40125,-5.2915 -0.43625,-0.7222 -1,-1.355 -1.6775,-1.9311 0.75375,-0.4687 1.3825,-1.0401 1.855,-1.6675 1.29625,-1.7013 0.96375,-4.106 -0.7325,-5.4024 -0.66875,-0.5049 -1.42125,-0.8837 -2.31875,-1.1739 0.5325,-0.6986 0.9125,-1.4623 1.14125,-2.2738 0.53125,-2.08252 -0.72375,-4.21882 -2.775,-4.78712 -0.8,-0.1587 -1.6675,-0.2252 -2.58875,-0.1363 0.21875,-0.8886 0.285,-1.749 0.17625,-2.5512 -0.2875,-2.1225 -2.24125,-3.60405 -4.35875,-3.31155 -0.84125,0.0761 -1.6625,0.37163 -2.455,0.81638 -0.1175,-0.875 -0.4175,-1.6875 -0.8175,-2.456 -1.10375,-1.81888 -3.45625,-2.42775 -5.31875,-1.358 -0.7225,0.43512 -1.3525,1.00638 -1.92875,1.67775 -0.47125,-0.7475 -1.04375,-1.38275 -1.70625,-1.88763 -1.7,-1.29587 -4.1575,-0.99612 -5.4525,0.7075" />
    <path
       id="path25233"
       style="fill:none;stroke:#ffffff;stroke-width:0.56252998;stroke-linecap:butt;stroke-linejoin:miter;stroke-miterlimit:10;stroke-dasharray:none;stroke-opacity:1"
       d="m 251.80596,988.41183 c -0.47125,0.61525 -0.805,1.40863 -1.0675,2.26663 -0.73,-0.499 -1.5325,-0.90925 -2.30125,-1.09913 -2.08,-0.53475 -4.18625,0.67625 -4.76125,2.72895 -0.1825,0.8448 -0.25375,1.7124 -0.13,2.5835 -0.88625,-0.2148 -1.75,-0.2788 -2.5875,-0.1323 -2.115,0.294 -3.60125,2.2387 -3.31125,4.3637 0.11125,0.7974 0.405,1.61382 0.8525,2.40882 -0.91125,0.1611 -1.72375,0.4624 -2.48875,0.8622 -1.795,1.064 -2.43,3.4567 -1.35875,5.3204 0.395,0.6899 1.00625,1.3501 1.71,1.8863 -0.7875,0.5136 -1.4575,1.0546 -1.9625,1.7147 -1.295,1.7066 -0.925,4.1475 0.77875,5.439 0.665,0.5025 1.42375,0.8784 2.27625,1.1396 -0.49125,0.7354 -0.87375,1.4967 -1.09875,2.3101 -0.5375,2.0825 0.68,4.1827 2.7625,4.7188 0.81375,0.2178 1.67875,0.2915 2.55625,0.1714 -0.2175,0.8837 -0.285,1.75 -0.13375,2.5873 0.28875,2.1128 2.24,3.5963 4.3575,3.3115 0.80375,-0.1127 1.61625,-0.4101 2.41625,-0.8501 0.1575,0.9063 0.45625,1.7188 0.8475,2.4126 1.075,1.8599 3.46125,2.5 5.32625,1.4273 0.72125,-0.4286 1.35375,-1.0024 1.88875,-1.706 0.51375,0.7885 1.085,1.416 1.7475,1.9184 1.70375,1.294 4.11625,0.963 5.4125,-0.7398 0.50125,-0.6611 0.88,-1.4198 1.16625,-2.3163 0.71,0.5376 1.465,0.9223 2.28,1.1426 2.08,0.5351 4.21375,-0.7226 4.71875,-2.7613 0.225,-0.815 0.29125,-1.6826 0.20375,-2.5952 0.88125,0.2154 1.705,0.2466 2.5525,0.1713 2.11375,-0.2885 3.6025,-2.2387 3.30875,-4.3563 -0.115,-0.8809 -0.4025,-1.6212 -0.81875,-2.4537 0.87625,-0.1234 1.69125,-0.4198 2.41375,-0.8486 1.8675,-1.0776 2.47375,-3.4311 1.40125,-5.2915 -0.43625,-0.7222 -1,-1.355 -1.6775,-1.9311 0.75375,-0.4687 1.3825,-1.0401 1.855,-1.6675 1.29625,-1.7013 0.96375,-4.106 -0.7325,-5.4024 -0.66875,-0.5049 -1.42125,-0.8837 -2.31875,-1.1739 0.5325,-0.6986 0.9125,-1.4623 1.14125,-2.2738 0.53125,-2.08252 -0.72375,-4.21882 -2.775,-4.78712 -0.8,-0.1587 -1.6675,-0.2252 -2.58875,-0.1363 0.21875,-0.8886 0.285,-1.749 0.17625,-2.5512 -0.2875,-2.1225 -2.24125,-3.60405 -4.35875,-3.31155 -0.84125,0.0761 -1.6625,0.37163 -2.455,0.81638 -0.1175,-0.875 -0.4175,-1.6875 -0.8175,-2.456 -1.10375,-1.81888 -3.45625,-2.42775 -5.31875,-1.358 -0.7225,0.43512 -1.3525,1.00638 -1.92875,1.67775 -0.47125,-0.7475 -1.04375,-1.38275 -1.70625,-1.88763 -1.7,-1.29587 -4.1575,-0.99612 -5.4525,0.7075 z" />
    <path
       id="path25235"
       style="fill:#fdf6b0;fill-opacity:1;fill-rule:evenodd;stroke:none"
       d="m 253.31596,994.20078 c -0.35,0.4634 -0.60125,1.045 -0.79125,1.6822 -0.54875,-0.3638 -1.1425,-0.6684 -1.7125,-0.8134 -1.54625,-0.3951 -3.1125,0.5062 -3.54,2.0313 -0.135,0.625 -0.18125,1.2646 -0.0962,1.9223 -0.6575,-0.1636 -1.3025,-0.2149 -1.92125,-0.099 -1.5675,0.2125 -2.67375,1.65882 -2.45875,3.23492 0.08,0.5962 0.3,1.2012 0.63125,1.7925 -0.67625,0.1201 -1.27625,0.3414 -1.85,0.6377 -1.3275,0.791 -1.80625,2.5674 -1.0075,3.955 0.29375,0.5099 0.74375,1.0025 1.27,1.4039 -0.5825,0.3823 -1.0775,0.7813 -1.45875,1.2734 -0.96,1.2676 -0.68375,3.084 0.5775,4.0391 0.49625,0.3799 1.0625,0.6558 1.6925,0.8486 -0.36375,0.5449 -0.65,1.1114 -0.81625,1.7149 -0.4,1.5449 0.50875,3.105 2.05625,3.5073 0.6,0.1616 1.24375,0.2153 1.8975,0.125 -0.1625,0.6587 -0.21,1.3012 -0.10125,1.9238 0.21625,1.5703 1.665,2.6763 3.2375,2.459 0.5975,-0.082 1.2025,-0.3027 1.795,-0.6298 0.12125,0.6732 0.34,1.2758 0.6325,1.7885 0.795,1.3877 2.57625,1.8614 3.95875,1.0673 0.5375,-0.3222 1.0025,-0.75 1.40125,-1.2699 0.385,0.5816 0.805,1.0473 1.2975,1.4238 1.27,0.96 3.055,0.7173 4.02125,-0.5488 0.3725,-0.4888 0.65625,-1.0577 0.8675,-1.7188 0.52875,0.3975 1.0875,0.6803 1.69125,0.8462 1.54625,0.3989 3.1325,-0.5386 3.50625,-2.0498 0.16375,-0.6089 0.2175,-1.25 0.15125,-1.9311 0.6575,0.1562 1.26625,0.1821 1.89625,0.1259 1.575,-0.2148 2.68,-1.665 2.46125,-3.2348 -0.0888,-0.6514 -0.3025,-1.2027 -0.6075,-1.8261 0.65125,-0.085 1.2575,-0.3102 1.79125,-0.6291 1.38625,-0.7987 1.83875,-2.5448 1.0425,-3.9311 -0.325,-0.5351 -0.745,-1.0039 -1.24625,-1.435 0.56,-0.3501 1.02375,-0.7725 1.38,-1.2364 0.9625,-1.2612 0.715,-3.0537 -0.54875,-4.0161 -0.4925,-0.3725 -1.05375,-0.6562 -1.7225,-0.8686 0.39875,-0.5225 0.6825,-1.0914 0.84875,-1.689 0.39875,-1.5513 -0.53875,-3.1371 -2.06125,-3.5625 -0.59875,-0.1123 -1.24,-0.1611 -1.92,-0.095 0.16125,-0.66402 0.2075,-1.30122 0.12375,-1.90042 -0.21125,-1.5746 -1.65875,-2.6698 -3.2325,-2.456 -0.6275,0.054 -1.23625,0.271 -1.8275,0.604 -0.09,-0.6528 -0.30625,-1.253 -0.60625,-1.8266 -0.81875,-1.3496 -2.5675,-1.8037 -3.9525,-1.0064 -0.53375,0.3228 -1.00375,0.7505 -1.43125,1.2452 -0.35,-0.5587 -0.7775,-1.0249 -1.26625,-1.4039 -1.2675,-0.9609 -3.09,-0.7398 -4.0525,0.5254" />
    <path
       id="path25237"
       style="fill:#bd66a9;fill-opacity:1;fill-rule:nonzero;stroke:none"
       d="m 258.93596,1012.0256 c 0,0 1.28,1.0761 2.9625,2.1265 0.94,0.581 1.99375,1.1939 3.04125,1.5336 1.69625,0.5464 3.36875,0.7228 4.12375,-0.5087 0,0 0.27625,-0.5562 0.0288,-1.1588 -0.10625,-0.2636 -0.29,-0.745 -1.0025,-1.1898 -0.99875,-0.625 -2.4775,-1.1866 -5.6475,-1.1466 -1.0075,0.014 -2.16875,0.1387 -3.50625,0.3438" />
    <path
       id="path25239"
       style="fill:#bd66a9;fill-opacity:1;fill-rule:nonzero;stroke:none"
       d="m 256.53096,1012.6844 c 0,0 -0.97875,1.3548 -2.35875,2.7763 -0.77125,0.7939 -1.64625,1.6386 -2.58125,2.2212 -1.5125,0.94 -3.09375,1.5189 -4.1225,0.5063 0,0 -0.40375,-0.4761 -0.31,-1.1211 0.0412,-0.2803 0.105,-0.7915 0.6875,-1.394 0.815,-0.8447 2.115,-1.7486 5.20375,-2.4785 0.98125,-0.229 2.135,-0.3877 3.48125,-0.5102" />
    <path
       id="path25241"
       style="fill:#bd66a9;fill-opacity:1;fill-rule:nonzero;stroke:none"
       d="m 257.30721,1013.0705 c 0,0 -1.0475,1.3037 -2.05125,3.0102 -0.5625,0.9528 -1.14375,2.0186 -1.455,3.0763 -0.50875,1.7085 -0.6475,3.3862 0.60375,4.1112 0,0 0.5625,0.2613 1.16125,0 0.26,-0.1127 0.735,-0.3075 1.16375,-1.0302 0.5975,-1.0137 1.12625,-2.5073 1.01125,-5.6733 -0.0387,-1.0089 -0.19625,-2.1641 -0.43375,-3.4942" />
    <path
       id="path25243"
       style="fill:#bd66a9;fill-opacity:1;fill-rule:nonzero;stroke:none"
       d="m 258.34221,1012.9118 c 0,0 0.0913,1.6699 0.4825,3.6138 0.21875,1.0815 0.4975,2.2676 0.96875,3.2636 0.765,1.609 1.77875,2.9464 3.195,2.6514 0,0 0.5925,-0.1762 0.865,-0.771 0.115,-0.2587 0.34,-0.7201 0.175,-1.5464 -0.2275,-1.1489 -0.8325,-2.6137 -3.03375,-4.8973 -0.69875,-0.7277 -1.58875,-1.4839 -2.6525,-2.3141" />
    <path
       id="path25245"
       style="fill:#bd66a9;fill-opacity:1;fill-rule:nonzero;stroke:none"
       d="m 258.96221,1011.0857 c 0,0 0.89625,-1.4087 2.18875,-2.9151 0.72125,-0.8349 1.54375,-1.7339 2.445,-2.3711 1.4525,-1.0303 2.99375,-1.7035 4.08375,-0.749 0,0 0.4275,0.4464 0.37625,1.0967 -0.025,0.2798 -0.0575,0.7959 -0.605,1.4345 -0.7625,0.8917 -2.005,1.8726 -5.04625,2.7866 -0.965,0.2902 -2.1075,0.5177 -3.4425,0.7174" />
    <path
       id="path25247"
       style="fill:#bd66a9;fill-opacity:1;fill-rule:nonzero;stroke:none"
       d="m 256.48846,1011.6521 c 0,0 -1.30875,-1.0401 -3.0225,-2.0366 -0.95875,-0.5561 -2.025,-1.1299 -3.085,-1.437 -1.71375,-0.4967 -3.39125,-0.6227 -4.10875,0.6322 0,0 -0.25875,0.5612 0.009,1.1563 0.1125,0.2612 0.3125,0.7373 1.0375,1.1602 1.0175,0.5908 2.51125,1.1108 5.6825,0.9737 1.0075,-0.044 2.16,-0.2077 3.4875,-0.4488" />
    <path
       id="path25249"
       style="fill:#bd66a9;fill-opacity:1;fill-rule:nonzero;stroke:none"
       d="m 257.10096,1010.7556 c 0,0 -1.4,-0.9126 -2.885,-2.2236 -0.83,-0.7275 -1.71625,-1.5625 -2.34125,-2.4713 -1.01375,-1.4639 -1.6675,-3.0175 -0.70125,-4.0937 0,0 0.44875,-0.4224 1.1,-0.3613 0.28125,0.026 0.79875,0.064 1.42625,0.6202 0.88375,0.7733 1.8475,2.0263 2.72625,5.0786 0.2775,0.9662 0.49,2.1137 0.675,3.4511" />
    <path
       id="path25251"
       style="fill:#bd66a9;fill-opacity:1;fill-rule:nonzero;stroke:none"
       d="m 258.19596,1010.5481 c 0,0 -0.4525,-1.6084 -0.71125,-3.5738 -0.14375,-1.0937 -0.2625,-2.3047 -0.1375,-3.4013 0.20125,-1.77 0.7275,-3.3663 2.1625,-3.5449 0,0 0.62125,-0.021 1.06875,0.4526 0.19375,0.205 0.55625,0.5738 0.6675,1.4038 0.15625,1.1636 0.0575,2.7461 -1.28875,5.6201 -0.42625,0.9121 -1.0225,1.9136 -1.76125,3.0435" />
  </g>
</svg>
