<?xml version="1.0" encoding="UTF-8" standalone="no"?>
<!DOCTYPE svg PUBLIC "-//W3C//DTD SVG 1.1//EN"
 "http://www.w3.org/Graphics/SVG/1.1/DTD/svg11.dtd">
<!-- Generated by graphviz version 2.26.3 (20100126.1600)
 -->
<!-- Title: controllers_diagram Pages: 1 -->
<svg width="1459pt" height="1399pt"
 viewBox="0.00 0.00 1459.00 1399.00" xmlns="http://www.w3.org/2000/svg" xmlns:xlink="http://www.w3.org/1999/xlink">
<g id="graph1" class="graph" transform="scale(1 1) rotate(0) translate(4 1395)">
<title>controllers_diagram</title>
<polygon fill="white" stroke="white" points="-4,5 -4,-1395 1456,-1395 1456,5 -4,5"/>
<!-- _diagram_info -->
<g id="node1" class="node"><title>_diagram_info</title>
<text text-anchor="start" x="9" y="-1374.3" font-family="Times Roman,serif" font-size="13.00">Controllers diagram</text>
<text text-anchor="start" x="9" y="-1357.3" font-family="Times Roman,serif" font-size="13.00">Date: Apr 27 2015 &#45; 14:25</text>
<text text-anchor="start" x="9" y="-1340.3" font-family="Times Roman,serif" font-size="13.00">Migration version: 20150325111311</text>
<text text-anchor="start" x="9" y="-1323.3" font-family="Times Roman,serif" font-size="13.00">Generated by RailRoady 1.3.0</text>
<text text-anchor="start" x="9" y="-1306.3" font-family="Times Roman,serif" font-size="13.00">http://railroady.prestonlee.com</text>
</g>
<!-- UsersController -->
<g id="node2" class="node"><title>UsersController</title>
<polyline fill="none" stroke="black" points="46.7699,-560.715 125.77,-560.715 "/>
<path fill="none" stroke="black" d="M125.77,-560.715C131.77,-560.715 137.77,-566.715 137.77,-572.715"/>
<polyline fill="none" stroke="black" points="137.77,-572.715 137.77,-729.715 "/>
<path fill="none" stroke="black" d="M137.77,-729.715C137.77,-735.715 131.77,-741.715 125.77,-741.715"/>
<polyline fill="none" stroke="black" points="125.77,-741.715 46.7699,-741.715 "/>
<path fill="none" stroke="black" d="M46.7699,-741.715C40.7699,-741.715 34.7699,-735.715 34.7699,-729.715"/>
<polyline fill="none" stroke="black" points="34.7699,-729.715 34.7699,-572.715 "/>
<path fill="none" stroke="black" d="M34.7699,-572.715C34.7699,-566.715 40.7699,-560.715 46.7699,-560.715"/>
<text text-anchor="middle" x="86.2699" y="-725.115" font-family="Times Roman,serif" font-size="14.00">UsersController</text>
<polyline fill="none" stroke="black" points="34.7699,-714.715 137.77,-714.715 "/>
<text text-anchor="start" x="42.7699" y="-698.115" font-family="Times Roman,serif" font-size="14.00">add_key</text>
<text text-anchor="start" x="42.7699" y="-679.115" font-family="Times Roman,serif" font-size="14.00">index</text>
<text text-anchor="start" x="42.7699" y="-660.115" font-family="Times Roman,serif" font-size="14.00">show</text>
<text text-anchor="start" x="42.7699" y="-641.115" font-family="Times Roman,serif" font-size="14.00">update</text>
<polyline fill="none" stroke="black" points="34.7699,-630.715 137.77,-630.715 "/>
<polyline fill="none" stroke="black" points="34.7699,-606.715 137.77,-606.715 "/>
<text text-anchor="start" x="42.7699" y="-590.115" font-family="Times Roman,serif" font-size="14.00">_layout</text>
<text text-anchor="start" x="42.7699" y="-571.115" font-family="Times Roman,serif" font-size="14.00">set_user</text>
</g>
<!-- ApplicationController -->
<g id="node3" class="node"><title>ApplicationController</title>
<polyline fill="none" stroke="black" points="395.991,-618.212 507.991,-618.212 "/>
<path fill="none" stroke="black" d="M507.991,-618.212C513.991,-618.212 519.991,-624.212 519.991,-630.212"/>
<polyline fill="none" stroke="black" points="519.991,-630.212 519.991,-746.212 "/>
<path fill="none" stroke="black" d="M519.991,-746.212C519.991,-752.212 513.991,-758.212 507.991,-758.212"/>
<polyline fill="none" stroke="black" points="507.991,-758.212 395.991,-758.212 "/>
<path fill="none" stroke="black" d="M395.991,-758.212C389.991,-758.212 383.991,-752.212 383.991,-746.212"/>
<polyline fill="none" stroke="black" points="383.991,-746.212 383.991,-630.212 "/>
<path fill="none" stroke="black" d="M383.991,-630.212C383.991,-624.212 389.991,-618.212 395.991,-618.212"/>
<text text-anchor="middle" x="451.991" y="-741.612" font-family="Times Roman,serif" font-size="14.00">ApplicationController</text>
<polyline fill="none" stroke="black" points="383.991,-731.212 519.991,-731.212 "/>
<polyline fill="none" stroke="black" points="383.991,-707.212 519.991,-707.212 "/>
<polyline fill="none" stroke="black" points="383.991,-683.212 519.991,-683.212 "/>
<text text-anchor="start" x="391.991" y="-666.612" font-family="Times Roman,serif" font-size="14.00">_layout</text>
<text text-anchor="start" x="391.991" y="-647.612" font-family="Times Roman,serif" font-size="14.00">access_denied</text>
<text text-anchor="start" x="391.991" y="-628.612" font-family="Times Roman,serif" font-size="14.00">committee_required!</text>
</g>
<!-- ApplicationController&#45;&gt;UsersController -->
<g id="edge2" class="edge"><title>ApplicationController&#45;&gt;UsersController</title>
<path fill="none" stroke="black" d="M383.631,-681.297C312.304,-674.081 202.086,-662.931 137.775,-656.425"/>
</g>
<!-- MessagesController -->
<g id="node4" class="node"><title>MessagesController</title>
<polyline fill="none" stroke="black" points="45.5689,-26.2466 146.569,-26.2466 "/>
<path fill="none" stroke="black" d="M146.569,-26.2466C152.569,-26.2466 158.569,-32.2466 158.569,-38.2466"/>
<polyline fill="none" stroke="black" points="158.569,-38.2466 158.569,-290.247 "/>
<path fill="none" stroke="black" d="M158.569,-290.247C158.569,-296.247 152.569,-302.247 146.569,-302.247"/>
<polyline fill="none" stroke="black" points="146.569,-302.247 45.5689,-302.247 "/>
<path fill="none" stroke="black" d="M45.5689,-302.247C39.5689,-302.247 33.5689,-296.247 33.5689,-290.247"/>
<polyline fill="none" stroke="black" points="33.5689,-290.247 33.5689,-38.2466 "/>
<path fill="none" stroke="black" d="M33.5689,-38.2466C33.5689,-32.2466 39.5689,-26.2466 45.5689,-26.2466"/>
<text text-anchor="middle" x="96.0689" y="-285.647" font-family="Times Roman,serif" font-size="14.00">MessagesController</text>
<polyline fill="none" stroke="black" points="33.5689,-275.247 158.569,-275.247 "/>
<text text-anchor="start" x="41.5689" y="-258.647" font-family="Times Roman,serif" font-size="14.00">attachment</text>
<text text-anchor="start" x="41.5689" y="-239.647" font-family="Times Roman,serif" font-size="14.00">body</text>
<text text-anchor="start" x="41.5689" y="-220.647" font-family="Times Roman,serif" font-size="14.00">create</text>
<text text-anchor="start" x="41.5689" y="-201.647" font-family="Times Roman,serif" font-size="14.00">detail</text>
<text text-anchor="start" x="41.5689" y="-182.647" font-family="Times Roman,serif" font-size="14.00">index</text>
<text text-anchor="start" x="41.5689" y="-163.647" font-family="Times Roman,serif" font-size="14.00">new</text>
<text text-anchor="start" x="41.5689" y="-144.647" font-family="Times Roman,serif" font-size="14.00">show</text>
<text text-anchor="start" x="41.5689" y="-125.647" font-family="Times Roman,serif" font-size="14.00">update</text>
<polyline fill="none" stroke="black" points="33.5689,-115.247 158.569,-115.247 "/>
<polyline fill="none" stroke="black" points="33.5689,-91.2466 158.569,-91.2466 "/>
<text text-anchor="start" x="41.5689" y="-74.6466" font-family="Times Roman,serif" font-size="14.00">_layout</text>
<text text-anchor="start" x="41.5689" y="-55.6466" font-family="Times Roman,serif" font-size="14.00">message_params</text>
<text text-anchor="start" x="41.5689" y="-36.6466" font-family="Times Roman,serif" font-size="14.00">set_prerequisite</text>
</g>
<!-- ApplicationController&#45;&gt;MessagesController -->
<g id="edge4" class="edge"><title>ApplicationController&#45;&gt;MessagesController</title>
<path fill="none" stroke="black" d="M404.359,-618.092C340.997,-524.813 228.839,-359.703 158.689,-256.433"/>
</g>
<!-- DeviseController -->
<g id="node11" class="node"><title>DeviseController</title>
<polyline fill="none" stroke="black" points="697.355,-464.563 837.355,-464.563 "/>
<path fill="none" stroke="black" d="M837.355,-464.563C843.355,-464.563 849.355,-470.563 849.355,-476.563"/>
<polyline fill="none" stroke="black" points="849.355,-476.563 849.355,-883.563 "/>
<path fill="none" stroke="black" d="M849.355,-883.563C849.355,-889.563 843.355,-895.563 837.355,-895.563"/>
<polyline fill="none" stroke="black" points="837.355,-895.563 697.355,-895.563 "/>
<path fill="none" stroke="black" d="M697.355,-895.563C691.355,-895.563 685.355,-889.563 685.355,-883.563"/>
<polyline fill="none" stroke="black" points="685.355,-883.563 685.355,-476.563 "/>
<path fill="none" stroke="black" d="M685.355,-476.563C685.355,-470.563 691.355,-464.563 697.355,-464.563"/>
<text text-anchor="middle" x="767.355" y="-878.963" font-family="Times Roman,serif" font-size="14.00">DeviseController</text>
<polyline fill="none" stroke="black" points="685.355,-868.563 849.355,-868.563 "/>
<text text-anchor="start" x="693.355" y="-851.963" font-family="Times Roman,serif" font-size="14.00">_prefixes</text>
<text text-anchor="start" x="693.355" y="-832.963" font-family="Times Roman,serif" font-size="14.00">devise_mapping</text>
<text text-anchor="start" x="693.355" y="-813.963" font-family="Times Roman,serif" font-size="14.00">resource</text>
<text text-anchor="start" x="693.355" y="-794.963" font-family="Times Roman,serif" font-size="14.00">resource_class</text>
<text text-anchor="start" x="693.355" y="-775.963" font-family="Times Roman,serif" font-size="14.00">resource_name</text>
<text text-anchor="start" x="693.355" y="-756.963" font-family="Times Roman,serif" font-size="14.00">scope_name</text>
<text text-anchor="start" x="693.355" y="-737.963" font-family="Times Roman,serif" font-size="14.00">signed_in_resource</text>
<polyline fill="none" stroke="black" points="685.355,-727.563 849.355,-727.563 "/>
<text text-anchor="start" x="693.355" y="-710.963" font-family="Times Roman,serif" font-size="14.00">assert_is_devise_resource!</text>
<text text-anchor="start" x="693.355" y="-691.963" font-family="Times Roman,serif" font-size="14.00">clean_up_passwords</text>
<text text-anchor="start" x="693.355" y="-672.963" font-family="Times Roman,serif" font-size="14.00">devise_i18n_options</text>
<text text-anchor="start" x="693.355" y="-653.963" font-family="Times Roman,serif" font-size="14.00">find_message</text>
<text text-anchor="start" x="693.355" y="-634.963" font-family="Times Roman,serif" font-size="14.00">navigational_formats</text>
<text text-anchor="start" x="693.355" y="-615.963" font-family="Times Roman,serif" font-size="14.00">require_no_authentication</text>
<text text-anchor="start" x="693.355" y="-596.963" font-family="Times Roman,serif" font-size="14.00">resource=</text>
<text text-anchor="start" x="693.355" y="-577.963" font-family="Times Roman,serif" font-size="14.00">resource_params</text>
<text text-anchor="start" x="693.355" y="-558.963" font-family="Times Roman,serif" font-size="14.00">respond_with_navigational</text>
<text text-anchor="start" x="693.355" y="-539.963" font-family="Times Roman,serif" font-size="14.00">set_flash_message</text>
<text text-anchor="start" x="693.355" y="-520.963" font-family="Times Roman,serif" font-size="14.00">successfully_sent?</text>
<text text-anchor="start" x="693.355" y="-501.963" font-family="Times Roman,serif" font-size="14.00">unknown_action!</text>
<polyline fill="none" stroke="black" points="685.355,-491.563 849.355,-491.563 "/>
<text text-anchor="start" x="693.355" y="-474.963" font-family="Times Roman,serif" font-size="14.00">_layout</text>
</g>
<!-- ApplicationController&#45;&gt;DeviseController -->
<g id="edge18" class="edge"><title>ApplicationController&#45;&gt;DeviseController</title>
<path fill="none" stroke="black" d="M520.032,-686.454C568.469,-685.202 633.803,-683.514 685.158,-682.187"/>
</g>
<!-- HighVoltage::PagesController -->
<g id="node14" class="node"><title>HighVoltage::PagesController</title>
<polyline fill="none" stroke="black" points="13,-1099.25 170,-1099.25 "/>
<path fill="none" stroke="black" d="M170,-1099.25C176,-1099.25 182,-1105.25 182,-1111.25"/>
<polyline fill="none" stroke="black" points="182,-1111.25 182,-1192.25 "/>
<path fill="none" stroke="black" d="M182,-1192.25C182,-1198.25 176,-1204.25 170,-1204.25"/>
<polyline fill="none" stroke="black" points="170,-1204.25 13,-1204.25 "/>
<path fill="none" stroke="black" d="M13,-1204.25C7,-1204.25 1,-1198.25 1,-1192.25"/>
<polyline fill="none" stroke="black" points="1,-1192.25 1,-1111.25 "/>
<path fill="none" stroke="black" d="M1,-1111.25C1,-1105.25 7,-1099.25 13,-1099.25"/>
<text text-anchor="middle" x="91.5" y="-1187.65" font-family="Times Roman,serif" font-size="14.00">HighVoltage::PagesController</text>
<polyline fill="none" stroke="black" points="1,-1177.25 182,-1177.25 "/>
<polyline fill="none" stroke="black" points="1,-1153.25 182,-1153.25 "/>
<text text-anchor="start" x="9" y="-1136.65" font-family="Times Roman,serif" font-size="14.00">_layout_from_proc</text>
<polyline fill="none" stroke="black" points="1,-1126.25 182,-1126.25 "/>
<text text-anchor="start" x="9" y="-1109.65" font-family="Times Roman,serif" font-size="14.00">_layout</text>
</g>
<!-- ApplicationController&#45;&gt;HighVoltage::PagesController -->
<g id="edge22" class="edge"><title>ApplicationController&#45;&gt;HighVoltage::PagesController</title>
<path fill="none" stroke="black" d="M397.436,-758.362C324.708,-851.88 197.614,-1015.3 132.503,-1099.03"/>
</g>
<!-- Devise::ConfirmationsController -->
<g id="node5" class="node"><title>Devise::ConfirmationsController</title>
<polyline fill="none" stroke="black" points="649.792,-1085.99 925.792,-1085.99 "/>
<path fill="none" stroke="black" d="M925.792,-1085.99C931.792,-1085.99 937.792,-1091.99 937.792,-1097.99"/>
<polyline fill="none" stroke="black" points="937.792,-1097.99 937.792,-1238.99 "/>
<path fill="none" stroke="black" d="M937.792,-1238.99C937.792,-1244.99 931.792,-1250.99 925.792,-1250.99"/>
<polyline fill="none" stroke="black" points="925.792,-1250.99 649.792,-1250.99 "/>
<path fill="none" stroke="black" d="M649.792,-1250.99C643.792,-1250.99 637.792,-1244.99 637.792,-1238.99"/>
<polyline fill="none" stroke="black" points="637.792,-1238.99 637.792,-1097.99 "/>
<path fill="none" stroke="black" d="M637.792,-1097.99C637.792,-1091.99 643.792,-1085.99 649.792,-1085.99"/>
<text text-anchor="middle" x="787.792" y="-1234.39" font-family="Times Roman,serif" font-size="14.00">Devise::ConfirmationsController</text>
<polyline fill="none" stroke="black" points="637.792,-1223.99 937.792,-1223.99 "/>
<text text-anchor="start" x="645.792" y="-1207.39" font-family="Times Roman,serif" font-size="14.00">create</text>
<text text-anchor="start" x="645.792" y="-1188.39" font-family="Times Roman,serif" font-size="14.00">new</text>
<text text-anchor="start" x="645.792" y="-1169.39" font-family="Times Roman,serif" font-size="14.00">show</text>
<polyline fill="none" stroke="black" points="637.792,-1158.99 937.792,-1158.99 "/>
<text text-anchor="start" x="645.792" y="-1142.39" font-family="Times Roman,serif" font-size="14.00">after_confirmation_path_for</text>
<text text-anchor="start" x="645.792" y="-1123.39" font-family="Times Roman,serif" font-size="14.00">after_resending_confirmation_instructions_path_for</text>
<polyline fill="none" stroke="black" points="637.792,-1112.99 937.792,-1112.99 "/>
<text text-anchor="start" x="645.792" y="-1096.39" font-family="Times Roman,serif" font-size="14.00">_layout</text>
</g>
<!-- Devise::OmniauthCallbacksController -->
<g id="node6" class="node"><title>Devise::OmniauthCallbacksController</title>
<polyline fill="none" stroke="black" points="1055.91,-1066.53 1256.91,-1066.53 "/>
<path fill="none" stroke="black" d="M1256.91,-1066.53C1262.91,-1066.53 1268.91,-1072.53 1268.91,-1078.53"/>
<polyline fill="none" stroke="black" points="1268.91,-1078.53 1268.91,-1219.53 "/>
<path fill="none" stroke="black" d="M1268.91,-1219.53C1268.91,-1225.53 1262.91,-1231.53 1256.91,-1231.53"/>
<polyline fill="none" stroke="black" points="1256.91,-1231.53 1055.91,-1231.53 "/>
<path fill="none" stroke="black" d="M1055.91,-1231.53C1049.91,-1231.53 1043.91,-1225.53 1043.91,-1219.53"/>
<polyline fill="none" stroke="black" points="1043.91,-1219.53 1043.91,-1078.53 "/>
<path fill="none" stroke="black" d="M1043.91,-1078.53C1043.91,-1072.53 1049.91,-1066.53 1055.91,-1066.53"/>
<text text-anchor="middle" x="1156.41" y="-1214.93" font-family="Times Roman,serif" font-size="14.00">Devise::OmniauthCallbacksController</text>
<polyline fill="none" stroke="black" points="1043.91,-1204.53 1268.91,-1204.53 "/>
<text text-anchor="start" x="1051.91" y="-1187.93" font-family="Times Roman,serif" font-size="14.00">failure</text>
<text text-anchor="start" x="1051.91" y="-1168.93" font-family="Times Roman,serif" font-size="14.00">passthru</text>
<polyline fill="none" stroke="black" points="1043.91,-1158.53 1268.91,-1158.53 "/>
<text text-anchor="start" x="1051.91" y="-1141.93" font-family="Times Roman,serif" font-size="14.00">after_omniauth_failure_path_for</text>
<text text-anchor="start" x="1051.91" y="-1122.93" font-family="Times Roman,serif" font-size="14.00">failed_strategy</text>
<text text-anchor="start" x="1051.91" y="-1103.93" font-family="Times Roman,serif" font-size="14.00">failure_message</text>
<polyline fill="none" stroke="black" points="1043.91,-1093.53 1268.91,-1093.53 "/>
<text text-anchor="start" x="1051.91" y="-1076.93" font-family="Times Roman,serif" font-size="14.00">_layout</text>
</g>
<!-- Devise::PasswordsController -->
<g id="node7" class="node"><title>Devise::PasswordsController</title>
<polyline fill="none" stroke="black" points="329.106,-1058.16 607.106,-1058.16 "/>
<path fill="none" stroke="black" d="M607.106,-1058.16C613.106,-1058.16 619.106,-1064.16 619.106,-1070.16"/>
<polyline fill="none" stroke="black" points="619.106,-1070.16 619.106,-1268.16 "/>
<path fill="none" stroke="black" d="M619.106,-1268.16C619.106,-1274.16 613.106,-1280.16 607.106,-1280.16"/>
<polyline fill="none" stroke="black" points="607.106,-1280.16 329.106,-1280.16 "/>
<path fill="none" stroke="black" d="M329.106,-1280.16C323.106,-1280.16 317.106,-1274.16 317.106,-1268.16"/>
<polyline fill="none" stroke="black" points="317.106,-1268.16 317.106,-1070.16 "/>
<path fill="none" stroke="black" d="M317.106,-1070.16C317.106,-1064.16 323.106,-1058.16 329.106,-1058.16"/>
<text text-anchor="middle" x="468.106" y="-1263.56" font-family="Times Roman,serif" font-size="14.00">Devise::PasswordsController</text>
<polyline fill="none" stroke="black" points="317.106,-1253.16 619.106,-1253.16 "/>
<text text-anchor="start" x="325.106" y="-1236.56" font-family="Times Roman,serif" font-size="14.00">create</text>
<text text-anchor="start" x="325.106" y="-1217.56" font-family="Times Roman,serif" font-size="14.00">edit</text>
<text text-anchor="start" x="325.106" y="-1198.56" font-family="Times Roman,serif" font-size="14.00">new</text>
<text text-anchor="start" x="325.106" y="-1179.56" font-family="Times Roman,serif" font-size="14.00">update</text>
<polyline fill="none" stroke="black" points="317.106,-1169.16 619.106,-1169.16 "/>
<text text-anchor="start" x="325.106" y="-1152.56" font-family="Times Roman,serif" font-size="14.00">after_resetting_password_path_for</text>
<text text-anchor="start" x="325.106" y="-1133.56" font-family="Times Roman,serif" font-size="14.00">after_sending_reset_password_instructions_path_for</text>
<text text-anchor="start" x="325.106" y="-1114.56" font-family="Times Roman,serif" font-size="14.00">assert_reset_token_passed</text>
<text text-anchor="start" x="325.106" y="-1095.56" font-family="Times Roman,serif" font-size="14.00">unlockable?</text>
<polyline fill="none" stroke="black" points="317.106,-1085.16 619.106,-1085.16 "/>
<text text-anchor="start" x="325.106" y="-1068.56" font-family="Times Roman,serif" font-size="14.00">_layout</text>
</g>
<!-- Devise::RegistrationsController -->
<g id="node8" class="node"><title>Devise::RegistrationsController</title>
<polyline fill="none" stroke="black" points="384.358,-3.43801 553.358,-3.43801 "/>
<path fill="none" stroke="black" d="M553.358,-3.43801C559.358,-3.43801 565.358,-9.43801 565.358,-15.438"/>
<polyline fill="none" stroke="black" points="565.358,-15.438 565.358,-365.438 "/>
<path fill="none" stroke="black" d="M565.358,-365.438C565.358,-371.438 559.358,-377.438 553.358,-377.438"/>
<polyline fill="none" stroke="black" points="553.358,-377.438 384.358,-377.438 "/>
<path fill="none" stroke="black" d="M384.358,-377.438C378.358,-377.438 372.358,-371.438 372.358,-365.438"/>
<polyline fill="none" stroke="black" points="372.358,-365.438 372.358,-15.438 "/>
<path fill="none" stroke="black" d="M372.358,-15.438C372.358,-9.43801 378.358,-3.43801 384.358,-3.43801"/>
<text text-anchor="middle" x="468.858" y="-360.838" font-family="Times Roman,serif" font-size="14.00">Devise::RegistrationsController</text>
<polyline fill="none" stroke="black" points="372.358,-350.438 565.358,-350.438 "/>
<text text-anchor="start" x="380.358" y="-333.838" font-family="Times Roman,serif" font-size="14.00">cancel</text>
<text text-anchor="start" x="380.358" y="-314.838" font-family="Times Roman,serif" font-size="14.00">create</text>
<text text-anchor="start" x="380.358" y="-295.838" font-family="Times Roman,serif" font-size="14.00">destroy</text>
<text text-anchor="start" x="380.358" y="-276.838" font-family="Times Roman,serif" font-size="14.00">edit</text>
<text text-anchor="start" x="380.358" y="-257.838" font-family="Times Roman,serif" font-size="14.00">new</text>
<text text-anchor="start" x="380.358" y="-238.838" font-family="Times Roman,serif" font-size="14.00">update</text>
<polyline fill="none" stroke="black" points="372.358,-228.438 565.358,-228.438 "/>
<text text-anchor="start" x="380.358" y="-211.838" font-family="Times Roman,serif" font-size="14.00">account_update_params</text>
<text text-anchor="start" x="380.358" y="-192.838" font-family="Times Roman,serif" font-size="14.00">after_inactive_sign_up_path_for</text>
<text text-anchor="start" x="380.358" y="-173.838" font-family="Times Roman,serif" font-size="14.00">after_sign_up_path_for</text>
<text text-anchor="start" x="380.358" y="-154.838" font-family="Times Roman,serif" font-size="14.00">after_update_path_for</text>
<text text-anchor="start" x="380.358" y="-135.838" font-family="Times Roman,serif" font-size="14.00">authenticate_scope!</text>
<text text-anchor="start" x="380.358" y="-116.838" font-family="Times Roman,serif" font-size="14.00">build_resource</text>
<text text-anchor="start" x="380.358" y="-97.838" font-family="Times Roman,serif" font-size="14.00">sign_up</text>
<text text-anchor="start" x="380.358" y="-78.838" font-family="Times Roman,serif" font-size="14.00">sign_up_params</text>
<text text-anchor="start" x="380.358" y="-59.838" font-family="Times Roman,serif" font-size="14.00">update_needs_confirmation?</text>
<text text-anchor="start" x="380.358" y="-40.838" font-family="Times Roman,serif" font-size="14.00">update_resource</text>
<polyline fill="none" stroke="black" points="372.358,-30.438 565.358,-30.438 "/>
<text text-anchor="start" x="380.358" y="-13.838" font-family="Times Roman,serif" font-size="14.00">_layout</text>
</g>
<!-- Devise::SessionsController -->
<g id="node9" class="node"><title>Devise::SessionsController</title>
<polyline fill="none" stroke="black" points="1075.29,-532.52 1215.29,-532.52 "/>
<path fill="none" stroke="black" d="M1215.29,-532.52C1221.29,-532.52 1227.29,-538.52 1227.29,-544.52"/>
<polyline fill="none" stroke="black" points="1227.29,-544.52 1227.29,-761.52 "/>
<path fill="none" stroke="black" d="M1227.29,-761.52C1227.29,-767.52 1221.29,-773.52 1215.29,-773.52"/>
<polyline fill="none" stroke="black" points="1215.29,-773.52 1075.29,-773.52 "/>
<path fill="none" stroke="black" d="M1075.29,-773.52C1069.29,-773.52 1063.29,-767.52 1063.29,-761.52"/>
<polyline fill="none" stroke="black" points="1063.29,-761.52 1063.29,-544.52 "/>
<path fill="none" stroke="black" d="M1063.29,-544.52C1063.29,-538.52 1069.29,-532.52 1075.29,-532.52"/>
<text text-anchor="middle" x="1145.29" y="-756.92" font-family="Times Roman,serif" font-size="14.00">Devise::SessionsController</text>
<polyline fill="none" stroke="black" points="1063.29,-746.52 1227.29,-746.52 "/>
<text text-anchor="start" x="1071.29" y="-729.92" font-family="Times Roman,serif" font-size="14.00">create</text>
<text text-anchor="start" x="1071.29" y="-710.92" font-family="Times Roman,serif" font-size="14.00">destroy</text>
<text text-anchor="start" x="1071.29" y="-691.92" font-family="Times Roman,serif" font-size="14.00">new</text>
<polyline fill="none" stroke="black" points="1063.29,-681.52 1227.29,-681.52 "/>
<text text-anchor="start" x="1071.29" y="-664.92" font-family="Times Roman,serif" font-size="14.00">auth_options</text>
<text text-anchor="start" x="1071.29" y="-645.92" font-family="Times Roman,serif" font-size="14.00">serialize_options</text>
<text text-anchor="start" x="1071.29" y="-626.92" font-family="Times Roman,serif" font-size="14.00">sign_in_params</text>
<polyline fill="none" stroke="black" points="1063.29,-616.52 1227.29,-616.52 "/>
<text text-anchor="start" x="1071.29" y="-599.92" font-family="Times Roman,serif" font-size="14.00">_layout</text>
<text text-anchor="start" x="1071.29" y="-580.92" font-family="Times Roman,serif" font-size="14.00">all_signed_out?</text>
<text text-anchor="start" x="1071.29" y="-561.92" font-family="Times Roman,serif" font-size="14.00">respond_to_on_destroy</text>
<text text-anchor="start" x="1071.29" y="-542.92" font-family="Times Roman,serif" font-size="14.00">verify_signed_out_user</text>
</g>
<!-- Devise::CasSessionsController -->
<g id="node12" class="node"><title>Devise::CasSessionsController</title>
<polyline fill="none" stroke="black" points="1070.65,-1.5 1230.65,-1.5 "/>
<path fill="none" stroke="black" d="M1230.65,-1.5C1236.65,-1.5 1242.65,-7.5 1242.65,-13.5"/>
<polyline fill="none" stroke="black" points="1242.65,-13.5 1242.65,-322.5 "/>
<path fill="none" stroke="black" d="M1242.65,-322.5C1242.65,-328.5 1236.65,-334.5 1230.65,-334.5"/>
<polyline fill="none" stroke="black" points="1230.65,-334.5 1070.65,-334.5 "/>
<path fill="none" stroke="black" d="M1070.65,-334.5C1064.65,-334.5 1058.65,-328.5 1058.65,-322.5"/>
<polyline fill="none" stroke="black" points="1058.65,-322.5 1058.65,-13.5 "/>
<path fill="none" stroke="black" d="M1058.65,-13.5C1058.65,-7.5 1064.65,-1.5 1070.65,-1.5"/>
<text text-anchor="middle" x="1150.65" y="-317.9" font-family="Times Roman,serif" font-size="14.00">Devise::CasSessionsController</text>
<polyline fill="none" stroke="black" points="1058.65,-307.5 1242.65,-307.5 "/>
<text text-anchor="start" x="1066.65" y="-290.9" font-family="Times Roman,serif" font-size="14.00">destroy</text>
<text text-anchor="start" x="1066.65" y="-271.9" font-family="Times Roman,serif" font-size="14.00">new</text>
<text text-anchor="start" x="1066.65" y="-252.9" font-family="Times Roman,serif" font-size="14.00">service</text>
<text text-anchor="start" x="1066.65" y="-233.9" font-family="Times Roman,serif" font-size="14.00">single_sign_out</text>
<text text-anchor="start" x="1066.65" y="-214.9" font-family="Times Roman,serif" font-size="14.00">unregistered</text>
<polyline fill="none" stroke="black" points="1058.65,-204.5 1242.65,-204.5 "/>
<polyline fill="none" stroke="black" points="1058.65,-180.5 1242.65,-180.5 "/>
<text text-anchor="start" x="1066.65" y="-163.9" font-family="Times Roman,serif" font-size="14.00">_layout</text>
<text text-anchor="start" x="1066.65" y="-144.9" font-family="Times Roman,serif" font-size="14.00">cas_login_url</text>
<text text-anchor="start" x="1066.65" y="-125.9" font-family="Times Roman,serif" font-size="14.00">destination_url</text>
<text text-anchor="start" x="1066.65" y="-106.9" font-family="Times Roman,serif" font-size="14.00">destroy_cas_session</text>
<text text-anchor="start" x="1066.65" y="-87.9" font-family="Times Roman,serif" font-size="14.00">follow_url</text>
<text text-anchor="start" x="1066.65" y="-68.9" font-family="Times Roman,serif" font-size="14.00">logout_url</text>
<text text-anchor="start" x="1066.65" y="-49.9" font-family="Times Roman,serif" font-size="14.00">read_session_index</text>
<text text-anchor="start" x="1066.65" y="-30.9" font-family="Times Roman,serif" font-size="14.00">request_url</text>
<text text-anchor="start" x="1066.65" y="-11.9" font-family="Times Roman,serif" font-size="14.00">service_url</text>
</g>
<!-- Devise::SessionsController&#45;&gt;Devise::CasSessionsController -->
<g id="edge20" class="edge"><title>Devise::SessionsController&#45;&gt;Devise::CasSessionsController</title>
<path fill="none" stroke="black" d="M1146.63,-532.504C1147.29,-472.746 1148.09,-399.624 1148.81,-334.6"/>
</g>
<!-- Devise::UnlocksController -->
<g id="node10" class="node"><title>Devise::UnlocksController</title>
<polyline fill="none" stroke="black" points="662.652,-96.8393 894.652,-96.8393 "/>
<path fill="none" stroke="black" d="M894.652,-96.8393C900.652,-96.8393 906.652,-102.839 906.652,-108.839"/>
<polyline fill="none" stroke="black" points="906.652,-108.839 906.652,-249.839 "/>
<path fill="none" stroke="black" d="M906.652,-249.839C906.652,-255.839 900.652,-261.839 894.652,-261.839"/>
<polyline fill="none" stroke="black" points="894.652,-261.839 662.652,-261.839 "/>
<path fill="none" stroke="black" d="M662.652,-261.839C656.652,-261.839 650.652,-255.839 650.652,-249.839"/>
<polyline fill="none" stroke="black" points="650.652,-249.839 650.652,-108.839 "/>
<path fill="none" stroke="black" d="M650.652,-108.839C650.652,-102.839 656.652,-96.8393 662.652,-96.8393"/>
<text text-anchor="middle" x="778.652" y="-245.239" font-family="Times Roman,serif" font-size="14.00">Devise::UnlocksController</text>
<polyline fill="none" stroke="black" points="650.652,-234.839 906.652,-234.839 "/>
<text text-anchor="start" x="658.652" y="-218.239" font-family="Times Roman,serif" font-size="14.00">create</text>
<text text-anchor="start" x="658.652" y="-199.239" font-family="Times Roman,serif" font-size="14.00">new</text>
<text text-anchor="start" x="658.652" y="-180.239" font-family="Times Roman,serif" font-size="14.00">show</text>
<polyline fill="none" stroke="black" points="650.652,-169.839 906.652,-169.839 "/>
<text text-anchor="start" x="658.652" y="-153.239" font-family="Times Roman,serif" font-size="14.00">after_sending_unlock_instructions_path_for</text>
<text text-anchor="start" x="658.652" y="-134.239" font-family="Times Roman,serif" font-size="14.00">after_unlock_path_for</text>
<polyline fill="none" stroke="black" points="650.652,-123.839 906.652,-123.839 "/>
<text text-anchor="start" x="658.652" y="-107.239" font-family="Times Roman,serif" font-size="14.00">_layout</text>
</g>
<!-- DeviseController&#45;&gt;Devise::ConfirmationsController -->
<g id="edge6" class="edge"><title>DeviseController&#45;&gt;Devise::ConfirmationsController</title>
<path fill="none" stroke="black" d="M776.379,-895.717C779.202,-963.183 782.148,-1033.6 784.34,-1085.98"/>
</g>
<!-- DeviseController&#45;&gt;Devise::OmniauthCallbacksController -->
<g id="edge8" class="edge"><title>DeviseController&#45;&gt;Devise::OmniauthCallbacksController</title>
<path fill="none" stroke="black" d="M849.389,-778.946C920.172,-864.267 1021.23,-986.084 1087.8,-1066.32"/>
</g>
<!-- DeviseController&#45;&gt;Devise::PasswordsController -->
<g id="edge10" class="edge"><title>DeviseController&#45;&gt;Devise::PasswordsController</title>
<path fill="none" stroke="black" d="M685.188,-814.359C638.384,-890.856 580.443,-985.557 536.196,-1057.87"/>
</g>
<!-- DeviseController&#45;&gt;Devise::RegistrationsController -->
<g id="edge12" class="edge"><title>DeviseController&#45;&gt;Devise::RegistrationsController</title>
<path fill="none" stroke="black" d="M685.197,-545.299C648.179,-484.578 604.207,-412.451 565.605,-349.133"/>
</g>
<!-- DeviseController&#45;&gt;Devise::SessionsController -->
<g id="edge14" class="edge"><title>DeviseController&#45;&gt;Devise::SessionsController</title>
<path fill="none" stroke="black" d="M849.362,-674.195C912.647,-669.667 999.795,-663.431 1063.12,-658.9"/>
</g>
<!-- DeviseController&#45;&gt;Devise::UnlocksController -->
<g id="edge16" class="edge"><title>DeviseController&#45;&gt;Devise::UnlocksController</title>
<path fill="none" stroke="black" d="M772.22,-464.442C773.836,-392.792 775.54,-317.272 776.788,-261.97"/>
</g>
<!-- Foundation::Rails::StyleguideController -->
<g id="node13" class="node"><title>Foundation::Rails::StyleguideController</title>
<polyline fill="none" stroke="black" points="1228,-892.5 1438,-892.5 "/>
<path fill="none" stroke="black" d="M1438,-892.5C1444,-892.5 1450,-898.5 1450,-904.5"/>
<polyline fill="none" stroke="black" points="1450,-904.5 1450,-985.5 "/>
<path fill="none" stroke="black" d="M1450,-985.5C1450,-991.5 1444,-997.5 1438,-997.5"/>
<polyline fill="none" stroke="black" points="1438,-997.5 1228,-997.5 "/>
<path fill="none" stroke="black" d="M1228,-997.5C1222,-997.5 1216,-991.5 1216,-985.5"/>
<polyline fill="none" stroke="black" points="1216,-985.5 1216,-904.5 "/>
<path fill="none" stroke="black" d="M1216,-904.5C1216,-898.5 1222,-892.5 1228,-892.5"/>
<text text-anchor="middle" x="1333" y="-980.9" font-family="Times Roman,serif" font-size="14.00">Foundation::Rails::StyleguideController</text>
<polyline fill="none" stroke="black" points="1216,-970.5 1450,-970.5 "/>
<text text-anchor="start" x="1224" y="-953.9" font-family="Times Roman,serif" font-size="14.00">show</text>
<polyline fill="none" stroke="black" points="1216,-943.5 1450,-943.5 "/>
<polyline fill="none" stroke="black" points="1216,-919.5 1450,-919.5 "/>
<text text-anchor="start" x="1224" y="-902.9" font-family="Times Roman,serif" font-size="14.00">_layout</text>
</g>
</g>
</svg>
