<?xml version="1.0" encoding="UTF-8" standalone="no"?>
<!DOCTYPE svg PUBLIC "-//W3C//DTD SVG 1.1//EN"
 "http://www.w3.org/Graphics/SVG/1.1/DTD/svg11.dtd">
<!-- Generated by graphviz version 2.26.3 (20100126.1600)
 -->
<!-- Title: models_diagram Pages: 1 -->
<svg width="417pt" height="324pt"
 viewBox="0.00 0.00 417.00 324.00" xmlns="http://www.w3.org/2000/svg" xmlns:xlink="http://www.w3.org/1999/xlink">
<g id="graph1" class="graph" transform="scale(1 1) rotate(0) translate(4 320)">
<title>models_diagram</title>
<polygon fill="white" stroke="white" points="-4,5 -4,-320 414,-320 414,5 -4,5"/>
<!-- _diagram_info -->
<g id="node1" class="node"><title>_diagram_info</title>
<text text-anchor="start" x="8" y="-299.8" font-family="Times Roman,serif" font-size="13.00">Models diagram</text>
<text text-anchor="start" x="8" y="-282.8" font-family="Times Roman,serif" font-size="13.00">Date: Apr 27 2015 &#45; 14:25</text>
<text text-anchor="start" x="8" y="-265.8" font-family="Times Roman,serif" font-size="13.00">Migration version: 20150325111311</text>
<text text-anchor="start" x="8" y="-248.8" font-family="Times Roman,serif" font-size="13.00">Generated by RailRoady 1.3.0</text>
<text text-anchor="start" x="8" y="-231.8" font-family="Times Roman,serif" font-size="13.00">http://railroady.prestonlee.com</text>
</g>
<!-- User -->
<g id="node2" class="node"><title>User</title>
<ellipse fill="none" stroke="black" cx="190" cy="-167" rx="29.1951" ry="19.0919"/>
<text text-anchor="middle" x="190" y="-163.9" font-family="Times Roman,serif" font-size="14.00">User</text>
</g>
<!-- Destination -->
<g id="node4" class="node"><title>Destination</title>
<ellipse fill="none" stroke="black" cx="297" cy="-93" rx="55.8614" ry="19.0919"/>
<text text-anchor="middle" x="297" y="-89.9" font-family="Times Roman,serif" font-size="14.00">Destination</text>
</g>
<!-- User&#45;&gt;Destination -->
<g id="edge2" class="edge"><title>User&#45;&gt;Destination</title>
<path fill="none" stroke="#5f3260" d="M217.055,-148.289C231.188,-138.515 248.611,-126.465 263.58,-116.113"/>
<ellipse fill="none" stroke="#5f3260" cx="213.416" cy="-150.806" rx="4.00002" ry="4.00002"/>
<polygon fill="#5f3260" stroke="#5f3260" points="263.843,-115.931 274.627,-113.944 267.955,-113.087 272.067,-110.243 272.067,-110.243 272.067,-110.243 267.955,-113.087 269.508,-106.542 263.843,-115.931 263.843,-115.931"/>
</g>
<!-- Message -->
<g id="node3" class="node"><title>Message</title>
<ellipse fill="none" stroke="black" cx="283" cy="-167" rx="45.9619" ry="19.0919"/>
<text text-anchor="middle" x="283" y="-163.9" font-family="Times Roman,serif" font-size="14.00">Message</text>
</g>
<!-- Message&#45;&gt;Destination -->
<g id="edge6" class="edge"><title>Message&#45;&gt;Destination</title>
<path fill="none" stroke="#b546ee" d="M288.096,-140.066C289.196,-134.248 290.365,-128.071 291.481,-122.172"/>
<ellipse fill="none" stroke="#b546ee" cx="287.349" cy="-144.013" rx="4.00001" ry="4.00001"/>
<polygon fill="#b546ee" stroke="#b546ee" points="291.548,-121.818 297.828,-112.829 292.477,-116.905 293.407,-111.992 293.407,-111.992 293.407,-111.992 292.477,-116.905 288.985,-111.156 291.548,-121.818 291.548,-121.818"/>
</g>
<!-- Attachment -->
<g id="node5" class="node"><title>Attachment</title>
<ellipse fill="none" stroke="black" cx="353" cy="-19" rx="56.0679" ry="19.0919"/>
<text text-anchor="middle" x="353" y="-15.9" font-family="Times Roman,serif" font-size="14.00">Attachment</text>
</g>
<!-- Destination&#45;&gt;Attachment -->
<g id="edge10" class="edge"><title>Destination&#45;&gt;Attachment</title>
<path fill="none" stroke="#aec08f" d="M316.156,-67.687C321.561,-60.5438 327.457,-52.7528 332.916,-45.5397"/>
<ellipse fill="none" stroke="#aec08f" cx="313.545" cy="-71.137" rx="4.00002" ry="4.00002"/>
<polygon fill="#aec08f" stroke="#aec08f" points="333.033,-45.3851 342.656,-40.1265 336.05,-41.398 339.067,-37.411 339.067,-37.411 339.067,-37.411 336.05,-41.398 335.479,-34.6955 333.033,-45.3851 333.033,-45.3851"/>
</g>
<!-- ActiveRecord::Base -->
<g id="node7" class="node"><title>ActiveRecord::Base</title>
<ellipse fill="none" stroke="black" cx="320" cy="-269" rx="87.889" ry="19.0919"/>
<text text-anchor="middle" x="320" y="-265.9" font-family="Times Roman,serif" font-size="14.00">ActiveRecord::Base</text>
</g>
<!-- ActiveRecord::Base&#45;&gt;User -->
<g id="edge4" class="edge"><title>ActiveRecord::Base&#45;&gt;User</title>
<path fill="none" stroke="black" d="M296.458,-250.529C271.288,-230.78 231.883,-199.862 208.734,-181.699"/>
</g>
<!-- ActiveRecord::Base&#45;&gt;Message -->
<g id="edge8" class="edge"><title>ActiveRecord::Base&#45;&gt;Message</title>
<path fill="none" stroke="black" d="M313.041,-249.815C306.426,-231.579 296.533,-204.307 289.928,-186.099"/>
</g>
<!-- ActiveRecord::Base&#45;&gt;Destination -->
<g id="edge12" class="edge"><title>ActiveRecord::Base&#45;&gt;Destination</title>
<path fill="none" stroke="black" d="M328.257,-249.666C337.422,-225.375 349.501,-182.672 338,-148 333.425,-134.209 323.899,-121.071 315.18,-111.097"/>
</g>
<!-- ActiveRecord::Base&#45;&gt;Attachment -->
<g id="edge14" class="edge"><title>ActiveRecord::Base&#45;&gt;Attachment</title>
<path fill="none" stroke="black" d="M329.552,-250.068C337.432,-233.574 348.223,-208.793 354,-186 366.261,-137.625 366.043,-123.741 362,-74 361.02,-61.9452 358.851,-48.5497 356.888,-37.9968"/>
</g>
</g>
</svg>
